<svg xmlns="http://www.w3.org/2000/svg" enable-background="new 0 0 1364 960" viewBox="0 0 1364 960"><path fill="#a4b025" d="M248.82,625.26c-2.17-2.49-2.45-6.3-1.14-9.33c1.31-3.03,4-5.32,7-6.69c3-1.38,6.31-1.93,9.6-2.23   c5.44-0.5,11.12-0.31,16.2,1.57c-3.49-7.22-7.54-14.18-12.1-20.79c-0.41-0.6-0.84-1.2-1.26-1.79c-4.47,3.57-8.94,7.15-13.41,10.72   c-2.98,2.38-6.06,4.82-9.72,5.92c-3.66,1.1-8.08,0.55-10.59-2.33c-2.17-2.49-2.45-6.3-1.14-9.33c1.31-3.03,3.99-5.32,7-6.69   s6.31-1.93,9.6-2.23c5.61-0.52,11.48-0.3,16.68,1.75c-5.29-7.18-11.17-13.92-17.58-20.11c-4.67,3.45-9.34,6.89-14,10.34   c-3.07,2.27-6.24,4.59-9.94,5.54c-3.7,0.96-8.1,0.24-10.5-2.73c-2.07-2.57-2.2-6.38-0.78-9.36s4.2-5.16,7.25-6.42   c3.05-1.26,6.38-1.68,9.68-1.86c5.28-0.28,10.76,0.09,15.65,1.99c-4.74-4.38-9.74-8.47-14.98-12.23c-1.55-1.11-3.13-2.19-4.72-3.24   c-4.92,3.39-9.84,6.77-14.75,10.16c-3.14,2.17-6.39,4.38-10.12,5.21c-3.73,0.84-8.1-0.02-10.4-3.08c-1.99-2.64-1.99-6.45-0.47-9.38   c1.52-2.93,4.36-5.02,7.45-6.18c3.09-1.16,6.44-1.47,9.74-1.54c4.72-0.1,9.58,0.33,13.99,1.89c-5.53-3.38-11.27-6.4-17.18-9.04   c-5.79,0.62-11.58,1.24-17.37,1.86c-3.8,0.41-7.71,0.81-11.39-0.23c-3.68-1.04-7.12-3.87-7.69-7.65c-0.49-3.27,1.32-6.62,4.05-8.47   c2.73-1.85,6.23-2.33,9.5-1.88c3.27,0.45,6.37,1.77,9.31,3.28c5.42,2.78,10.62,6.45,13.9,11.54c0.02,0.01,0.04,0.01,0.06,0.02   c6.3,2.8,12.41,6.03,18.27,9.66c-3.05-3.85-5.03-8.58-6.42-13.34c-0.92-3.17-1.63-6.46-1.45-9.76c0.18-3.3,1.32-6.63,3.66-8.97   c2.34-2.33,5.98-3.47,9.09-2.36c3.6,1.28,5.73,5.2,6.05,9s-0.82,7.57-1.94,11.22c-1.71,5.56-3.42,11.12-5.13,16.68   c7.04,4.65,13.7,9.87,19.9,15.6c-2.25-4.66-3.07-10-3.24-15.22c-0.11-3.3,0.03-6.66,1.02-9.81c0.99-3.15,2.93-6.1,5.77-7.77   c2.84-1.68,6.65-1.88,9.4-0.03c3.17,2.13,4.26,6.45,3.63,10.22c-0.64,3.77-2.67,7.13-4.67,10.38c-3.04,4.96-6.07,9.91-9.11,14.87   c0.19,0.18,0.39,0.37,0.58,0.55c6.23,6.09,11.95,12.69,17.11,19.69c-1.83-5.5-1.6-11.58-0.61-17.32c0.56-3.25,1.37-6.51,2.98-9.39   c1.61-2.88,4.1-5.38,7.23-6.44c3.13-1.07,6.9-0.49,9.21,1.87c2.68,2.73,2.87,7.18,1.48,10.74c-1.39,3.56-4.06,6.44-6.67,9.22   c-4.11,4.37-8.21,8.75-12.32,13.12c0.07,0.1,0.14,0.2,0.21,0.3l0.17-0.01c-0.04,0.03-0.07,0.06-0.11,0.09   c4.91,6.9,9.27,14.19,13.03,21.78c0.43-5.19,2.41-10.26,4.9-14.88c1.59-2.96,3.42-5.85,5.91-8.12s5.7-3.88,9.06-3.91   c3.36-0.03,6.82,1.73,8.3,4.76c1.71,3.5,0.46,7.86-2.02,10.86c-2.48,3-6,4.92-9.42,6.77c-4.86,2.63-9.72,5.26-14.58,7.9   c-0.13,0.1-0.26,0.21-0.39,0.31c3.91,8.48,7.05,17.3,9.33,26.35c0.24,0.96-1.21,1.52-1.45,0.55c-2.25-8.9-5.32-17.57-9.13-25.9   c-4.24,3.39-8.48,6.78-12.72,10.17c-2.98,2.38-6.06,4.82-9.72,5.92C255.75,628.69,251.33,628.15,248.82,625.26z"/><path fill="#a4b025" d="M1067.92,371.23c2.17-2.49,2.45-6.3,1.14-9.33c-1.31-3.03-4-5.32-7-6.69c-3-1.38-6.31-1.93-9.6-2.23   c-5.44-0.5-11.12-0.31-16.2,1.57c3.49-7.22,7.54-14.18,12.1-20.79c0.41-0.6,0.84-1.2,1.26-1.79c4.47,3.57,8.94,7.15,13.41,10.72   c2.98,2.38,6.06,4.82,9.72,5.92c3.66,1.1,8.08,0.55,10.59-2.33c2.17-2.49,2.45-6.3,1.14-9.33c-1.31-3.03-3.99-5.32-7-6.69   c-3-1.38-6.31-1.93-9.6-2.23c-5.61-0.52-11.48-0.3-16.68,1.75c5.29-7.18,11.17-13.92,17.58-20.11c4.67,3.45,9.34,6.89,14,10.34   c3.07,2.27,6.24,4.59,9.94,5.54c3.7,0.96,8.1,0.24,10.5-2.73c2.07-2.57,2.2-6.38,0.78-9.36c-1.43-2.98-4.2-5.16-7.25-6.42   c-3.05-1.26-6.38-1.68-9.68-1.86c-5.28-0.28-10.76,0.09-15.65,1.99c4.74-4.38,9.74-8.47,14.98-12.23c1.55-1.11,3.13-2.19,4.72-3.24   c4.92,3.39,9.84,6.77,14.75,10.16c3.14,2.17,6.39,4.38,10.12,5.21c3.73,0.84,8.1-0.02,10.4-3.07c1.99-2.64,1.99-6.45,0.47-9.38   c-1.52-2.93-4.36-5.02-7.45-6.18c-3.09-1.16-6.44-1.47-9.74-1.54c-4.72-0.1-9.58,0.33-13.99,1.89c5.53-3.38,11.27-6.4,17.18-9.04   c5.79,0.62,11.58,1.24,17.37,1.86c3.8,0.41,7.71,0.81,11.39-0.23c3.68-1.04,7.12-3.87,7.69-7.65c0.49-3.27-1.32-6.62-4.05-8.47   c-2.73-1.85-6.23-2.33-9.5-1.88c-3.27,0.45-6.37,1.77-9.31,3.28c-5.42,2.78-10.62,6.45-13.9,11.54c-0.02,0.01-0.04,0.01-0.06,0.02   c-6.3,2.8-12.41,6.03-18.27,9.66c3.05-3.85,5.03-8.58,6.42-13.34c0.92-3.17,1.63-6.46,1.45-9.76c-0.18-3.3-1.32-6.63-3.66-8.97   c-2.34-2.33-5.98-3.47-9.09-2.36c-3.6,1.28-5.73,5.2-6.05,9c-0.32,3.81,0.82,7.57,1.94,11.22c1.71,5.56,3.42,11.12,5.13,16.68   c-7.04,4.65-13.7,9.87-19.9,15.6c2.25-4.66,3.07-10,3.24-15.22c0.11-3.3-0.03-6.66-1.02-9.81c-0.99-3.15-2.93-6.1-5.77-7.77   c-2.84-1.68-6.65-1.88-9.4-0.03c-3.17,2.13-4.26,6.45-3.63,10.22c0.64,3.77,2.67,7.13,4.67,10.38c3.04,4.96,6.07,9.91,9.11,14.87   c-0.19,0.18-0.39,0.37-0.58,0.55c-6.23,6.09-11.95,12.69-17.11,19.69c1.83-5.5,1.6-11.58,0.61-17.32   c-0.56-3.25-1.37-6.51-2.98-9.39c-1.61-2.88-4.1-5.38-7.23-6.44c-3.13-1.07-6.9-0.49-9.21,1.87c-2.68,2.73-2.87,7.18-1.48,10.74   c1.39,3.56,4.06,6.44,6.67,9.22c4.11,4.37,8.21,8.75,12.32,13.12c-0.07,0.1-0.14,0.2-0.21,0.3l-0.17-0.01   c0.04,0.03,0.07,0.06,0.11,0.09c-4.91,6.9-9.27,14.19-13.03,21.78c-0.43-5.19-2.41-10.26-4.9-14.88c-1.59-2.96-3.42-5.85-5.91-8.12   c-2.48-2.27-5.7-3.88-9.06-3.91s-6.82,1.73-8.3,4.76c-1.71,3.5-0.46,7.86,2.02,10.86c2.48,3,6,4.92,9.42,6.77   c4.86,2.63,9.72,5.26,14.58,7.9c0.13,0.1,0.26,0.21,0.39,0.31c-3.91,8.48-7.05,17.3-9.33,26.35c-0.24,0.96,1.21,1.52,1.45,0.55   c2.25-8.9,5.32-17.57,9.13-25.9c4.24,3.39,8.48,6.78,12.72,10.17c2.98,2.38,6.06,4.82,9.72,5.92   C1060.99,374.66,1065.41,374.11,1067.92,371.23z"/><path fill="#ffaeae" d="M1000.85,834.4c4.39-0.76,7.94-4.71,9.01-9.93c5.75-28.27-11.76-55.22-13.06-79.27    c-0.45-8.23-6.14-14.6-12.95-14.6h-36.2c-6.9,0-12.61,6.53-12.96,14.88c-1.11,26.32-17.49,48.61-12.37,78.35    c0.96,5.55,4.75,9.75,9.4,10.41C955.71,837.67,978.76,838.22,1000.85,834.4z"/><path fill="#d94848" d="M1004.29,823.34c-0.59,2.87-2.4,5.12-4.41,5.47c-9.84,1.7-20.34,2.57-31.21,2.57c0,0,0,0,0,0    c-11.39,0-23.22-0.9-36.16-2.75c-2.18-0.31-4.08-2.68-4.6-5.75c-2.8-16.24,1.33-30.04,5.69-44.65c0.77-2.59,1.55-5.2,2.3-7.84    c5.5-0.38,11.04-0.04,14.95,1.92c10.94,5.47,15.76,2.93,20.17,1.2c16.06-6.32,22.96,0.88,25.94-0.52c0.35,1.15,0.7,2.31,1.06,3.48    C1002.67,791.76,1007.49,807.59,1004.29,823.34z"/><path fill="#bf2c2c" d="M999.71,782.09c1.57,10.73,1.99,21.49-1.22,31.85c-0.87,2.8-25.43,5.52-36.24,4.43c0,0,0,0,0,0    c-11.2-1.13-22.73-3.17-35.24-6.24c0,3.48,0.27,7.05,0.91,10.74c0.53,3.07,2.42,5.44,4.6,5.75c12.94,1.85,24.76,2.75,36.16,2.75    c0,0,0,0,0,0c10.87,0,21.37-0.86,31.21-2.57c2.01-0.35,3.83-2.6,4.41-5.47C1007.1,809.51,1003.73,795.63,999.71,782.09z"/><path fill="#2d3857" d="M981.96,730.6h-32.99l-3.73-27.07c-0.91-6.6,3.45-12.58,9.18-12.58h22.1c5.72,0,10.09,5.98,9.18,12.58     L981.96,730.6z"/><path fill="#222c47" d="M976.96,690.97c1.55,2.29,2.33,5.3,1.89,8.46l-0.08,0.6c-2.09,15.17-15.05,26.47-30.37,26.47l0,0l0.57,4.1     h32.99l3.73-27.07C986.57,697.11,982.46,691.27,976.96,690.97z"/><rect width="4.1" height="53.23" x="963.5" y="730.6" fill="#2d3857"/><polygon fill="#bf2c2c" points="973.15 792.72 958.03 792.72 961.1 762.05 970.08 762.05"/><ellipse cx="946.99" cy="751.41" fill="#9e9e9e" rx="15.6" ry="8.62" transform="rotate(-77.878 947.029 751.406)"/><rect width="752.73" height="472.3" x="285.67" y="150.4" fill="#fff"/><rect width="128.07" height="148.08" x="599.01" y="645.41" fill="#c2c2d4"/><path fill="#4d4d4d" d="M791.59,793.48H534.5c-21.21,0-38.4,17.19-38.4,38.4l0,0h333.89l0,0         C829.99,810.67,812.8,793.48,791.59,793.48z"/><path fill="#c2c2d4" d="M791.59,793.48H534.5c-21.21,0-38.4,17.19-38.4,38.4l0,0h333.89l0,0         C829.99,810.67,812.8,793.48,791.59,793.48z"/><path fill="#dfdfed" d="M1034.01,143.57H292.07c-6.1,0-11.05,4.95-11.05,11.05v487.27c0,6.1,4.95,11.05,11.05,11.05h741.94          c6.11,0,11.05-4.95,11.05-11.05V154.62C1045.06,148.52,1040.12,143.57,1034.01,143.57z M1037.53,599.3          c0,6.63-5.39,12.01-12.05,12.01H298.93c-6.66,0-12.06-5.37-12.06-12.01V162.41c0-6.63,5.4-12.01,12.06-12.01h726.55          c6.66,0,12.05,5.37,12.05,12.01V599.3z"/><path fill="#fff" d="M997.58,632.63h-29.94c-2.39,0-4.33-1.94-4.33-4.33l0,0c0-2.39,1.94-4.33,4.33-4.33h29.94          c2.39,0,4.33,1.94,4.33,4.33l0,0C1001.92,630.69,999.98,632.63,997.58,632.63z"/><path fill="#dfe2ed" d="M999.64,624.55c0.34,0.62,0.59,1.29,0.59,2.05c0,2.39-1.94,4.33-4.33,4.33h-29.93          c-0.76,0-1.43-0.25-2.05-0.59c0.74,1.34,2.11,2.28,3.74,2.28h29.94c2.39,0,4.33-1.94,4.33-4.33          C1001.92,626.66,1000.97,625.29,999.64,624.55z"/><path fill="#fff" d="M954.91,632.63h-17.22c-2.39,0-4.33-1.94-4.33-4.33l0,0c0-2.39,1.94-4.33,4.33-4.33h17.22          c2.39,0,4.33,1.94,4.33,4.33l0,0C959.24,630.69,957.3,632.63,954.91,632.63z"/><path fill="#dfe2ed" d="M956.12,624.21c0.6,0.74,1.01,1.65,1.01,2.68c0,2.39-1.94,4.33-4.33,4.33h-17.22          c-0.43,0-0.81-0.13-1.2-0.24c0.79,0.99,1.96,1.66,3.32,1.66h17.22c2.39,0,4.33-1.94,4.33-4.33          C959.24,626.33,957.91,624.74,956.12,624.21z"/><path fill="#fff" d="M923.76,632.86h-17.22c-2.39,0-4.33-1.94-4.33-4.33l0,0c0-2.39,1.94-4.33,4.33-4.33h17.22          c2.39,0,4.33,1.94,4.33,4.33l0,0C928.09,630.92,926.15,632.86,923.76,632.86z"/><path fill="#dfe2ed" d="M923.76,624.19h-0.65c0.52,0.71,0.89,1.55,0.89,2.5c0,2.39-1.94,4.33-4.33,4.33h-16.57          c0.79,1.08,2,1.83,3.44,1.83h17.22c2.39,0,4.33-1.94,4.33-4.33C928.09,626.13,926.15,624.19,923.76,624.19z"/><path fill="#fff" d="M883.61,628.3c0-3.68,2.98-6.66,6.66-6.66c3.68,0,6.66,2.98,6.66,6.66c0,3.68-2.98,6.66-6.66,6.66          C886.59,634.96,883.61,631.98,883.61,628.3z"/><path fill="#dfe2ed" d="M893.86,622.7c0.67,1.04,1.06,2.27,1.06,3.59c0,3.68-2.98,6.66-6.66,6.66c-1.33,0-2.55-0.4-3.59-1.06          c1.18,1.84,3.24,3.07,5.59,3.07c3.68,0,6.66-2.98,6.66-6.66C896.93,625.95,895.7,623.89,893.86,622.7z"/><rect width="521.3" height="358.86" x="326.34" y="224.73" fill="#dfdfed"/><rect width="74.68" height="50.48" x="898.79" y="227" fill="#dfdfed"/><rect width="74.68" height="50.48" x="898.79" y="327.26" fill="#dfdfed"/><rect width="74.68" height="50.48" x="898.79" y="427.52" fill="#dfdfed"/><rect width="74.68" height="50.48" x="898.79" y="527.78" fill="#dfdfed"/><path fill="#dfdfed" d="M960.93,294.5h-49.61c-0.73,0-1.31-0.59-1.31-1.31v-0.71c0-0.73,0.59-1.31,1.31-1.31h49.61       c0.73,0,1.31,0.59,1.31,1.31v0.71C962.25,293.91,961.66,294.5,960.93,294.5z"/><path fill="#dfdfed" d="M960.93,305.39h-49.61c-0.73,0-1.31-0.59-1.31-1.31v-0.71c0-0.73,0.59-1.31,1.31-1.31h49.61       c0.73,0,1.31,0.59,1.31,1.31v0.71C962.25,304.8,961.66,305.39,960.93,305.39z"/><path fill="#dfdfed" d="M960.93,396.25h-49.61c-0.73,0-1.31-0.59-1.31-1.31v-0.71c0-0.73,0.59-1.31,1.31-1.31h49.61       c0.73,0,1.31,0.59,1.31,1.31v0.71C962.25,395.66,961.66,396.25,960.93,396.25z"/><path fill="#dfdfed" d="M960.93,407.14h-49.61c-0.73,0-1.31-0.59-1.31-1.31v-0.71c0-0.73,0.59-1.31,1.31-1.31h49.61       c0.73,0,1.31,0.59,1.31,1.31v0.71C962.25,406.55,961.66,407.14,960.93,407.14z"/><path fill="#dfdfed" d="M960.93,498.01h-49.61c-0.73,0-1.31-0.59-1.31-1.31v-0.71c0-0.73,0.59-1.31,1.31-1.31h49.61       c0.73,0,1.31,0.59,1.31,1.31v0.71C962.25,497.42,961.66,498.01,960.93,498.01z"/><path fill="#dfdfed" d="M960.93,508.9h-49.61c-0.73,0-1.31-0.59-1.31-1.31v-0.71c0-0.73,0.59-1.31,1.31-1.31h49.61       c0.73,0,1.31,0.59,1.31,1.31v0.71C962.25,508.31,961.66,508.9,960.93,508.9z"/><path fill="#bcbec0" d="M825.51,571.58H354.47c-4.81,0-8.71-3.9-8.71-8.71v-4.32c0-4.81,3.9-8.71,8.71-8.71h471.04      c4.81,0,8.71,3.9,8.71,8.71v4.32C834.22,567.68,830.32,571.58,825.51,571.58z"/><path fill="#c2c2d4" d="M746.74,559.78H373.11c-0.92,0-1.67,0.82-1.67,1.83s0.75,1.83,1.67,1.83h373.63       c0.92,0,1.67-0.82,1.67-1.83S747.66,559.78,746.74,559.78z"/><rect width="2.23" height="9.63" x="440.15" y="556.8" fill="#c2c2d4"/><circle cx="364.2" cy="561.62" r="2.95" fill="#c2c2d4"/><circle cx="774.19" cy="561.62" r="2.95" fill="#c2c2d4"/><circle cx="786.58" cy="561.62" r="2.95" fill="#c2c2d4"/><circle cx="760.06" cy="561.62" r="2.95" fill="#c2c2d4"/><path fill="#c2c2d4" d="M818.99,567.97c-0.55,0-0.99-0.44-0.99-0.99s0.44-0.99,0.99-0.99c2.02,0,3.67-1.64,3.67-3.66         c0-0.55,0.44-0.99,0.99-0.99s0.99,0.44,0.99,0.99C824.64,565.44,822.11,567.97,818.99,567.97z"/><path fill="#c2c2d4" d="M823.65,558.22c-0.55,0-0.99-0.44-0.99-0.99c0-2.02-1.65-3.66-3.67-3.66c-0.55,0-0.99-0.44-0.99-0.99         c0-0.55,0.44-0.99,0.99-0.99c3.12,0,5.65,2.53,5.65,5.64C824.64,557.78,824.2,558.22,823.65,558.22z"/><path fill="#c2c2d4" d="M802.25,558.22c-0.55,0-0.99-0.44-0.99-0.99c0-3.11,2.54-5.64,5.65-5.64c0.55,0,0.99,0.44,0.99,0.99         c0,0.55-0.44,0.99-0.99,0.99c-2.02,0-3.67,1.64-3.67,3.66C803.24,557.78,802.8,558.22,802.25,558.22z"/><path fill="#c2c2d4" d="M806.91,567.97c-3.12,0-5.65-2.53-5.65-5.64c0-0.55,0.44-0.99,0.99-0.99s0.99,0.44,0.99,0.99         c0,2.02,1.65,3.66,3.67,3.66c0.55,0,0.99,0.44,0.99,0.99S807.46,567.97,806.91,567.97z"/><rect width="584.04" height="21.81" x="319.97" y="175.25" fill="#dfdfed"/><rect width="82.58" height="21.81" x="921.52" y="175.25" fill="#dfdfed"/><path fill="#fff" d="M931.32,260.55c-1.16,0.57-2.52-0.28-2.53-1.57l-0.06-6.43l-0.06-6.43c-0.01-1.29,1.33-2.16,2.5-1.62       l7.26,3.34l6.4,2.95c1.35,0.62,1.37,2.54,0.03,3.19l-6.34,3.08L931.32,260.55z"/><path fill="#fff" d="M935,267.94c-8.75,0-15.86-7.12-15.86-15.86c0-8.75,7.12-15.86,15.86-15.86s15.86,7.12,15.86,15.86        C950.86,260.82,943.74,267.94,935,267.94z M935,237.34c-8.13,0-14.74,6.61-14.74,14.74c0,8.13,6.61,14.74,14.74,14.74        c8.13,0,14.74-6.61,14.74-14.74C949.73,243.95,943.12,237.34,935,237.34z"/><path fill="#fff" d="M932.44,360.97c-1.16,0.57-2.52-0.28-2.53-1.57l-0.06-6.43l-0.06-6.43c-0.01-1.29,1.33-2.16,2.5-1.62       l7.26,3.34l6.4,2.95c1.35,0.62,1.37,2.54,0.03,3.19l-6.34,3.08L932.44,360.97z"/><path fill="#fff" d="M936.12,368.36c-8.75,0-15.86-7.12-15.86-15.86c0-8.75,7.12-15.86,15.86-15.86s15.86,7.12,15.86,15.86        C951.99,361.24,944.87,368.36,936.12,368.36z M936.12,337.76c-8.13,0-14.74,6.61-14.74,14.74c0,8.13,6.61,14.74,14.74,14.74        c8.13,0,14.74-6.61,14.74-14.74C950.86,344.37,944.25,337.76,936.12,337.76z"/><g><path fill="#fff" d="M933.57,461.39c-1.17,0.57-2.52-0.28-2.53-1.57l-0.06-6.43l-0.06-6.43c-0.01-1.29,1.33-2.16,2.5-1.62       l7.26,3.34l6.4,2.95c1.35,0.62,1.37,2.54,0.03,3.19l-6.34,3.08L933.57,461.39z"/><path fill="#fff" d="M937.25,468.78c-8.75,0-15.86-7.12-15.86-15.86c0-8.75,7.12-15.86,15.86-15.86        c8.75,0,15.86,7.12,15.86,15.86C953.12,461.66,946,468.78,937.25,468.78z M937.25,438.18c-8.13,0-14.74,6.61-14.74,14.74        c0,8.13,6.61,14.74,14.74,14.74c8.13,0,14.74-6.61,14.74-14.74C951.99,444.79,945.38,438.18,937.25,438.18z"/></g><g><path fill="#fff" d="M934.7,561.81c-1.17,0.57-2.52-0.28-2.53-1.57l-0.06-6.43l-0.06-6.43c-0.01-1.29,1.33-2.16,2.5-1.62       l7.26,3.34l6.4,2.95c1.35,0.62,1.37,2.54,0.03,3.19l-6.34,3.08L934.7,561.81z"/><path fill="#fff" d="M938.38,569.2c-8.75,0-15.86-7.12-15.86-15.86c0-8.75,7.12-15.86,15.86-15.86s15.86,7.12,15.86,15.86        C954.24,562.08,947.13,569.2,938.38,569.2z M938.38,538.6c-8.13,0-14.74,6.61-14.74,14.74c0,8.13,6.61,14.74,14.74,14.74        c8.13,0,14.74-6.61,14.74-14.74C953.12,545.21,946.51,538.6,938.38,538.6z"/></g><g><path fill="#703123" d="M631.11,492.45c-0.36-3.39-0.79-6.85-1.29-10.39c-1.61-11.27-3.99-23.32-7.32-36.29      c-1.92-7.48-3.56-15.27-4.95-23.23c-3.06-17.48-4.94-35.75-6.01-53.17c-1.41-22.97-1.43-44.48-0.92-60.76      c0.32-10.68,0.88-19.11,1.41-24.24l-48.98-44.68l-2.52-2.3l-17.07-15.57l-4.78-4.36l-3.78-3.44l-0.94-0.86l-0.25-0.23      c0,0-7.83,1.8-16.98,10.57c-3.95,3.76-8.14,8.83-12.06,15.6c-5.09,8.8-9.71,20.49-12.73,35.97c-1.02,5.29-1.86,11.02-2.47,17.23      c-0.97,3.21-1.88,6.43-2.71,9.67c-3,11.66-5.13,23.55-6.37,35.52c-1.24,11.94-1.06,23.96-2.2,35.91      c-0.36,3.71-0.89,7.36-1.66,10.94c-1.64,7.7-4.37,15.06-8.74,21.85c-1.75,2.72-3.66,5.32-5.7,7.81      c-4.92,6.03-10.52,11.51-16.02,16.98c-7.88,7.85-15.57,15.91-22.42,24.68c-6.76,8.66-12.78,17.97-17.18,28.06      c-4.43,10.19-7.8,21.55-6.7,32.77c0.99,9.99,5.99,18.58,13.69,24.89c4.13,3.38,8.71,6.11,13.5,8.45h204.15      C632.9,532.65,633.4,513.96,631.11,492.45z M410.57,526.85c4.51,9.55,9.89,16.07,15.87,20.74      c-11.05-5.62-20.7-13.36-23.71-26.21c-2.62-11.18,0.36-22.98,4.56-33.39c4.05-10.07,9.79-19.42,16.32-28.06      c6.59-8.74,14.03-16.81,21.75-24.56c5.14-5.16,10.4-10.23,15.25-15.67c2.31-2.59,4.53-5.27,6.6-8.08      c6.7-9.1,10.71-19.32,12.34-30.48c0.01-0.06,0.02-0.11,0.02-0.17c1.66-11.39,1.36-22.94,1.98-34.4      c0.64-12.06,2.17-24.05,4.63-35.87c0.79-3.78,1.73-7.51,2.71-11.22c-0.65,10.07-0.72,21.28-0.03,33.79      c0.87,15.8-0.64,30.09-3.79,43.14c-5.45,22.61-15.81,41.46-27.25,57.83C430.51,473.39,397.14,498.39,410.57,526.85z"/><path fill="#ffd0bd" d="M641.13,453.61c-1.18,3.95-2.43,7.43-3.66,10.26c-0.18,0.4-0.35,0.81-0.52,1.21      c-2.6,5.97-4.98,11.61-7.13,16.98c-10.18,25.41-15.36,44.83-14.38,64.86c0.04,0.97,0.11,1.94,0.18,2.91H515.36      c0.03-0.25,0.04-0.49,0.05-0.74v-0.04c1-18.53-2.96-40.71-8.87-64.55c-2.66-10.72-5.71-21.77-8.88-32.98      c-0.45-1.56-0.89-3.13-1.34-4.7c-21.66-76.03-3.12-76.33,15.51-78.05c0.96-0.09,1.95-0.15,2.98-0.21      c8.17-0.45,18.18-0.18,23.87-4.12l26.86,0.19l26.87-0.19c7.66,2.94,13.92,4.28,19.13,4.93c3.03,0.37,5.71,0.5,8.11,0.58      c8.33,0.27,13.27-0.16,17.82,6.2C651.84,396.21,647.59,431.98,641.13,453.61z"/><path fill="#ffd0bd" d="M580.69,333.27l-32.51,0c1.52,17.46-2.81,27.26-9.51,31.17c18.66,5.89,36.54,5.66,53.73,0      C586.51,359.79,577.32,345.74,580.69,333.27z"/><path fill="#d94848" d="M514.81,368.57c-16.55,0.2-28.86,4.38-38.06,15.51c-30.15,36.48-19.49,117.43-22.65,149.83l33.94,5.43       c6.3-17.51,37.25-111.56,37.25-111.56C502.41,423.54,496.04,381.41,514.81,368.57z"/><path fill="#d94848" d="M490.07,532.69c-0.04,0.43-0.1,0.88-0.17,1.34c-0.66,4.18-2.49,9.6-5.13,15.8h-36.78l6.47-15.86       l6.21-15.24L490.07,532.69z"/><path fill="#d94848" d="M639.43,469.69c-1.86,7.24-4.96,14.82-8.32,22.76c-6.97,16.5-15.09,34.57-15.67,54.47      c-0.03,0.66-0.04,1.33-0.04,2c-1.03,0.32-2.05,0.62-3.08,0.91h-96.87c-0.01-0.2-0.02-0.45-0.04-0.74v-0.04      c-0.22-3.46-1.17-12.96-5.41-27.5c-2.05-7.04-4.78-16.11-7.17-25.91c-3.57-14.57-6.39-30.73-5.17-44.12      c1.21-13.41,6.47-24.04,19.09-27.52c1.2-0.34,2.46-0.61,3.8-0.81c38.84-5.78,50.81,12.81,50.81,12.81      c6.43-13.52,25.81-23.98,46.19-13.46c1.77,0.91,3.54,1.98,5.31,3.23c2.81,1.95,5.62,4.34,8.4,7.2      c6.35,6.54,9.24,13.41,9.87,20.64C641.58,458.78,640.87,464.14,639.43,469.69z"/><path fill="#ffd0bd" d="M761.99,365.13c2.55-0.18,1.54,5.32,0.86,9.9c-0.68,4.57-7.15,9.61-6.15,11.01       c2.28,3.21,11.19-2.12,17.3-5.96c9.83-9.03,9.2-18.88,15.89-21.61c4.75-1.94-3.18,22.58-6.76,30.57       c-3.95,8.82-24.33,18.98-37.84,22.21l-12.13-7.14c1.52-14.22,18.53-23.34,23.4-33.83       C757.82,367.57,759.44,365.31,761.99,365.13z"/><path fill="#ffd0bd" d="M784.73,360.75c1.48,1.08-1.93,12.78-4.43,17.74c-2.5,4.97-11.96,17.28-11.96,17.28l-13.5-6.36       c8.19-1.61,18.72-11.66,18.92-13.37C773.82,375.56,781.07,358.08,784.73,360.75z"/><path fill="#d94848" d="M618.51,370.06c51.98-5.61,67.12,55.42,75.52,96.59c9.49,30.7,0.18,67.54-26.01,41.66       c-13-12.84-34.77-40.78-46.06-81.06C631.58,411.98,631.65,390.43,618.51,370.06z"/><path fill="#d94848" d="M685.03,473.37v43.69c44.22-8.11,63.33-99.58,66.33-104.78l-20.25-11.89L685.03,473.37z"/><path fill="#ffd0ba" d="M499.47,281.4c2.63-3.68,7.37-2.81,11.32-1.13c3.66,1.56,5.79,4.57,5.25,7.66       c-1.3,7.44,4.36,15.13,6.02,22.79C495.28,310.39,494.42,288.48,499.47,281.4z"/><path fill="#edd6c7" d="M503.83,287.13c1.89-0.76,4.71-0.55,5.81,0.93c0.48,0.65-0.71,1.29-1.32,0.67       c-0.47-0.48-1.31-0.69-2.08-0.48c-0.68,0.18-1.25,0.79-1.54,1.26c-0.88,1.45,0.15,3.14,0.98,4.46c0.83,1.32,1.9,2.56,3.13,3.7       c1.31,1.2,3.07,2.07,4.39,3.25c1.25,1.12-0.83,2.87-2.53,2.16c-1.31-0.55-2.31-1.44-3.28-2.28c-0.89-0.77-1.71-1.6-2.44-2.46       c-1.5-1.76-2.79-3.73-3.39-5.78C501.03,290.76,501.3,288.15,503.83,287.13z"/><path fill="#ffd6c9" d="M509.28,276.81c1.73,36.93,23.73,72.1,56.26,71.72c30.95-0.36,51.23-35.59,50.74-77.24      c-0.49-41.65-23.98-58.74-56.51-58.36C527.24,213.32,507.53,239.5,509.28,276.81z"/><path fill="#edd6c7" d="M572.82,298.81c-1.23-3.49-4.21-4.81-5.07-14.12c-1.34,5.58,1.55,12.65,2.65,15.62       c2.23,6.02-8.36,5.12-5.23,5.75C568.97,306.82,575.27,305.74,572.82,298.81z"/><path fill="#703123" d="M585.1,273.79c7.68-4.35,17.05,2.19,17.61,5.44c0.15,0.85-0.61,0.03-4.1-2.25       c-2.58-1.62-7.49-1.96-10.36-1.05C585.26,276.86,581.44,276.1,585.1,273.79z"/><path fill="#942525" d="M557.19,317.06c0,2.54,1.08,4.86,2.85,6.57c1.9,1.85,4.6,3.01,7.59,3.01c3.21,0,6.09-1.33,7.99-3.42         c1.53-1.66,2.45-3.81,2.45-6.15c0-5.29-6.71-1.31-10.61-1.31C564.21,315.75,557.19,311.77,557.19,317.06z"/><path fill="#ff7878" d="M560.04,323.63c1.9,1.85,4.6,3.01,7.59,3.01c3.21,0,6.09-1.33,7.99-3.42         c-1.57-1.58-4.39-2.62-7.61-2.63C564.53,320.59,561.51,321.82,560.04,323.63z"/><path fill="#703123" d="M580.39,288.32c1.25,5.92,17.42,6,19.88,4.17c0.13-0.1,0.27-0.21,0.39-0.31c0.01,0,0.01-0.01,0.01-0.01        c1.16-1.86,2.16-5.11,2.16-5.11s-2.99-3.05-4.61-3.93c-0.02,0-0.03-0.02-0.07-0.03c-0.41-0.21-2-1.01-4.14-1.54        c-2.94-0.72-6.91-0.95-10.2,1.53c-0.38,0.28-2.62,1.97-3.48,4.34C580.3,287.71,580.33,288.01,580.39,288.32z"/><path fill="#fff" d="M579.99,289.77c0.39,4.25,6.17,6.81,10.33,7.08c0.42,0.03,1.59,0.08,3.09-0.22        c1.4-0.25,3.06-0.82,4.68-1.98c0.21-0.14,1.01-0.72,1.88-1.58c0.23-0.23,0.46-0.53,0.68-0.89c0.01,0,0.01-0.01,0.01-0.01        c1.16-1.86,2.16-5.11,2.16-5.11s-2.99-3.05-4.61-3.93c-0.02,0-0.03-0.02-0.07-0.03c-0.41-0.21-2-1.01-4.14-1.54        c-2.94-0.72-6.91-0.95-10.2,1.53c-0.38,0.28-2.62,1.97-3.48,4.34C580.05,288.14,579.91,288.94,579.99,289.77z"/><circle cx="591.01" cy="288.83" r="8.12" fill="#de8f50"/><circle cx="591.19" cy="288.55" r="5.02" fill="#2e130c"/><circle cx="587.66" cy="285.7" r="1.25" fill="#fff"/><circle cx="586.31" cy="289.86" r=".7" fill="#fff"/><path fill="#703123" d="M580.32,287.42c0.86-2.37,3.11-4.05,3.48-4.34c3.29-2.48,7.27-2.25,10.2-1.53        c2.14,0.54,3.73,1.34,4.14,1.54c0.03,0.01,0.05,0.03,0.07,0.03c1.63,0.88,4.61,3.93,4.61,3.93s-1.01,3.24-2.16,5.11        c0.84-0.72,1.29-1.37,1.29-1.37c0.2-0.31,0.57-0.93,0.93-1.73c0.45-1,0.52-1.46,0.86-1.55c0.28-0.07,1.3,2.36,4.34,1.86        c0.26-0.05,0.55-0.34,0.55-0.34c-1.21,0.27-3.2-1.15-5.44-4.07c-6.07-7.91-18.07-7.77-21.97-0.27        C580.86,285.36,580.35,286.34,580.32,287.42z"/><path fill="#703123" d="M553.5,288.43c-1.11,5.95-17.27,6.41-19.77,4.63c-0.14-0.1-0.27-0.2-0.4-0.3        c-0.01,0-0.01-0.01-0.01-0.01c-1.2-1.84-2.28-5.06-2.28-5.06s2.91-3.12,4.52-4.04c0.02,0,0.03-0.02,0.07-0.03        c0.4-0.22,1.97-1.06,4.1-1.64c2.92-0.79,6.89-1.11,10.24,1.29c0.38,0.28,2.67,1.91,3.58,4.26        C553.57,287.82,553.55,288.12,553.5,288.43z"/><path fill="#fff" d="M553.93,289.87c-0.29,4.26-6.01,6.95-10.16,7.32c-0.41,0.04-1.59,0.12-3.1-0.14        c-1.41-0.22-3.08-0.75-4.72-1.87c-0.21-0.13-1.03-0.69-1.91-1.54c-0.24-0.22-0.48-0.52-0.71-0.88c-0.01,0-0.01-0.01-0.01-0.01        c-1.2-1.84-2.28-5.06-2.28-5.06s2.91-3.12,4.52-4.04c0.02,0,0.03-0.02,0.07-0.03c0.4-0.22,1.97-1.06,4.1-1.64        c2.92-0.79,6.89-1.11,10.24,1.29c0.38,0.28,2.67,1.91,3.58,4.26C553.83,288.24,553.99,289.04,553.93,289.87z"/><circle cx="542.88" cy="289.19" r="8.12" fill="#de8f50"/><circle cx="542.7" cy="288.92" r="5.02" fill="#2e130c"/><circle cx="546.16" cy="285.99" r="1.25" fill="#fff"/><circle cx="547.61" cy="290.11" r=".7" fill="#fff"/><path fill="#703123" d="M553.54,287.53c-0.91-2.35-3.2-3.98-3.58-4.26c-3.35-2.41-7.32-2.08-10.24-1.29        c-2.12,0.59-3.7,1.42-4.1,1.64c-0.03,0.01-0.04,0.03-0.07,0.03c-1.6,0.92-4.52,4.04-4.52,4.04s1.08,3.22,2.28,5.06        c-0.86-0.7-1.32-1.34-1.32-1.34c-0.21-0.3-0.59-0.91-0.97-1.71c-0.47-0.99-0.56-1.45-0.89-1.53c-0.28-0.06-1.24,2.39-4.3,1.96        c-0.26-0.04-0.55-0.33-0.55-0.33c1.21,0.24,3.17-1.23,5.35-4.19c5.89-8.05,17.88-8.19,21.96-0.78        C552.96,285.48,553.48,286.45,553.54,287.53z"/><path fill="#703123" d="M549.47,273.69c-7.78-4.17-16.99,2.59-17.47,5.85c-0.13,0.86,0.61,0.01,4.04-2.35       c2.54-1.68,7.45-2.13,10.33-1.3C549.38,276.77,553.19,275.92,549.47,273.69z"/><ellipse cx="540.82" cy="307.68" fill="#ffbbad" rx="9.55" ry="4.64" transform="rotate(-.67 541.344 307.97)"/><ellipse cx="597.54" cy="307.01" fill="#ffbbad" rx="9.55" ry="4.64" transform="rotate(-.67 598.117 307.311)"/><path fill="#703123" d="M606.61,230.33c-8.24-12.69-24.84-22.76-42.91-17.55c-25.41-6.69-40.24,4.02-49.37,14.21      c-16.63,18.57-16.35,50.32,3.97,83.49c-14.66-39.66,12.19-86.96,45.37-70.48c38.11-15.99,53.52,34.95,47.79,70.05      C618.7,292.49,622.01,254.06,606.61,230.33z"/><path fill="#703123" d="M554.05,236.19c-6.54-2.06-12.83,1.16-17.61,5.08c-4.84,3.97-9.45,8.53-12.79,13.67      c-3.53,5.41-5.21,11.54-6.04,17.76c-0.83,6.13-1.17,12.43-0.45,18.59c0.39,3.37,1.12,6.73,2.26,9.96      c1.15,3.24,2.49,6.56,4.55,9.42c0.06,0.09,0.23,0.02,0.18-0.08c-1.29-2.73-2.56-5.41-3.43-8.29c-0.85-2.8-1.4-5.71-1.77-8.6      c-0.78-5.95-0.8-11.94-0.17-17.9c0.63-5.99,1.7-12.06,4.54-17.53c2.72-5.24,6.84-9.79,11.27-13.9      c4.93-4.57,11.78-9.71,19.33-7.57C554.34,236.92,554.46,236.32,554.05,236.19z"/><path fill="#703123" d="M601.84,254.71c-1.5-3.05-3.27-5.84-5.81-8.27c-2.49-2.38-5.42-4.34-8.7-5.7      c-3.42-1.43-7.08-2.25-10.82-2.61c-4.22-0.4-8.57-0.06-12.58,1.24c-0.25,0.08-0.15,0.44,0.11,0.37      c7.2-1.72,14.74-1.47,21.52,1.46c6.4,2.77,11.24,7.36,14.87,12.85c1.98,2.99,2.9,6.61,3.43,10.03c0.05,0.31,0.63,0.24,0.6-0.07      C604.25,260.81,603.28,257.64,601.84,254.71z"/><g><path fill="#cc3939" d="M562.7,184.99c-0.25,0.67-0.44,1.36-0.53,2.09c-0.18,1.44,0.32,2.94,0.51,4.37         c-0.49-0.66-0.94-1.36-1.32-2.09c-0.6,1.13,0.28,3.25,0.27,4.01c-0.36-0.48-0.71-0.98-1.06-1.48         c-1.21,4.21-2.39,8.29-2.08,12.04c0.1,1.29,0.69,2.51,1.18,3.68c-0.44-0.49-0.86-1-1.28-1.53         c-0.01,11.49,2.97,20.35,7.69,12.19c-0.22-0.02-0.44-0.04-0.67-0.07c1.28-0.77,1.7-1.6,2.36-2.95         c-0.55,0.35-1.08,0.72-1.59,1.13c3.45-3.99,4.84-7.72,7.33-12.59c-0.51,0.2-1.05,0.37-1.6,0.49c0.73-0.43,1.56-0.8,2.07-1.41         c0.98-1.17,1.4-2.7,2.14-4.1c-0.98,0.32-1.99,0.6-3.02,0.82c3.04-2.44,5.56-4.84,7.35-7.85c0.84-1.41,1.52-2.95,2.04-4.71         c-0.59,0.09-1.19,0.17-1.8,0.23c0.85-0.32,2.8-1.79,2.9-2.29c-0.85,0.05-1.69,0.12-2.53,0.21c0.4-0.14,0.79-0.31,1.15-0.5         c3.1-1.65,4.81-5.19,5.84-8.45c0.3-0.96,0.54-1.89,0.72-2.71c-0.33,0.05-0.68,0.08-1.04,0.08c-0.34,0-0.7-0.03-1.05-0.08         c1.14-0.63,1.89-1.52,2.38-2.57c1.1-2.32,0.95-5.5,0.92-7.72c-1.63-0.7-5.19-1.35-8.25,0.13c-1.91,0.9-3.6,2.63-4.42,5.37         c-0.02,0.05-0.03,0.1-0.04,0.15c-0.15-0.76-0.24-1.52-0.27-2.27c-1.66,1.73-1.23,3.3-1.5,4.7c-0.48-0.87-0.83-1.8-1.03-2.73         c-0.02,0.01-0.03,0.01-0.05,0.02c-2.29,1.01-4.12,2.88-5.36,5.18c-1.65,3.03-2.28,6.78-1.9,10.24         c-0.72-1.29-1.28-2.68-1.66-4.11C564.59,181.53,563.4,183.14,562.7,184.99z"/><path fill="#cc3939" d="M569.06,173.78c0.47,5.29,1.19,10.26,2.08,14.92c3.52-1.72,7.24-3.07,11.08-4.02        c3.1-1.65,4.81-5.19,5.84-8.45c0.3-0.96,0.54-1.89,0.72-2.71c-0.33,0.05-0.68,0.08-1.04,0.08c-0.34,0-0.7-0.03-1.05-0.08        c1.14-0.63,1.89-1.52,2.38-2.57c1.1-2.32,0.95-5.5,0.92-7.72c-1.63-0.7-5.19-1.35-8.25,0.13c-1.91,0.9-3.6,2.63-4.42,5.37        c-0.02,0.05-0.03,0.1-0.04,0.15c-0.15-0.76-0.24-1.52-0.27-2.27c-1.66,1.73-1.23,3.3-1.5,4.7c-0.48-0.87-0.83-1.8-1.03-2.73        c-0.02,0.01-0.03,0.01-0.05,0.02C572.13,169.61,570.3,171.48,569.06,173.78z"/><path fill="#cc3939" d="M562.16,187.08c-0.18,1.44,0.32,2.94,0.51,4.37c-0.49-0.66-0.94-1.36-1.32-2.09        c-0.6,1.13,0.28,3.25,0.27,4.01c-0.36-0.48-0.71-0.98-1.06-1.48c-1.21,4.21-2.39,8.29-2.08,12.04        c0.1,1.29,0.69,2.51,1.18,3.68c-0.26-0.3-0.53-0.61-0.78-0.92c-0.17-0.2-0.33-0.4-0.49-0.61        c-0.01,11.49,2.97,20.35,7.69,12.19c-0.22-0.02-0.44-0.04-0.67-0.07c1.28-0.77,1.7-1.6,2.36-2.95        c-0.55,0.35-1.08,0.72-1.59,1.13c2.35-2.77,3.79-5.34,5.22-8.32c0.66-1.35,1.32-2.77,2.11-4.27c-0.51,0.2-1.05,0.37-1.6,0.49        c0.73-0.43,1.56-0.8,2.07-1.41c0.98-1.17,1.4-2.7,2.14-4.1c-0.98,0.32-1.99,0.6-3.02,0.82c3.04-2.44,5.56-4.84,7.35-7.85        c-5.3,2.58-10.16,6.07-14.36,10.34c-1.35-5.28-2.52-10.97-3.39-17.1C562.44,185.66,562.25,186.35,562.16,187.08z"/><path fill="#ffebb3" d="M558.39,206.08c-0.05,2.29,0.06,4.52,0.31,6.54c1.13,8,3.48,12.02,7.38,5.66        c-0.22-0.02-0.44-0.04-0.67-0.07c1.28-0.77,1.7-1.6,2.36-2.95c-0.55,0.35-1.08,0.72-1.59,1.13c0.05-0.06,0.1-0.12,0.15-0.18        c2.27-2.7,3.67-5.23,5.08-8.15c-3.85,2.78-8.33,7.98-8.27,8.03c-1.44-2.95-2.87-6.08-4.25-9.41        C558.71,206.49,558.55,206.29,558.39,206.08z"/><path fill="#127c87" d="M558.69,212.62c1.13,8,3.48,12.02,7.38,5.66c-0.22-0.02-0.44-0.04-0.67-0.07        c1.28-0.77,1.7-1.6,2.36-2.95c-0.55,0.35-1.08,0.72-1.59,1.13c0.05-0.06,0.1-0.12,0.15-0.18c-1.24,1.17-2.41,2.42-3.52,3.73        C561.43,217.64,560.05,215.2,558.69,212.62z"/><path fill="#cc3939" d="M574.42,168.6c-0.55,5.22-0.79,10.22-0.8,14.99c4.47-3.13,9.33-5.6,14.43-7.36        c0.3-0.96,0.54-1.89,0.72-2.71c-0.33,0.05-0.68,0.08-1.04,0.08c-0.34,0-0.7-0.03-1.05-0.08c1.14-0.63,1.89-1.52,2.38-2.57        c-2.45-2.51-4.89-5.04-7.33-7.59c-1.91,0.9-3.6,2.63-4.42,5.37c-0.02,0.05-0.03,0.1-0.04,0.15c-0.15-0.76-0.24-1.52-0.27-2.27        c-1.66,1.73-1.23,3.3-1.5,4.7c-0.48-0.87-0.83-1.8-1.03-2.73C574.45,168.59,574.44,168.6,574.42,168.6z"/><path fill="#cc3939" d="M577.31,168.74c-0.32,3.57-0.49,7.02-0.55,10.36c3.47-2.21,7.15-4.05,10.97-5.5        c-0.34,0-0.7-0.03-1.05-0.08c3.67-1.96,3.33-7.02,3.31-10.28C587.37,161.97,579.49,161.41,577.31,168.74z"/><path fill="#fff" d="M587.85,165.4c-4.86,4.39-8.88,9.54-12.35,14.98c-3.46,5.45-6.3,11.27-8.48,17.35         c-0.3-0.1-4.16,13.94-4.44,18.89c-0.52,2.58-1.19,10.59-1.09,10.61c0.56,0,1.12,0,1.68,0c-0.09,0-0.05-7.88,0.34-10.48         c0.09-4.92,4.06-18.79,4.36-18.69c2.11-6.03,4.88-11.82,8.25-17.27c3.37-5.46,7.4-10.5,11.75-15.39         C587.86,165.4,587.86,165.4,587.85,165.4z"/><path fill="#cc3939" d="M565.13,212.18l-61.73,27.49c0,0-3.69-4.28-6.71-10.74c-5.72-12.18-9.01-32.05,19.62-45.19       c28.6-13.12,40.67,3.03,45.61,15.81C564.52,206.34,565.13,212.18,565.13,212.18z"/><path fill="#fff" d="M565.13,212.18l-61.73,27.49c0,0-3.69-4.28-6.71-10.74c10.64-7.66,32.46-22.92,65.22-29.38       C564.52,206.34,565.13,212.18,565.13,212.18z"/><path fill="#cc3939" d="M598.65,209.39c-20.02-6.96-34.36-4.27-34.36-4.27c-24.64,4.68-46.01,15.01-64.32,30.67       c0,0-26.77,25.11-10.84,37.77c15.93,12.65,53.83-38.89,78.57-36.9C592.44,238.66,618.68,216.35,598.65,209.39z"/></g><g><ellipse cx="755.2" cy="359.99" fill="#ffcfcf" rx="29.85" ry="33.98"/><path fill="#e65353" d="M783.13,360.85c0,17.55-12.5,31.79-27.93,31.79c-15.42,0-27.93-14.23-27.93-31.79        c0-2.43,0.24-4.8,0.7-7.08h54.46C782.89,356.05,783.13,358.41,783.13,360.85z"/><path fill="#cc3939" d="M769.36,393.97h-28.32c-0.88,0-1.59-0.71-1.59-1.59v-0.67c0-0.88,0.71-1.59,1.59-1.59h28.32        c0.88,0,1.59,0.71,1.59,1.59v0.67C770.95,393.26,770.24,393.97,769.36,393.97z"/><rect width="1.51" height="59.29" x="754.45" y="325.19" fill="#cc3939"/><rect width="1.51" height="30.68" x="754.45" y="353.8" fill="#cc3939"/><path fill="#e6d8d7" d="M762.11,326.94c7.74,6.14,12.81,16.34,12.81,27.89c0,18.77-13.37,33.98-29.85,33.98         c-2.38,0-4.69-0.33-6.91-0.93c4.83,3.83,10.7,6.08,17.04,6.08c16.49,0,29.85-15.21,29.85-33.98         C785.05,343.94,775.27,330.49,762.11,326.94z"/><path fill="#b5b7ba" d="M740.74,374.93c-6.27-8.85-6.97-21.03-1.55-30.46c1.43-2.48-2.4-4.71-3.83-2.24        c-6.16,10.7-5.61,24.83,1.55,34.93c0.69,0.98,1.94,1.44,3.03,0.8C740.91,377.4,741.43,375.91,740.74,374.93z"/><path fill="#cc3939" d="M795.17,323.31c-2.83,2.11-6.01,3.21-9.12,3.16c-2.4-0.05-4.97-0.8-7.23-2.14         c-2.35-1.39-4.26-3.3-5.53-5.53c-2.96-5.22-1.62-10.85-0.43-15.82c1.11-4.63,2.06-8.64-0.46-11.42         c-2.36-2.6-6.21-2.48-6.37-2.47c-2.32,0.09-4.51,1.24-6.49,3.42c-1.6,1.75-2.45,3.52-2.48,3.59         c-0.23,0.48-0.8,0.68-1.28,0.45c-0.48-0.23-0.68-0.8-0.45-1.28c0.15-0.32,3.79-7.83,10.62-8.1c0.5-0.02,4.96-0.1,7.86,3.1         c1.46,1.61,2.14,3.64,2.09,6.21c-0.05,2.18-0.6,4.5-1.19,6.95c-1.16,4.85-2.36,9.87,0.23,14.43         c2.19,3.86,6.77,6.61,11.13,6.7c3.21,0.06,6.55-1.35,9.39-3.98c2.97-2.75,5.25-6.71,6.43-11.15         c0.14-0.51,0.66-0.82,1.17-0.68c0.51,0.14,0.82,0.66,0.68,1.17c-1.29,4.86-3.7,9.03-6.98,12.07         C796.26,322.46,795.72,322.91,795.17,323.31z"/><circle cx="806.38" cy="304.14" r="14.31" fill="#cc3939"/><path fill="#ad2d2d" d="M813.87,291.97c1.14,2.06,1.8,4.42,1.8,6.94c0,7.9-6.41,14.31-14.31,14.31c-2.75,0-5.31-0.79-7.49-2.14        c2.44,4.39,7.12,7.36,12.5,7.36c7.9,0,14.31-6.41,14.31-14.31C820.69,298.99,817.96,294.49,813.87,291.97z"/><ellipse cx="800.94" cy="297.2" fill="#b5b7ba" rx="7.66" ry="3.29" transform="rotate(-38.528 800.941 297.199)"/><g><rect width="5.36" height="17.2" x="753.28" y="297.27" fill="#cc3939"/><path fill="#e65353" d="M756.76,306.76h-1.6c-2.1,0-3.81-1.71-3.81-3.81v-5.31c0-2.1,1.71-3.81,3.81-3.81h1.6        c2.1,0,3.81,1.71,3.81,3.81v5.31C760.57,305.05,758.87,306.76,756.76,306.76z"/><ellipse cx="752.73" cy="297.2" fill="#cc3939" rx=".55" ry="1.72"/></g><g><rect width="14.67" height="14.99" x="747.87" y="310.33" fill="#ffcfcf"/><path fill="#e65353" d="M762.33,313.75h-14.26c-1.65,0-3,1.34-3,3v8.45h20.25v-8.45C765.33,315.09,763.99,313.75,762.33,313.75        z"/><path fill="#cc3939" d="M764.14,324.77h-17.87c-2.82,0-5.1,2.28-5.1,5.1h28.07C769.24,327.05,766.95,324.77,764.14,324.77z"/></g></g></g><g><path fill="#d94848" d="M1131.99,339.65h-65.34c-35.72,0-64.67,28.96-64.67,64.67l0,0c0,18.83,8.06,35.78,20.9,47.6      c-4.24,14.42-15.01,23.62-44.18,29.34c31.75,3.94,54.73-1.07,69.86-14.85c5.74,1.67,11.81,2.58,18.09,2.58h65.34      c35.72,0,64.67-28.96,64.67-64.67l0,0C1196.67,368.61,1167.71,339.65,1131.99,339.65z"/><path fill="#fff" d="M1074.57,395.59c-2.35-4.3-8.3-7.33-14.04-5.77c-6.16,1.68-8.52,7.97-8.78,8.69c0,0.27,0,0.55,0,0.83     c-0.01-0.28-0.01-0.55-0.02-0.83c-0.26-0.72-2.62-7.01-8.78-8.69c-5.75-1.57-11.69,1.47-14.04,5.77     c-4.31,7.87,4.74,17.62,5.77,18.72c6.13,6.6,14.22,7.69,17.15,7.91c0.06,0.01,0.12,0.01,0.18,0.01c0.08-0.01,0.15-0.01,0.24-0.02     c2.93-0.29,10.64-1.53,16.55-7.9C1069.85,413.18,1078.87,403.45,1074.57,395.59z"/><path fill="#fff" d="M1091.48,394.04h16.73v5.62h-11.33l-0.61,3.81c0.78-0.37,1.56-0.65,2.33-0.83      c0.77-0.18,1.53-0.28,2.27-0.28c2.54,0,4.6,0.77,6.17,2.3c1.58,1.53,2.37,3.47,2.37,5.8c0,1.64-0.41,3.21-1.22,4.72      c-0.81,1.51-1.97,2.66-3.46,3.46c-1.49,0.8-3.41,1.19-5.73,1.19c-1.67,0-3.1-0.16-4.3-0.48c-1.19-0.32-2.21-0.79-3.04-1.42      c-0.84-0.63-1.51-1.34-2.03-2.14c-0.52-0.8-0.95-1.79-1.3-2.97l7.13-0.78c0.17,1.14,0.58,2.01,1.21,2.6      c0.63,0.59,1.39,0.89,2.26,0.89c0.98,0,1.79-0.37,2.43-1.12c0.64-0.74,0.96-1.85,0.96-3.33c0-1.51-0.32-2.62-0.97-3.32      c-0.65-0.7-1.5-1.06-2.58-1.06c-0.68,0-1.34,0.17-1.97,0.5c-0.47,0.24-0.99,0.68-1.56,1.31l-6-0.86L1091.48,394.04z"/><path fill="#fff" d="M1115.1,394.04h16.73v5.62h-11.33l-0.61,3.81c0.78-0.37,1.56-0.65,2.33-0.83c0.77-0.18,1.53-0.28,2.27-0.28      c2.54,0,4.6,0.77,6.17,2.3c1.58,1.53,2.37,3.47,2.37,5.8c0,1.64-0.41,3.21-1.22,4.72s-1.97,2.66-3.46,3.46      c-1.49,0.8-3.41,1.19-5.73,1.19c-1.67,0-3.1-0.16-4.3-0.48c-1.19-0.32-2.21-0.79-3.04-1.42c-0.84-0.63-1.51-1.34-2.03-2.14      c-0.52-0.8-0.95-1.79-1.3-2.97l7.13-0.78c0.17,1.14,0.58,2.01,1.21,2.6c0.63,0.59,1.39,0.89,2.26,0.89      c0.98,0,1.79-0.37,2.43-1.12c0.64-0.74,0.96-1.85,0.96-3.33c0-1.51-0.32-2.62-0.97-3.32c-0.65-0.7-1.5-1.06-2.58-1.06      c-0.68,0-1.34,0.17-1.97,0.5c-0.47,0.24-0.99,0.68-1.56,1.31l-6-0.86L1115.1,394.04z"/><path fill="#fff" d="M1148.87,394.04h7.84v9.58l8.21-9.58h10.42l-9.25,9.57l9.67,15.78h-9.65l-5.35-10.43l-4.05,4.24v6.19h-7.84      V394.04z"/></g><path fill="#353e47" d="M197.46,836.37h983.08c1.17,0,2.11-0.95,2.11-2.11v-0.26c0-1.17-0.95-2.11-2.11-2.11H197.46   c-1.17,0-2.11,0.95-2.11,2.11v0.26C195.34,835.42,196.29,836.37,197.46,836.37z"/><path fill="#353e47" d="M783.57,875.83h116.41c1.11,0,2.01-0.9,2.01-2.01v-0.25c0-1.11-0.9-2.01-2.01-2.01H783.57   c-1.11,0-2.01,0.9-2.01,2.01v0.25C781.57,874.94,782.47,875.83,783.57,875.83z"/><path fill="#353e47" d="M699.28,875.83h49.83c1.18,0,2.13-0.95,2.13-2.13l0,0c0-1.18-0.95-2.13-2.13-2.13h-49.83   c-1.18,0-2.13,0.95-2.13,2.13l0,0C697.15,874.88,698.1,875.83,699.28,875.83z"/><g><polygon fill="#3a96bd" points="371.66 586.22 364.83 649.47 364.22 655.21 363.43 662.47 356.88 723.14 355.42 736.62 354.88 741.68 348.4 801.71 282.28 801.71 277.91 761.21 277.41 756.54 276.1 744.47 272.43 710.5 271.77 704.39 271.24 699.48 259.02 586.22"/><rect width="112.64" height="13.74" x="259.02" y="572.48" fill="#3a96bd"/><path fill="#2d3857" d="M347.99,801.71v24.76c0,0.04,0,0.09,0,0.13c-0.07,3.61-3.02,6.53-6.66,6.53h-52.38    c-3.63,0-6.59-2.91-6.66-6.53c0-0.04,0-0.09,0-0.13v-24.76H347.99z"/><path fill="#3f4b6b" d="M347.98,826.6c-0.07,3.61-3.02,6.53-6.66,6.53h-52.38c-3.63,0-6.59-2.91-6.66-6.53H347.98z"/><path fill="#60c2eb" d="M364.83,649.47l-0.61,5.74l-0.79,7.26l-6.55,60.67l-1.45,13.47l-0.54,5.06    c-25.94,8.09-54.92,14.86-76.97,19.53l-0.5-4.67l-1.31-12.07l-3.67-33.97l-0.66-6.11l-0.53-4.91    C300.34,685.91,337.12,665.44,364.83,649.47z"/><path fill="#fff" d="M364.22,655.21l-0.79,7.26l-6.55,60.67l-1.45,13.47c-25.95,8.21-55.35,15.12-78.02,19.93l-1.31-12.07    l-3.67-33.97l-0.66-6.11C300.32,691.16,336.53,671.11,364.22,655.21z"/><path fill="#f5dade" d="M259.02,586.22l1.7,15.71h29.25c33.97,0,60.44,29.47,56.79,63.25l0,0l-0.61,5.74l-0.79,7.26l-6.55,60.67    l-1.45,13.47l-0.54,5.06l-4.79,44.32h16.37l6.48-60.03l0.54-5.06l1.45-13.47l6.55-60.67l0.79-7.26l0.61-5.74l6.83-63.25H259.02z"/><path fill="#9e9e9e" d="M296.26,788.65l-3.67,0.34c-2.16,0.2-4.07-1.39-4.27-3.55l-15.2-164.74c-0.2-2.16,1.39-4.07,3.55-4.27    l3.67-0.34c2.16-0.2,4.07,1.39,4.27,3.55l15.2,164.74C300,786.54,298.41,788.45,296.26,788.65z"/></g><g><path fill="#788ea3" d="M900.45,685.35v84.1h-43.37v-84.1c0-2.17,1.57-3.93,3.5-3.93h36.37    C898.88,681.42,900.45,683.18,900.45,685.35z"/><path fill="#586f85" d="M896.95,681.42h-4.07v41.49c0,19.3-15.64,34.94-34.94,34.94h-0.86v11.61h43.37v-84.1    C900.45,683.18,898.88,681.42,896.95,681.42z"/><path fill="#353e47" d="M903.58,764h-50.08c-2.21,0-4,2.19-4,4.89v0c0,2.7,1.79,4.89,4,4.89h50.08c2.21,0,4-2.19,4-4.89v0    C907.59,766.19,905.8,764,903.58,764z"/><path fill="#353e47" d="M853.11,773.79v46.49c0,6.49,4.95,11.74,11.05,11.74h29.18c6.1,0,11.05-5.26,11.05-11.74v-46.49H853.11z"/><path fill="#22282e" d="M853.11,773.79v11.08h0c22.94,0,41.53,18.6,41.53,41.53v4.96c0,0.19-0.02,0.38-0.03,0.58    c5.5-0.68,9.76-5.63,9.76-11.66v-46.49H853.11z"/><path fill="#d94848" d="M896.81,637.59v43.83h-36.1v-28.36c0-0.87,0.13-1.73,0.38-2.55c0.49-1.62,1.44-3.07,2.77-4.18l18.61-15.47    c2.49-2.07,5.54-2.46,8.18-1.63C894.07,630.31,896.81,633.41,896.81,637.59z"/><path fill="#bf2c2c" d="M891.85,629.71c0.26,0.82,0.4,1.71,0.4,2.66v18.77c0,13.84-11.22,25.06-25.06,25.06h-6.48v5.23h36.1v-43.83    C896.81,633.91,894.69,631.07,891.85,629.71z"/><path fill="#f27373" d="M883.07,649.12c-7.91,6.39-17.25,7.92-20.88,3.43c-0.49-0.61-0.85-1.3-1.09-2.05    c0.49-1.62,1.44-3.07,2.77-4.18l18.61-15.47c2.49-2.07,5.54-2.46,8.18-1.63c0.06,0.06,0.11,0.12,0.16,0.19    C894.44,633.91,890.97,642.73,883.07,649.12z"/><path fill="#9e9e9e" d="M869.18,741.42h-0.33c-2.16,0-3.91-1.75-3.91-3.91v-44.03c0-2.16,1.75-3.91,3.91-3.91h0.33    c2.16,0,3.91,1.75,3.91,3.91v44.03C873.09,739.67,871.34,741.42,869.18,741.42z"/></g><g><path fill="#ffb53d" d="M396.34,833.54c0,0,7.13-0.55,17.23-2.42c23.91-4.42,64.42-16.25,66.05-45.77c0.23-4.18,0.85-8.33,2.16-12.3    c0.26-0.79,0.54-1.64,0.82-2.52c4.33-13.71,2-28.76-6.4-39.93c-8.39-11.15-21.16-25.22-36.98-33.57    c-4.49-2.37-9.23-4.28-14.18-5.53c0,0-36.68,23.28-45.93,64.48C374.34,777.24,384.87,820.52,396.34,833.54z"/><path fill="#eb9d21" d="M478.84,757.69c-1.27-1.3-2.57-2.57-3.89-3.81c-5.13-4.83-10.63-9.3-16.44-13.28    c-6.59-4.51-13.58-8.67-20.8-12.08c-0.68-0.32-0.15-1.31,0.53-1.03c6.69,2.68,13.1,5.75,19.21,9.57c6,3.76,11.73,7.97,17.04,12.64    c1.36,1.2,2.7,2.42,4.02,3.67c0.62,0.59,1.24,1.19,1.85,1.8c0.6,0.6,1.64,1.36,1.81,2.22c0.13,0.65-0.13,1.36-0.79,1.58    C480.27,759.32,479.52,758.39,478.84,757.69z"/><path fill="#eb9d21" d="M480.1,767.13c-2.24-1.83-4.36-3.79-6.67-5.55c-2.34-1.79-4.78-3.44-7.31-4.97    c-5.01-3.03-10.33-5.54-15.87-7.45c-1.05-0.36-0.72-2.07,0.35-1.71c5.71,1.89,11.23,4.34,16.44,7.35    c2.59,1.49,5.09,3.13,7.51,4.88c2.44,1.77,4.93,3.62,7.04,5.79C482.59,766.5,481.22,768.05,480.1,767.13z"/><path fill="#eb9d21" d="M482.95,752.24c-0.55-1-1.14-1.98-1.75-2.94c-1.22-1.92-2.55-3.79-3.96-5.57    c-2.81-3.53-6.04-6.74-9.57-9.54c-2.04-1.62-4.19-3.08-6.43-4.41c-0.92-0.54-0.18-2.02,0.76-1.49    c8.19,4.64,15.37,11.15,20.61,18.97c0.73,1.09,1.43,2.21,2.09,3.35c0.61,1.05,1.66,2.42,1.32,3.69c-0.14,0.5-0.61,0.7-1.08,0.52    C483.87,754.4,483.46,753.17,482.95,752.24z"/><path fill="#eb9d21" d="M478.66,771.66c-3.36-2.12-6.6-4.38-10.08-6.31c-3.47-1.93-7.04-3.66-10.69-5.2    c-7.22-3.04-14.69-5.38-22.37-6.96c-4.44-0.91-8.94-1.58-13.46-1.9c-0.83-0.06-0.95-1.35-0.09-1.32c8.11,0.3,16.15,1.34,24,3.43    c7.79,2.07,15.3,5.01,22.42,8.78c4.04,2.14,8.18,4.45,11.79,7.27C481.37,770.38,479.96,772.49,478.66,771.66z"/><path fill="#eb9d21" d="M481.87,779.39c-1.2-0.65-2.32-1.48-3.49-2.18c-1.18-0.71-2.37-1.38-3.58-2.03    c-2.47-1.31-5.01-2.48-7.6-3.51c-5.15-2.05-10.48-3.61-15.94-4.54c-3.12-0.54-6.27-0.92-9.43-1.11c-0.83-0.05-0.96-1.31-0.09-1.32    c11.46-0.08,22.87,2.69,33.1,7.82c1.4,0.7,2.78,1.45,4.14,2.24c1.43,0.83,2.94,1.66,4.22,2.7    C484.25,778.3,483.06,780.03,481.87,779.39z"/><path fill="#eb9d21" d="M424.01,774.13c14.86-1.44,29.99-0.25,44.44,3.5c2.06,0.54,4.11,1.12,6.14,1.78    c2.03,0.66,4.14,1.26,6.03,2.26c1.2,0.63,0.57,2.63-0.81,2.3c-1.77-0.42-3.47-1.12-5.2-1.69c-1.79-0.59-3.58-1.14-5.39-1.66    c-3.52-1.01-7.08-1.87-10.66-2.57c-7.23-1.41-14.57-2.2-21.93-2.31c-4.17-0.06-8.33,0.08-12.48,0.43    C422.82,776.3,422.7,774.26,424.01,774.13z"/><path fill="#eb9d21" d="M428.46,787.63c13.45-1.92,27.1-1.9,40.54,0.06c1.83,0.27,3.66,0.57,5.47,0.91    c1.91,0.35,3.87,0.67,5.73,1.22c1.55,0.46,1.12,2.77-0.52,2.49c-3.29-0.57-6.52-1.42-9.82-1.98c-3.29-0.56-6.6-1-9.92-1.32    c-6.64-0.65-13.35-0.85-20.02-0.6c-3.8,0.14-7.59,0.43-11.36,0.87C427.5,789.4,427.42,787.78,428.46,787.63z"/><path fill="#eb9d21" d="M449.16,797.66c4.44-1.7,9.06-2.73,13.78-3.24c2.31-0.25,4.63-0.37,6.96-0.37c1.16,0,2.32,0.03,3.48,0.09    c1.17,0.06,2.68-0.04,3.73,0.55c0.75,0.41,0.75,1.65-0.14,1.91c-1.09,0.32-2.35,0.01-3.47-0.08c-1.15-0.09-2.3-0.14-3.46-0.17    c-2.28-0.05-4.55,0.02-6.82,0.21c-4.59,0.38-9.17,1.24-13.63,2.39C448.75,799.17,448.33,797.97,449.16,797.66z"/><path fill="#eb9d21" d="M435.41,810.65c10.14-3.87,20.66-6.51,31.43-7.87c1.51-0.19,3.01-0.35,4.53-0.48    c1.55-0.14,3.13-0.34,4.69-0.3c1.75,0.04,1.94,2.5,0.18,2.72c-2.66,0.33-5.38,0.36-8.05,0.63c-2.63,0.27-5.25,0.61-7.86,1.02    c-5.26,0.84-10.47,2.01-15.6,3.41c-2.93,0.8-5.82,1.71-8.69,2.72C434.84,812.92,434.24,811.09,435.41,810.65z"/><path fill="#4b535c" d="M536.64,770.51l138.83,28.75c7.67,1.59,12.6,9.09,11.01,16.76l-1.25,6.04c-1.59,7.67-9.09,12.6-16.76,11.01    l-138.83-28.75L536.64,770.51z"/><path fill="#4b535c" d="M466.18,810.66l63.53-6.72l6.84-33.05l-55.63-31.4C482,764.46,477.09,788.18,466.18,810.66z"/><path fill="#ccc" d="M472.6,795.33l22.27-2.36c15.35-1.62,27.89-12.98,31.02-28.1l0,0l10.66,6.02l-6.84,33.05l-63.53,6.72    C468.63,805.62,470.76,800.5,472.6,795.33z"/><path fill="#eb9d21" d="M396.34,833.54c0,0,7.13-0.55,17.23-2.42c-1.87-1.61-3.98-2.86-6.29-3.44    c-10.48-2.61-4.52-16.09-11.63-24.86c-7.11-8.78-0.4-12.89-0.1-26.08c0.3-13.2-9.95-19.87-0.02-28.19    c9.05-7.58,11.93-15.79,14.19-28.04c2.26-12.25,11.9-7.82,20.57-14.41c3.91-2.97,6.87-6.32,8.93-9.08    c-4.49-2.37-9.23-4.28-14.18-5.53c0,0-36.68,23.28-45.93,64.48C374.34,777.24,384.87,820.52,396.34,833.54z"/><path fill="#ccc" d="M532.42,790.88l126.72,26.24c7.67,1.59,15.17-3.34,16.76-11.01l1.25-6.04c0.02-0.11,0.03-0.21,0.05-0.32    c6.65,2.28,10.74,9.2,9.27,16.27l-1.25,6.04c-1.59,7.67-9.09,12.6-16.76,11.01l-138.83-28.75L532.42,790.88z"/><path fill="#788ea3" d="M536.12,806.94l7.56-36.5c0.35-1.67-0.73-3.3-2.4-3.65l-2.08-0.43c-1.67-0.35-3.3,0.73-3.65,2.4l-7.56,36.5    c-0.35,1.67,0.73,3.3,2.4,3.65l2.08,0.43C534.15,809.68,535.78,808.6,536.12,806.94z"/><path fill="#9e9e9e" d="M635.03,800.52l0.32-1.56c0.26-1.25-0.55-2.48-1.8-2.74l-83.8-17.35c-1.25-0.26-2.48,0.55-2.74,1.8    l-0.32,1.56c-0.26,1.25,0.55,2.48,1.8,2.74l83.8,17.35C633.55,802.58,634.77,801.77,635.03,800.52z"/></g><g><path fill="#ffb53d" d="M295.5,103.52h-17.47V89.49c0-2.94,2.38-5.33,5.33-5.33h6.82c2.94,0,5.33,2.38,5.33,5.33V103.52z"/><circle cx="285.67" cy="226.52" r="30.88" fill="#e69209"/><path fill="#e08c05" d="M299.14,198.72c5.46,5.57,8.83,13.19,8.83,21.61c0,17.06-13.83,30.88-30.88,30.88      c-4.83,0-9.4-1.11-13.47-3.08c5.61,5.72,13.42,9.28,22.06,9.28c17.06,0,30.88-13.83,30.88-30.88      C316.56,214.29,309.45,203.73,299.14,198.72z"/><path fill="#ffb53d" d="M369.6,227.44c0,5.55-5.12,10.06-11.44,10.06H213.18c-6.32,0-11.44-4.51-11.44-10.06     c0-2.78,1.28-5.3,3.35-7.12c2.07-1.81,4.93-2.94,8.09-2.94c1.06,0,2.09-0.14,3.07-0.39c3.49-0.91,6.37-3.33,7.9-6.53     c0.75-1.58,1.18-3.36,1.18-5.23v-46.12c0-33.48,27.26-60.58,60.79-60.33C319.4,99.02,346,126.6,346,159.86v45.37     c0,1.87,0.43,3.65,1.18,5.23c1.53,3.19,4.41,5.62,7.9,6.53c0.98,0.25,2.01,0.39,3.07,0.39     C364.48,217.39,369.6,221.89,369.6,227.44z"/><path fill="#e69209" d="M358.16,217.39c-1.06,0-2.09-0.14-3.07-0.39c-3.49-0.91-6.37-3.33-7.9-6.53c-0.75-1.58-1.18-3.36-1.18-5.23     v-45.37c0-33.26-26.61-60.84-59.88-61.09c-2.07-0.02-4.11,0.08-6.13,0.26c30.89,2.81,54.87,29.25,54.87,60.82v45.37     c0,1.87,0.43,3.65,1.18,5.23c1.53,3.19,4.41,5.62,7.9,6.53c0.98,0.25,2.01,0.39,3.07,0.39c6.32,0,11.44,4.5,11.44,10.06     c0,5.55-5.12,10.06-11.44,10.06h11.14c6.32,0,11.44-4.51,11.44-10.06C369.6,221.89,364.48,217.39,358.16,217.39z"/><path fill="#e69209" d="M355.09,216.99H216.25c3.49-0.91,6.37-3.33,7.9-6.53h123.03C348.72,213.66,351.6,216.08,355.09,216.99z"/><path fill="#ffd385" d="M258.7,112.72c-24.4,13.15-27.53,42.86-26.64,67.67c0.16,4.49,7.16,4.51,7,0     c-0.8-22.26,1.06-49.71,23.17-61.62C266.2,116.62,262.67,110.58,258.7,112.72z"/><path fill="#ffd385" d="M231.82,192.02c-0.04,2.41-0.09,4.82-0.13,7.23c-0.08,4.51,6.92,4.51,7,0c0.04-2.41,0.09-4.82,0.13-7.23     C238.9,187.52,231.9,187.51,231.82,192.02z"/></g><g><path fill="#2a78a3" d="M1042.8,168.57v47.55h-16.63c-7.84,0-14.19-6.35-14.19-14.19v-19.15c0-7.84,6.35-14.21,14.19-14.21H1042.8z     "/><path fill="#2a78a3" d="M1102.99,215.06c-5.7,6.46-53.93,1.07-53.93,1.07v-47.55c0,0,7.89-4.28,10.25-12.17     c2.33-7.84,5.83-17.88,11.87-16.27c6.07,1.61,8.3,17.94,0.82,28.44c0,0,23.56-6.37,29.95,0.6     C1108.03,175.76,1108.34,209.02,1102.99,215.06z"/></g><g><path fill="#d94848" d="M279.02,388.24c29.68,0,53.75,24.06,53.75,53.75c0,10.32-2.91,19.95-7.95,28.14l11.95,28.39l-33.92-8.35     c-7.18,3.56-15.27,5.57-23.83,5.57c-29.68,0-53.75-24.06-53.75-53.75C225.27,412.3,249.33,388.24,279.02,388.24z"/><path fill="#fff" d="M249.25,428.49c2.99-6.25,10.57-10.67,17.88-8.39c7.84,2.44,10.85,11.59,11.18,12.65c0,0.4,0,0.8,0,1.2     c0.01-0.4,0.01-0.8,0.02-1.2c0.33-1.05,3.33-10.2,11.18-12.65c7.32-2.28,14.89,2.14,17.88,8.39c5.49,11.46-6.04,25.64-7.34,27.24     c-7.8,9.6-18.11,11.18-21.84,11.51c-0.08,0.01-0.15,0.01-0.23,0.02c-0.1-0.01-0.2-0.02-0.3-0.03     c-3.73-0.42-13.55-2.23-21.08-11.5C255.27,454.1,243.77,439.94,249.25,428.49z"/></g><path fill="#ffb2b2" d="M251.67,314.02c-5.38-4.19-14.65-4.78-21.11,0.4c-6.93,5.55-6.47,14.88-6.4,15.95   c0.15,0.35,0.31,0.7,0.46,1.05c-0.16-0.35-0.32-0.7-0.48-1.04c-0.73-0.78-7.22-7.5-16.01-6.24c-8.2,1.18-14.11,8.34-14.74,15.12   c-1.15,12.43,15.8,19.87,17.71,20.71c11.47,5.03,22.4,1.95,26.26,0.62c0.08-0.03,0.16-0.06,0.24-0.08c0.09-0.05,0.19-0.1,0.29-0.16   c3.58-1.99,12.74-7.84,16.76-19.24C255.37,339.09,261.51,321.67,251.67,314.02z"/><path fill="#ffb2b2" d="M207.62,268.69c-3.7-2.07-9.44-1.56-12.93,2.22c-3.74,4.06-2.58,9.75-2.44,10.4c0.13,0.2,0.25,0.4,0.38,0.6   c-0.13-0.2-0.26-0.4-0.39-0.6c-0.52-0.41-5.14-3.93-10.42-2.34c-4.93,1.49-7.89,6.44-7.64,10.67c0.46,7.74,11.56,10.73,12.82,11.06   c7.52,2.02,13.95-0.9,16.19-2.08c0.05-0.02,0.09-0.05,0.14-0.07c0.05-0.04,0.11-0.08,0.16-0.13c2.01-1.56,7.09-6.01,8.49-13.39   C212.24,283.75,214.38,272.48,207.62,268.69z"/><path fill="#ffb2b2" d="M1043.06,720.78c5.38-4.19,14.65-4.78,21.11,0.4c6.93,5.55,6.47,14.88,6.4,15.95   c-0.15,0.35-0.31,0.7-0.46,1.05c0.16-0.35,0.32-0.7,0.48-1.04c0.73-0.78,7.22-7.5,16.01-6.24c8.2,1.18,14.11,8.34,14.74,15.12   c1.15,12.43-15.8,19.87-17.71,20.71c-11.47,5.03-22.4,1.95-26.27,0.62c-0.08-0.03-0.16-0.06-0.24-0.08   c-0.09-0.05-0.19-0.1-0.29-0.16c-3.58-1.99-12.74-7.84-16.76-19.24C1039.36,745.85,1033.22,728.44,1043.06,720.78z"/><path fill="#ffb2b2" d="M1081.42,659.24c3.7-2.07,9.44-1.56,12.93,2.22c3.74,4.06,2.58,9.75,2.44,10.4c-0.13,0.2-0.25,0.4-0.38,0.6   c0.13-0.2,0.26-0.4,0.39-0.6c0.52-0.41,5.14-3.93,10.42-2.34c4.93,1.49,7.89,6.44,7.64,10.67c-0.46,7.74-11.56,10.73-12.82,11.06   c-7.52,2.02-13.95-0.9-16.19-2.08c-0.05-0.02-0.09-0.05-0.14-0.07c-0.05-0.04-0.11-0.08-0.16-0.13c-2.01-1.56-7.09-6.01-8.49-13.39   C1076.8,674.3,1074.66,663.03,1081.42,659.24z"/><g><path fill="#30334d" d="M780.03,223.17c0.27,0,0.27,0.42,0,0.42C779.76,223.59,779.76,223.17,780.03,223.17z"/><path fill="#3a96bd" d="M685.23,131.75c20.59-15.67,47.44-22.07,73.22-19.91c16.66,1.4,33.28,6.35,46.86,16.1     c13.58,9.76,23.86,24.62,26.21,41.17c2.35,16.55-3.99,34.54-17.42,44.49c-14.2,10.53-33.47,10.95-50.96,8.37     c-22.13-3.27-43.51-10.62-65.68-13.64c-9.17-1.25-18.85-1.69-27.32,2.04c-8.47,3.73-15.2,8.12-17.95,20.45     C638.51,178.02,664.65,147.42,685.23,131.75z"/><path fill="#fff" d="M808.27,168.43c0-4.39-3.56-7.95-7.95-7.95c-4.39,0-7.95,3.56-7.95,7.95s3.56,7.95,7.95,7.95     C804.71,176.37,808.27,172.82,808.27,168.43z"/><path fill="#fff" d="M776.17,168.43c0-4.39-3.56-7.95-7.95-7.95c-4.39,0-7.95,3.56-7.95,7.95s3.56,7.95,7.95,7.95     C772.61,176.37,776.17,172.82,776.17,168.43z"/><path fill="#fff" d="M744.07,168.43c0-4.39-3.56-7.95-7.95-7.95c-4.39,0-7.95,3.56-7.95,7.95s3.56,7.95,7.95,7.95     C740.51,176.37,744.07,172.82,744.07,168.43z"/><path fill="#fff" d="M711.97,168.43c0-4.39-3.56-7.95-7.95-7.95c-4.39,0-7.95,3.56-7.95,7.95s3.56,7.95,7.95,7.95     C708.41,176.37,711.97,172.82,711.97,168.43z"/><path fill="#3a96bd" d="M722.34,223.51c2.13,0.48,4.1,1.51,6.14,2.27c2.06,0.77,4.14,1.46,6.22,2.15    c4.18,1.39,8.35,2.78,12.62,3.88c8.49,2.2,17.23,3.51,26,3.65c15.44,0.25,30.95-3.21,44.25-11.24    c7.2-4.35,13.81-10.13,18.94-16.81c0.25-0.32,0.79-0.03,0.56,0.33c-4.11,6.41-9.23,11.74-15.36,16.25    c-6.2,4.57-13.14,8.08-20.42,10.59c-16.46,5.68-34.07,5.59-50.95,1.78c-4.99-1.13-9.98-2.52-14.78-4.29    c-2.38-0.88-4.7-1.89-7-2.94c-2.37-1.09-4.98-2.01-7.07-3.59C720.51,224.81,721.04,223.22,722.34,223.51z"/><path fill="#3a96bd" d="M641.83,169.13c2.05-8.55,5.93-16.56,11.3-23.52c2.7-3.49,5.77-6.69,9.16-9.52    c1.58-1.32,3.22-2.58,4.93-3.74c1.72-1.16,3.75-2.49,5.74-3.09c0.47-0.14,0.87,0.51,0.49,0.85c-1.48,1.34-3.31,2.4-4.91,3.6    c-1.76,1.32-3.47,2.69-5.09,4.18c-3.06,2.81-5.83,5.93-8.27,9.29c-4.95,6.8-8.48,14.56-10.28,22.78    C644.46,171.97,641.35,171.13,641.83,169.13z"/><path fill="#3a96bd" d="M702.43,218.09c0.91-0.48,2.17-0.31,3.17-0.22c1,0.09,2,0.25,2.97,0.5c0.94,0.24,1.86,0.56,2.74,0.97    c0.94,0.43,2,0.91,2.6,1.78c0.5,0.73-0.15,2-1.08,1.89c-0.36-0.04-0.65-0.08-0.99-0.23c-0.2-0.1-0.4-0.21-0.6-0.31    c-0.35-0.17-0.58-0.27-0.89-0.4c-0.81-0.32-1.64-0.6-2.48-0.81c-0.41-0.1-0.82-0.19-1.24-0.26c-0.45-0.08-0.55-0.09-1.03-0.13    c-0.42-0.04-0.84-0.06-1.26-0.06c-0.51,0-1.08,0.1-1.56-0.09c-0.54-0.21-0.96-0.58-1.03-1.19    C701.68,218.98,701.92,218.36,702.43,218.09z"/></g><g><path fill="#d94848" d="M924.92,112.15c0.51,0.83,0.68,1.82,0.44,2.81c-0.32,1.3-1.27,2.29-2.55,2.67l-12.36,3.61    c-1.28,0.37-2.62,0.05-3.58-0.88c-0.96-0.92-1.35-2.25-1.03-3.54l3.06-12.51c0.32-1.3,1.27-2.29,2.55-2.67    c1.28-0.37,2.62-0.05,3.58,0.88l9.3,8.9C924.56,111.64,924.76,111.89,924.92,112.15z M908.74,118.09    c0.05,0.07,0.09,0.13,0.13,0.16c0.1,0.09,0.37,0.3,0.76,0.19l12.36-3.61c0.39-0.11,0.51-0.43,0.54-0.56    c0.03-0.13,0.08-0.47-0.22-0.75l-9.3-8.9c-0.29-0.28-0.63-0.22-0.76-0.19c-0.13,0.04-0.44,0.17-0.54,0.56l-3.06,12.51    C908.59,117.76,908.66,117.96,908.74,118.09z"/></g><g><path fill="#d94848" d="M225.58,728.15c0.51,0.83,0.68,1.82,0.44,2.81c-0.32,1.3-1.27,2.29-2.55,2.67l-12.36,3.61    c-1.28,0.37-2.62,0.05-3.58-0.88c-0.96-0.92-1.35-2.25-1.03-3.54l3.06-12.51c0.32-1.3,1.27-2.29,2.55-2.67    c1.28-0.37,2.62-0.05,3.58,0.88l9.3,8.9C225.22,727.64,225.42,727.88,225.58,728.15z M209.4,734.09c0.05,0.07,0.09,0.13,0.13,0.16    c0.1,0.09,0.37,0.3,0.76,0.19l12.36-3.61c0.39-0.11,0.51-0.43,0.54-0.56c0.03-0.13,0.08-0.47-0.22-0.75l-9.3-8.9    c-0.29-0.28-0.63-0.22-0.76-0.19c-0.13,0.04-0.44,0.17-0.54,0.56l-3.06,12.51C209.25,733.76,209.32,733.95,209.4,734.09z"/></g><g><path fill="#4d799e" d="M1099.15,583.69c-6.18,0-11.21-5.03-11.21-11.21c0-6.18,5.03-11.21,11.21-11.21     c6.18,0,11.21,5.03,11.21,11.21C1110.36,578.66,1105.33,583.69,1099.15,583.69z M1099.15,564.78c-4.25,0-7.7,3.45-7.7,7.7     c0,4.25,3.45,7.7,7.7,7.7c4.25,0,7.7-3.45,7.7-7.7C1106.85,568.24,1103.4,564.78,1099.15,564.78z"/></g><g><path fill="#4d799e" d="M434.78,122.64c-6.18,0-11.21-5.03-11.21-11.21c0-6.18,5.03-11.21,11.21-11.21     c6.18,0,11.21,5.03,11.21,11.21C445.99,117.61,440.96,122.64,434.78,122.64z M434.78,103.74c-4.25,0-7.7,3.45-7.7,7.7     c0,4.25,3.45,7.7,7.7,7.7c4.25,0,7.7-3.45,7.7-7.7C442.48,107.19,439.03,103.74,434.78,103.74z"/></g></svg>