<svg xmlns="http://www.w3.org/2000/svg" viewBox="0 0 1200 800"><g data-name="Layer 1"><path fill="#e8efd5" d="M285.88 696.92c-154.3-82.44-126.82-279-19-325.52s148-95.12 173.33-173.33 270.54-158.53 488.25 25.37 86.67 477.7 86.67 477.7Z"/><path fill="#e8efd5" d="M330.27 166.37c-148.8 24-118.37 196.57-21.13 152.19s152.19-173.33 21.13-152.19Z"/><path fill="#b7c793" d="M614.33 323.2h-.05a105 105 0 0 1-11.23-1 1.39 1.39 0 1 1 .39-2.75 104.82 104.82 0 0 0 10.94 1 1.39 1.39 0 0 1 0 2.78Zm11.13-.22a1.38 1.38 0 0 1-1.39-1.29 1.4 1.4 0 0 1 1.29-1.49 101.92 101.92 0 0 0 10.89-1.39 1.39 1.39 0 1 1 .5 2.74 107.27 107.27 0 0 1-11.19 1.45Zm-33.13-2.93a1.39 1.39 0 0 1-.35 0 100.33 100.33 0 0 1-10.76-3.41 1.39 1.39 0 1 1 1-2.6 100 100 0 0 0 10.46 3.31 1.39 1.39 0 0 1-.34 2.74Zm55-1.09a1.4 1.4 0 0 1-.4-2.73 101.55 101.55 0 0 0 10.32-3.73 1.39 1.39 0 1 1 1.09 2.56 102.5 102.5 0 0 1-10.61 3.84 1.39 1.39 0 0 1-.41.1Zm-75.79-6.78a1.31 1.31 0 0 1-.63-.16 102.09 102.09 0 0 1-9.75-5.7 1.39 1.39 0 0 1 1.54-2.32 98.54 98.54 0 0 0 9.48 5.54 1.4 1.4 0 0 1 .6 1.88 1.38 1.38 0 0 1-1.25.76Zm96.24-1.94a1.36 1.36 0 0 1-1.21-.71 1.38 1.38 0 0 1 .52-1.89 99.94 99.94 0 0 0 9.24-5.92 1.37 1.37 0 0 1 1.94.31A1.39 1.39 0 0 1 678 304a99.44 99.44 0 0 1-9.5 6.09 1.38 1.38 0 0 1-.73.15ZM553 299.89a1.36 1.36 0 0 1-.89-.33 98.7 98.7 0 0 1-8.23-7.73 1.39 1.39 0 0 1 2-1.92 98.1 98.1 0 0 0 8 7.52 1.39 1.39 0 0 1-.9 2.46Zm132.77-2.67a1.4 1.4 0 0 1-.94-2.43 96.14 96.14 0 0 0 7.67-7.79 1.39 1.39 0 0 1 2.1 1.83 98.59 98.59 0 0 1-7.9 8.07 1.34 1.34 0 0 1-.93.32Zm-148.06-13.46a1.4 1.4 0 0 1-1.12-.56 98.82 98.82 0 0 1-6.23-9.41 1.39 1.39 0 1 1 2.41-1.4 93.22 93.22 0 0 0 6.05 9.14 1.39 1.39 0 0 1-.28 2 1.36 1.36 0 0 1-.83.23Zm162.65-3.3a1.4 1.4 0 0 1-.78-.24 1.39 1.39 0 0 1-.36-1.94 92.35 92.35 0 0 0 5.65-9.39 1.39 1.39 0 1 1 2.47 1.29 96.29 96.29 0 0 1-5.83 9.68 1.39 1.39 0 0 1-1.15.6Zm-173.8-15.92a1.39 1.39 0 0 1-1.28-.84 91.64 91.64 0 0 1-3.83-10.63 1.39 1.39 0 0 1 2.67-.78 88.68 88.68 0 0 0 3.72 10.31 1.39 1.39 0 0 1-.73 1.83 1.35 1.35 0 0 1-.55.11Zm184.11-3.76a1.39 1.39 0 0 1-1.3-1.89 89.36 89.36 0 0 0 3.27-10.47 1.39 1.39 0 1 1 2.7.67 95.48 95.48 0 0 1-3.34 10.79 1.4 1.4 0 0 1-1.33.9Zm-190.38-17.55a1.41 1.41 0 0 1-1.37-1.17 95.6 95.6 0 0 1-1.17-11.23 1.39 1.39 0 1 1 2.78-.12 92.57 92.57 0 0 0 1.14 10.9 1.39 1.39 0 0 1-1.15 1.6Zm195.7-4h-.17a1.38 1.38 0 0 1-1.21-1.55 92.58 92.58 0 0 0 .65-10.94c0-2.67-.12-5.36-.35-8a1.4 1.4 0 1 1 2.78-.24c.24 2.72.36 5.49.36 8.24a94.22 94.22 0 0 1-.68 11.28 1.38 1.38 0 0 1-1.37 1.18ZM519.32 221h-.1a1.41 1.41 0 0 1-1.29-1.5 95.56 95.56 0 0 1 1.54-11.19 1.39 1.39 0 1 1 2.73.55 91.76 91.76 0 0 0-1.49 10.86 1.39 1.39 0 0 1-1.39 1.28Zm195.34-12a1.38 1.38 0 0 1-1.36-1.1 91.69 91.69 0 0 0-2.92-10.56 1.39 1.39 0 1 1 2.63-.91 93.93 93.93 0 0 1 3 10.89 1.39 1.39 0 0 1-1.07 1.65Zm-191-9.72a1.31 1.31 0 0 1-.44-.07 1.4 1.4 0 0 1-.89-1.76 94.73 94.73 0 0 1 4.19-10.49 1.38 1.38 0 0 1 1.85-.67 1.4 1.4 0 0 1 .67 1.85 89.33 89.33 0 0 0-4.04 10.15 1.39 1.39 0 0 1-1.32.95ZM707.46 188a1.4 1.4 0 0 1-1.25-.78 91.56 91.56 0 0 0-5.35-9.57 1.39 1.39 0 1 1 2.34-1.5 95.22 95.22 0 0 1 5.52 9.85 1.4 1.4 0 0 1-.65 1.86 1.33 1.33 0 0 1-.61.14Zm-174.34-8.82a1.36 1.36 0 0 1-.74-.22 1.38 1.38 0 0 1-.44-1.91 96.64 96.64 0 0 1 6.53-9.22 1.39 1.39 0 0 1 2.17 1.74 97.22 97.22 0 0 0-6.34 8.95 1.4 1.4 0 0 1-1.18.61Zm162.38-9.9a1.36 1.36 0 0 1-1.08-.51 97.67 97.67 0 0 0-7.43-8.08 1.39 1.39 0 1 1 1.94-2 98.43 98.43 0 0 1 7.64 8.32 1.38 1.38 0 0 1-1.07 2.27ZM547 161.77a1.39 1.39 0 0 1-1-2.38 100.12 100.12 0 0 1 8.45-7.48 1.4 1.4 0 0 1 1.73 2.19 96.37 96.37 0 0 0-8.22 7.27 1.38 1.38 0 0 1-.96.4Zm132.54-8a1.37 1.37 0 0 1-.85-.29 97.23 97.23 0 0 0-9.06-6.2 1.4 1.4 0 0 1 1.45-2.39 100.85 100.85 0 0 1 9.31 6.39 1.4 1.4 0 0 1 .26 2 1.42 1.42 0 0 1-1.11.47ZM564.45 148a1.42 1.42 0 0 1-1.19-.66 1.4 1.4 0 0 1 .45-1.92 101 101 0 0 1 9.91-5.4 1.39 1.39 0 1 1 1.2 2.51 99.82 99.82 0 0 0-9.64 5.26 1.4 1.4 0 0 1-.73.21Zm96.07-5.79a1.36 1.36 0 0 1-.58-.13 98.45 98.45 0 0 0-10.21-4 1.39 1.39 0 1 1 .88-2.64 99.63 99.63 0 0 1 10.5 4.16 1.39 1.39 0 0 1-.59 2.65Zm-76-3.75a1.4 1.4 0 0 1-1.31-.94 1.39 1.39 0 0 1 .86-1.77 104.07 104.07 0 0 1 10.85-3.09 1.39 1.39 0 1 1 .62 2.72 97.89 97.89 0 0 0-10.56 3 1.48 1.48 0 0 1-.46.1Zm54.91-3.28a1.36 1.36 0 0 1-.29 0 101.19 101.19 0 0 0-10.85-1.71 1.39 1.39 0 0 1 .29-2.77 102 102 0 0 1 11.14 1.76 1.39 1.39 0 0 1-.29 2.75Zm-33.23-1.62a1.39 1.39 0 0 1-.15-2.78 105.5 105.5 0 0 1 11.26-.66 1.38 1.38 0 0 1 1.4 1.39 1.4 1.4 0 0 1-1.39 1.4 102.5 102.5 0 0 0-11 .64Z"/><ellipse cx="884.68" cy="171.1" fill="#b7c793" rx="76.82" ry="41.95"/><path fill="#b7c793" d="M883.23 225.49c-3.14 0-6.31-.1-9.41-.29a1.39 1.39 0 1 1 .17-2.78c3.64.23 7.37.32 11 .28a1.39 1.39 0 1 1 0 2.78Zm12.93-.56a1.38 1.38 0 0 1-1.38-1.27 1.4 1.4 0 0 1 1.26-1.51c3.69-.32 7.37-.78 10.94-1.38a1.39 1.39 0 1 1 .46 2.75c-3.65.61-7.4 1.08-11.16 1.41Zm-33.34-.84h-.19c-3.75-.52-7.47-1.2-11.07-2a1.39 1.39 0 0 1 .61-2.72c3.53.8 7.18 1.46 10.85 2a1.38 1.38 0 0 1 1.18 1.57 1.4 1.4 0 0 1-1.38 1.15Zm55.29-2.84a1.39 1.39 0 0 1-.34-2.74c3.61-.93 7.15-2 10.53-3.21a1.39 1.39 0 1 1 .93 2.62c-3.45 1.24-7.08 2.34-10.77 3.28a1.41 1.41 0 0 1-.35.05Zm-77-2.08a1.29 1.29 0 0 1-.43-.07 109.69 109.69 0 0 1-10.55-4 1.39 1.39 0 0 1 1.12-2.55 109.44 109.44 0 0 0 10.28 3.88 1.39 1.39 0 0 1-.42 2.72Zm97.93-5.45a1.39 1.39 0 0 1-.61-2.65 86.14 86.14 0 0 0 9.55-5.36 1.39 1.39 0 1 1 1.52 2.33 87.64 87.64 0 0 1-9.86 5.54 1.32 1.32 0 0 1-.59.14Zm-118.27-3.54a1.43 1.43 0 0 1-.71-.19 76.93 76.93 0 0 1-9.32-6.45 1.39 1.39 0 1 1 1.75-2.16 73.36 73.36 0 0 0 9 6.21 1.39 1.39 0 0 1-.71 2.59Zm136.8-8.69a1.39 1.39 0 0 1-.94-2.42 51.18 51.18 0 0 0 7.22-8 1.39 1.39 0 1 1 2.27 1.61 53.59 53.59 0 0 1-7.62 8.5 1.38 1.38 0 0 1-.92.31Zm-153.91-5.41a1.41 1.41 0 0 1-1.07-.5 44.82 44.82 0 0 1-6.2-9.63 1.4 1.4 0 0 1 2.53-1.18 41.5 41.5 0 0 0 5.81 9 1.38 1.38 0 0 1-1.07 2.28Zm166.5-12.68a1.29 1.29 0 0 1-.47-.08 1.39 1.39 0 0 1-.85-1.77 31.48 31.48 0 0 0 1.81-10.45 30.65 30.65 0 0 0-.78-6.86 1.39 1.39 0 0 1 2.72-.62 33.77 33.77 0 0 1 .84 7.48 34.34 34.34 0 0 1-2 11.37 1.39 1.39 0 0 1-1.27.93Zm-175.54-7.29a1.4 1.4 0 0 1-1.39-1.24 33.61 33.61 0 0 1 .7-11.52 1.39 1.39 0 0 1 1.67-1 1.41 1.41 0 0 1 1 1.68 31.1 31.1 0 0 0-.64 10.57 1.39 1.39 0 0 1-1.23 1.54ZM967.11 155a1.41 1.41 0 0 1-1.21-.69 45.86 45.86 0 0 0-6.54-8.57 1.39 1.39 0 1 1 2-1.92 48.69 48.69 0 0 1 6.94 9.08 1.4 1.4 0 0 1-.5 1.91 1.37 1.37 0 0 1-.69.19Zm-167.63-.23a1.32 1.32 0 0 1-.71-.2 1.4 1.4 0 0 1-.49-1.91 49.19 49.19 0 0 1 7-9 1.39 1.39 0 0 1 2 1.94 45.71 45.71 0 0 0-6.6 8.53 1.4 1.4 0 0 1-1.2.68ZM952 138.93a1.36 1.36 0 0 1-.81-.27 80.32 80.32 0 0 0-9.28-5.79 1.39 1.39 0 0 1 1.31-2.45 83.78 83.78 0 0 1 9.61 6 1.4 1.4 0 0 1-.83 2.52Zm-137.24-.16a1.42 1.42 0 0 1-1.13-.57 1.39 1.39 0 0 1 .32-1.95 83.8 83.8 0 0 1 9.62-6 1.39 1.39 0 0 1 1.31 2.46 79.63 79.63 0 0 0-9.3 5.76 1.38 1.38 0 0 1-.87.3Zm117.7-10.41a1.37 1.37 0 0 1-.52-.1c-3.32-1.32-6.82-2.51-10.41-3.55a1.39 1.39 0 1 1 .77-2.67c3.68 1.06 7.27 2.28 10.67 3.63a1.39 1.39 0 0 1-.51 2.69Zm-98.12-.1a1.39 1.39 0 0 1-.51-2.68c3.41-1.35 7-2.57 10.68-3.62a1.39 1.39 0 0 1 .77 2.68c-3.59 1-7.1 2.21-10.43 3.53a1.48 1.48 0 0 1-.56.09Zm76.66-6.11h-.27c-3.55-.7-7.21-1.27-10.89-1.69a1.39 1.39 0 1 1 .31-2.77c3.76.43 7.5 1 11.12 1.72a1.39 1.39 0 0 1-.27 2.76Zm-55.37-.05a1.39 1.39 0 0 1-.26-2.76c3.62-.7 7.36-1.28 11.12-1.7a1.39 1.39 0 1 1 .31 2.77c-3.68.41-7.35 1-10.9 1.66a1.24 1.24 0 0 1-.23.03Zm33.26-2.49c-3.66-.14-7.39-.14-11 0a1.4 1.4 0 0 1-.1-2.79c3.72-.13 7.52-.13 11.24 0a1.4 1.4 0 0 1-.05 2.79Z"/><path fill="#fff" d="M859.85 159.71c-1 1.07-2.46 3-4.49 5.77a50.73 50.73 0 0 1-4.27 5.33 3.44 3.44 0 0 1-2 1.19c-.4 0-.79-.3-1.18-.9a20 20 0 0 1-1.48-3.65A64.53 64.53 0 0 0 844 161a12.36 12.36 0 0 0-.4 1.63c-.31 1.58-.73 3.52-1.25 5.8a87.56 87.56 0 0 0-1.72 8.69c0 .18-.18.37-.47.58a1.51 1.51 0 0 1-.73.31 1.3 1.3 0 0 1-1-.53 1.64 1.64 0 0 1-.45-1 20.92 20.92 0 0 1 .86-4.51l1.27-4.82a61.69 61.69 0 0 0 1.46-6.7 28.87 28.87 0 0 0 .28-3.37c0-.86.67-1.28 2-1.28.28 0 .58.25.89.74a4.82 4.82 0 0 1 .62 1.3c.13.37.28.79.46 1.25l2 5.51a34.78 34.78 0 0 0 1.43 3.81c.18.29.33.43.44.43q.75-.17 5.31-6.45 5.07-7 5.78-7a2.39 2.39 0 0 1 1.3.46c.48.31.72.58.72.8s-.29 2.25-.86 6.45q-.3 2.33-.57 5.6c-.17 2.18-.26 3.41-.26 3.68a6.31 6.31 0 0 0 .26 1.67 5 5 0 0 1 .24 1.33 6.42 6.42 0 0 1-.15 1.15c-.1.5-.31.8-.64.89a3.11 3.11 0 0 1-.79.13c-1 0-1.54-.86-1.54-2.57s.34-5.4 1-11.5c.05-.49.07-.79.07-.91a9.61 9.61 0 0 1 .18-1 8.17 8.17 0 0 0 .13-1.24 1.71 1.71 0 0 0-.02-.62ZM879.11 156c.09.07.13.31.13.72a2.63 2.63 0 0 1-.13 1l.19.62a22.63 22.63 0 0 0 1 2.84c.39 1 .77 2.08 1.16 3.22a48.76 48.76 0 0 0 2.72 6.76 15.26 15.26 0 0 0 2.59 4 8.5 8.5 0 0 1 .92 1 1.17 1.17 0 0 1 .18.64 1.52 1.52 0 0 1-.43 1.1 1.39 1.39 0 0 1-1 .45c-1.25 0-2.77-2-4.55-5.92q-1.06-2.34-1.29-2.34a21.38 21.38 0 0 0-3 .43 37.78 37.78 0 0 0-4.26 1 6.79 6.79 0 0 1-1.39.33 1.14 1.14 0 0 1-.76-.36.28.28 0 0 0-.18-.06c-.22 0-.68.63-1.4 1.91-1.17 2.1-1.91 3.36-2.22 3.76a1.29 1.29 0 0 1-1 .61 1.63 1.63 0 0 1-1-.46 1.26 1.26 0 0 1-.55-.95 2.6 2.6 0 0 1 .52-1.27l2.16-3.22a87.62 87.62 0 0 0 4.91-8.08 69.59 69.59 0 0 1 4-7.09c.57-.71 1-1.07 1.31-1.07a1.88 1.88 0 0 1 1.37.43Zm.9 11.68c-.35-.78-.85-2.22-1.52-4.3s-1.18-3.58-1.38-4.06q-.81 1.71-2.49 4.84l-2.66 5a4.25 4.25 0 0 1 1.63-.38c.67-.07 1.26-.16 1.76-.26 2.65-.52 4.22-.8 4.65-.84ZM897.41 167.59q.81.57 3.52 2.7 2.87 2.25 4.37 3.26a9.36 9.36 0 0 0 2.13 1.18 13 13 0 0 0 2.33.29 1.65 1.65 0 0 1 .06.46 2 2 0 0 1-.49 1.46 1.73 1.73 0 0 1-1.33.52 4.62 4.62 0 0 1-2-.62 40 40 0 0 1-4.34-3l-3.34-2.54a14.63 14.63 0 0 0-3.22-2 1.19 1.19 0 0 0-.9.38 7.45 7.45 0 0 0-.64 2.33 16.93 16.93 0 0 0-.19 2.19c-.14 2.69-.7 4-1.68 4a1.17 1.17 0 0 1-.91-.37 1.4 1.4 0 0 1-.34-1 5.91 5.91 0 0 1 .19-1.21c.3-1.21.7-4.73 1.22-10.57q.27-2.69.66-5.41a21.23 21.23 0 0 1 .61-3.21 1.57 1.57 0 0 1 .54-.74 1.2 1.2 0 0 1 .65-.23c.91 0 1.35.55 1.33 1.66a47.67 47.67 0 0 0-1.26 7.75q-.09 1.14-.24 2.25s0 .08 0 .11.06 0 .16 0 .4-.26.93-.65 1.09-.84 1.7-1.35a15.85 15.85 0 0 0 1.46-1.37 9.49 9.49 0 0 1 .9-.9c1.21-1.09 2.12-1.95 2.7-2.58a12.59 12.59 0 0 0 1.65-2.25c.71-1.26 1.23-1.88 1.54-1.88a1.57 1.57 0 0 1 1.07.55 1.59 1.59 0 0 1 .56 1.09q0 1.41-4.46 5.32c-.66.57-1.08.94-1.27 1.13s-1.58 1.45-3.67 3.25ZM929.65 158.08h-.8a5.91 5.91 0 0 0-1.55.15 9.75 9.75 0 0 1-1.41.23 8.48 8.48 0 0 0-.93.12 17.31 17.31 0 0 1-2.49.13 11.57 11.57 0 0 0-3.54.38 1.55 1.55 0 0 0-.81 1.4 12.14 12.14 0 0 1-.31 1.78 20.45 20.45 0 0 0-.72 3.84h.22a21.09 21.09 0 0 0 2.79-.19c1.4-.16 2.45-.32 3.14-.47a15.55 15.55 0 0 1 3.28-.52q1.83 0 1.83 1a1.38 1.38 0 0 1-1.22 1.47c-.82.19-2.53.42-5.12.7q-4.75.53-5.07.95a8.31 8.31 0 0 0-.67 2.69 25.53 25.53 0 0 0-.36 2.91v.16c.05.49.37.77.94.84h.27a9.83 9.83 0 0 0 1.92-.14l2.82-.41c1-.14 2.11-.32 3.19-.51a16.44 16.44 0 0 1 2.56-.43 1.66 1.66 0 0 1 .91.35 1.22 1.22 0 0 1 .51 1.09.93.93 0 0 1-.26.75 10.33 10.33 0 0 1-3.87.73q-2 .07-6.37.69a24.91 24.91 0 0 1-2.88.33 5.09 5.09 0 0 1-2.15-.27c-.29-.19-.46-.63-.52-1.33l-.06-.5a3.83 3.83 0 0 1 .26-1 27.42 27.42 0 0 0 .86-4c.33-1.95.54-3.49.64-4.63.05-.39.13-.86.24-1.42a32.48 32.48 0 0 0 .64-5.55 1.87 1.87 0 0 0-.29-.55.76.76 0 0 1-.1-.14 5.59 5.59 0 0 0-.2-.56 1.22 1.22 0 0 1-.1-.49v-.14a.7.7 0 0 1 .4-.58 1.49 1.49 0 0 1 .76-.25h.05a12.69 12.69 0 0 1 1.41.09c.23 0 1.32-.09 3.27-.28s4.27-.51 7-1a4.32 4.32 0 0 1 .52-.07h.22a2.67 2.67 0 0 1 1.58.22 1.61 1.61 0 0 1 .53 1.17 1.11 1.11 0 0 1-.38.79 1.34 1.34 0 0 1-.58.47Z"/><path fill="#b7c793" d="M645.54 223.07h-17.48v-11.38h17.48Zm-14.7-2.78h11.92v-5.81h-11.92Z"/><path fill="#b7c793" d="M645.37 214.48h-17.14l-5.69-41.9h28.52Zm-14.7-2.79h12.26l4.94-36.32h-22.14Z"/><path fill="#b7c793" d="M625.36 176.54h23.09v2.78h-23.09zM238.48 661.58h-23.37v-26.94a9 9 0 0 1 9-9h5.33a9 9 0 0 1 9 9Zm-20.59-2.79h17.8v-24.15a6.25 6.25 0 0 0-6.23-6.24h-5.33a6.25 6.25 0 0 0-6.24 6.24Z"/><path fill="#b7c793" d="M232.18 628.28h-9.32v-15.5h9.32Zm-6.54-2.78h3.76v-9.93h-3.76Z"/><path fill="#b7c793" d="M238.78 620.47h-9.38v-7.69h9.38Zm-6.6-2.78H236v-2.12h-3.81ZM1036.63 306H995.7v-23.4h40.93Zm-38.14-3.22h35.35v-16.96h-35.35Z"/><path fill="#b7c793" d="M1036.63 285.82H995.7v-1.61c0-6.9 4.86-12.52 10.84-12.52h19.25c6 0 10.84 5.62 10.84 12.52Zm-38-3.22h35.11c-.66-4.36-4-7.69-7.93-7.69h-19.25c-3.98 0-7.29 3.33-7.95 7.69ZM493.19 269.2h-40.93V249h40.93Zm-38.14-2.78h35.35v-14.65h-35.35Z"/><path fill="#b7c793" d="M493.19 251.77h-40.93v-1.4a10.85 10.85 0 0 1 10.84-10.83h19.25a10.85 10.85 0 0 1 10.84 10.83Zm-38-2.79h35.11a8.06 8.06 0 0 0-7.93-6.66H463.1a8.06 8.06 0 0 0-7.93 6.68ZM1096.15 560.53l-15.12-.71 1.32-27.82 15.11.72Zm-12.21-3.36 9.56.45 1-22.25-9.55-.46Z"/><path fill="#b7c793" d="m1095.7 535.42-11.85-.56 1.18-24.92 11.51 7.83Zm-8.94-3.21 6.29.3.63-13.31-6.11-4.16ZM356.26 213.18l.3-12.84a20.86 20.86 0 0 0-12.77-17.93l-9-3.7 9.65 1c8.24.87 15.07-9.56 16.58-15.65l2.19-8.86.55 9.11c0 .61.06 1.27.08 2 .2 6 .48 14.33 9.55 17.62l9.17 3.33-9.74-.63c-2.46-.16-10-.65-13.55 14.06ZM349 182.05a23.53 23.53 0 0 1 9.3 12.53q3.41-8.39 9.84-10.23c-5-3.57-6.38-9-6.84-13.66-2.57 4.74-6.89 9.75-12.3 11.36ZM382 178l.3-12.84c0-.08-.31-8.45-8.42-11.79l-9-3.7 9.65 1c5.36.56 9.82-6.31 10.81-10.32l2.19-8.86.55 9.11c0 .41 0 .87.06 1.36.14 4 .32 9.46 6.21 11.6l9.17 3.33-9.73-.63c-1.59-.1-6.42-.42-8.77 9.23Zm-3.4-25.14a16.42 16.42 0 0 1 5.39 7.18c1.42-3 3.34-5 5.72-5.92a12.14 12.14 0 0 1-4-7.75 15.64 15.64 0 0 1-7.07 6.51ZM142.67 483.43l.3-12.84a20.82 20.82 0 0 0-12.76-17.93l-9-3.7 9.65 1c8.24.87 15.07-9.56 16.57-15.65l2.19-8.86.55 9.11c0 .61.06 1.27.09 2 .2 6.05.48 14.34 9.54 17.63l9.18 3.32-9.74-.62c-2.47-.16-10-.65-13.55 14.05Zm-7.24-31.13a23.87 23.87 0 0 1 9.28 12.61c2.27-5.63 5.58-9.08 9.88-10.32-5-3.56-6.39-9-6.84-13.66-2.61 4.75-6.93 9.77-12.32 11.37ZM168.46 448.27l.3-12.84c0-.08-.31-8.45-8.42-11.79l-9-3.7 9.65 1c5.36.56 9.82-6.31 10.81-10.32l2.19-8.86.55 9.11c0 .41 0 .87.06 1.36.13 4 .32 9.46 6.21 11.6l9.17 3.32-9.74-.63c-1.58-.1-6.41-.41-8.77 9.24Zm-3.4-25.14a16.42 16.42 0 0 1 5.39 7.18q2.13-4.51 5.72-5.92a12.14 12.14 0 0 1-4-7.75 15.69 15.69 0 0 1-7.11 6.49Z"/><ellipse cx="171.15" cy="361.2" fill="#b7c793" rx="57.26" ry="31.27"/><path fill="#b7c793" d="M165.34 402h-.06a109.2 109.2 0 0 1-11.23-1 1.4 1.4 0 0 1-1.18-1.58 1.38 1.38 0 0 1 1.58-1.17 109.42 109.42 0 0 0 11 1 1.39 1.39 0 0 1-.06 2.78Zm11.13-.08a1.39 1.39 0 0 1-.08-2.78 108.39 108.39 0 0 0 10.93-1.2 1.39 1.39 0 0 1 .45 2.75 108.43 108.43 0 0 1-11.22 1.23Zm-33.13-3.17a1.49 1.49 0 0 1-.36-.05 87 87 0 0 1-10.73-3.56 1.39 1.39 0 1 1 1.05-2.58 86.65 86.65 0 0 0 10.39 3.44 1.39 1.39 0 0 1-.35 2.74Zm55.08-.44a1.4 1.4 0 0 1-.38-2.74 83 83 0 0 0 10.32-3.65 1.39 1.39 0 1 1 1.1 2.56 85.23 85.23 0 0 1-10.66 3.77 1.31 1.31 0 0 1-.38.06Zm-75.6-8.05a1.39 1.39 0 0 1-.73-.2 54 54 0 0 1-9.1-6.88 1.39 1.39 0 0 1 1.92-2 50.78 50.78 0 0 0 8.63 6.52 1.4 1.4 0 0 1 .47 1.92 1.38 1.38 0 0 1-1.19.64Zm95.92-.89a1.39 1.39 0 0 1-.76-2.56 47.87 47.87 0 0 0 8.4-6.79 1.39 1.39 0 1 1 2 1.94 51.28 51.28 0 0 1-8.88 7.19 1.42 1.42 0 0 1-.76.22Zm-111.63-14.53a1.4 1.4 0 0 1-1.22-.73 26.94 26.94 0 0 1-3.35-11.11 1.39 1.39 0 0 1 2.78-.2 24.28 24.28 0 0 0 3 10 1.39 1.39 0 0 1-.56 1.89 1.44 1.44 0 0 1-.65.15Zm126.68-1.5a1.44 1.44 0 0 1-.6-.13 1.39 1.39 0 0 1-.66-1.85 23 23 0 0 0 2.13-13.3 1.39 1.39 0 0 1 1.18-1.57 1.4 1.4 0 0 1 1.58 1.19 25.91 25.91 0 0 1 .24 3.52 26.48 26.48 0 0 1-2.61 11.35 1.4 1.4 0 0 1-1.26.79Zm-128.11-20a1.39 1.39 0 0 1-1.29-1.91 33.15 33.15 0 0 1 6.19-9.75 1.39 1.39 0 0 1 2.08 1.85 30.35 30.35 0 0 0-5.69 8.94 1.39 1.39 0 0 1-1.29.91Zm126.51-4.47a1.39 1.39 0 0 1-1.19-.66 36.36 36.36 0 0 0-7-8.1 1.39 1.39 0 0 1 1.84-2.08 39 39 0 0 1 7.5 8.72 1.37 1.37 0 0 1-.45 1.91 1.4 1.4 0 0 1-.7.25ZM120 336.75a1.39 1.39 0 0 1-.8-2.54 66.14 66.14 0 0 1 9.91-5.58 1.39 1.39 0 0 1 1.16 2.53 63.55 63.55 0 0 0-9.48 5.34 1.39 1.39 0 0 1-.79.25Zm95.87-2.67a1.31 1.31 0 0 1-.69-.19 71.44 71.44 0 0 0-9.88-4.64 1.39 1.39 0 1 1 1-2.6 73 73 0 0 1 10.26 4.83 1.39 1.39 0 0 1-.69 2.6Zm-75.77-6.72a1.39 1.39 0 0 1-.4-2.72 97.38 97.38 0 0 1 11-2.64 1.4 1.4 0 0 1 .49 2.75 91.3 91.3 0 0 0-10.67 2.55 1.45 1.45 0 0 1-.41.06Zm55.08-1.36a1.37 1.37 0 0 1-.34 0 100.36 100.36 0 0 0-10.79-2 1.39 1.39 0 0 1 .36-2.76 101.68 101.68 0 0 1 11.1 2.06 1.39 1.39 0 0 1-.33 2.74ZM162 323.39a1.4 1.4 0 0 1-.1-2.79c3.71-.27 7.54-.35 11.27-.25a1.39 1.39 0 1 1-.07 2.78c-3.64-.09-7.38 0-11 .25Z"/><path fill="#fff" d="M176.57 361.39a6.14 6.14 0 1 1-6.14-6.14 6.14 6.14 0 0 1 6.14 6.14ZM148.2 361.39a6.14 6.14 0 1 1-6.14-6.14 6.14 6.14 0 0 1 6.14 6.14ZM204.94 361.39a6.14 6.14 0 1 1-6.14-6.14 6.14 6.14 0 0 1 6.14 6.14Z"/><path fill="#b7c793" d="m1073.86 367.8-14.23-10.34-14.22 10.34 5.43-16.72-14.23-10.34h17.59l5.43-16.73 5.44 16.73h17.58l-14.22 10.34Zm-31.73-25.27 10.82 7.86-4.13 12.72 10.81-7.86 10.82 7.86-4.13-12.72 10.81-7.86h-13.37l-4.13-12.71-4.13 12.71ZM720 124.68l-14.23-10.34-14.22 10.34L697 108l-14.24-10.39h17.59l5.43-16.72 5.44 16.72h17.58L714.58 108Zm-31.72-25.27 10.82 7.86L695 120l10.81-7.86L716.6 120l-4.13-12.71 10.81-7.86h-13.37l-4.13-12.72-4.13 12.72ZM1009.1 221.75a7.72 7.72 0 0 1-7.7-7.22 7.72 7.72 0 0 1 0-15.41 7.72 7.72 0 0 1 15.41 0 7.72 7.72 0 0 1 0 15.41 7.73 7.73 0 0 1-7.71 7.22Zm-5.85-9.08-.06 1.13a1.85 1.85 0 0 0 0 .23 5.93 5.93 0 1 0 11.85 0v-.23l-.07-1.13 1.12.07h.24a5.93 5.93 0 1 0 0-11.85h-.23l-1.1.11.07-1.13v-.23a5.93 5.93 0 1 0-11.85 0 1.77 1.77 0 0 0 0 .23l.06 1.13-1.12-.07h-.23a5.93 5.93 0 1 0 0 11.85h.24Z"/><path fill="#b7c793" d="M1009.1 211.54a4.72 4.72 0 1 1 4.72-4.71 4.71 4.71 0 0 1-4.72 4.71Zm0-7.64a2.93 2.93 0 1 0 2.93 2.93 2.93 2.93 0 0 0-2.93-2.93ZM1017.56 578a7.74 7.74 0 0 1-7.71-7.23 7.72 7.72 0 0 1 0-15.41 7.72 7.72 0 0 1 15.41 0 7.72 7.72 0 0 1 0 15.41 7.73 7.73 0 0 1-7.7 7.23Zm-5.85-9.08-.07 1.12a1.93 1.93 0 0 0 0 .24 5.93 5.93 0 0 0 11.85 0 1.93 1.93 0 0 0 0-.24l-.06-1.12 1.11.06h.24a5.93 5.93 0 1 0 0-11.86h-.23l-1.12.07.06-1.13a1.69 1.69 0 0 0 0-.23 5.93 5.93 0 1 0-11.85 0 1.69 1.69 0 0 0 0 .23l.07 1.13-1.13-.07h-.23a5.93 5.93 0 0 0 0 11.86h.24Z"/><path fill="#b7c793" d="M1017.56 567.74a4.72 4.72 0 1 1 4.71-4.72 4.72 4.72 0 0 1-4.71 4.72Zm0-7.65a2.93 2.93 0 1 0 2.92 2.93 2.93 2.93 0 0 0-2.92-2.93ZM587.75 231.93a7.74 7.74 0 0 1-7.75-7.23 7.72 7.72 0 0 1 0-15.41 7.72 7.72 0 0 1 15.41 0 7.72 7.72 0 0 1 0 15.41 7.72 7.72 0 0 1-7.66 7.23Zm-5.85-9.09-.07 1.13v.24a5.93 5.93 0 0 0 11.86 0v-.24l-.07-1.13 1.11.07h.27a5.93 5.93 0 0 0 0-11.85h-.23l-1.13.07.07-1.13v-.23a5.93 5.93 0 1 0-11.86 0v.23l.07 1.13-1.13-.07h-.23a5.93 5.93 0 1 0 0 11.85h.25Z"/><path fill="#b7c793" d="M587.75 221.72a4.72 4.72 0 1 1 4.72-4.72 4.73 4.73 0 0 1-4.72 4.72Zm0-7.65a2.93 2.93 0 1 0 2.92 2.93 2.93 2.93 0 0 0-2.92-2.93Z"/><path fill="#95a87f" d="M485.57 681.88C526 625.56 465 552.78 452.25 554.49s-18.86 2.52-32.18-25.32-30-36.88-48-34.47-23.86-.56-31.55-17.48-24.44-33-46.66-27.55-22.85 3.89-39.5-11.41S212 419.42 197.85 440c-9.78 14.25 7.94 40.67 28 50.09s23.4 19 13.33 40.35 15.89 40.85 42.57 46.88 20.25 11.06 30.6 38.47 50 24.19 57.43 33.2 22.11 50.01 115.79 32.89Z"/><path fill="#84946f" d="M474.45 670.48a2.13 2.13 0 0 1-1.92-.76c-.9-1.1-92.09-111.3-225.51-198a2.11 2.11 0 1 1 2.31-3.54C383.31 555.25 474.89 665.93 475.8 667a2.11 2.11 0 0 1-.29 3 2.15 2.15 0 0 1-1.06.48Z"/><path fill="#b7cc9a" d="M508.42 641c38.05-33.08 33.92-111.66 15.72-125.72s-30.6-28.95-26.47-58.72-5-52.11-34.74-76.1-42.18-19-47.14-46.32-12.41-39.7-37.22-43-28.95-13.23-33.09-32.25-13.23-35.57-31.43-40.53-35.56 5-48-7.45-36.24-28.25-52.94-4.13c-14.88 21.5 24.82 44.66 38.05 59.55s-16.54 38.05-.83 63.69 50.46 13.23 57.08 44.66 14.88 79.4 59.55 99.26 37.22 38 44.66 81.05 56.28 80.21 96.8 86.01Z"/><path fill="#95a87f" d="M505.94 623.26a2.12 2.12 0 0 1-2-1.48c-71.5-226.13-179-324.84-257.48-396.92a2.12 2.12 0 0 1-.12-3 2.12 2.12 0 0 1 3-.13C328.15 294.14 436.12 393.3 508 620.51a2.12 2.12 0 0 1-1.38 2.65 2.37 2.37 0 0 1-.68.1Z"/><path fill="#b7cc9a" d="M953.41 231c34.39 5.26 16 46-11.85 59.55s-28.12 32.53-24.82 58.18-7.71 40.8-21.5 55.14-3.31 32-13.79 52.38-51.83 6.07-56.79 44.11-47.42 81.06-80 82.71c-35.29-39.15-23.15-113 5.52-131.78s28.67-52.39 29.77-71.69 19.3-27 35.3-40.8 10.51-41.34 34.75-46.3 35.85-16 46.87-30.33S930 227.43 953.41 231Z"/><path fill="#84946f" d="M766.21 543.85a2.25 2.25 0 0 1-.44 0 2.12 2.12 0 0 1-1.63-2.51c38.59-183.29 87.62-212 123.41-233 37.44-21.92 50.78-59.15 50.91-59.52a2.11 2.11 0 1 1 4 1.39c-.55 1.58-13.93 39-52.76 61.78-35.12 20.57-83.21 48.74-121.41 230.2a2.11 2.11 0 0 1-2.08 1.66Z"/><path fill="#95a87f" d="M796.54 583.09c-1.66-43.56 41.9-104.76 73.89-115.79s23.16-18.2 44.66-39.15 46.87-30.88 70.58-22.06 28.12-8.82 48-2.2 9.93 52.38-22.6 67.82-40.81 24.81-43.57 52.38-70 25.37-74.44 48.53-92.66 45.77-96.52 10.47Z"/><path fill="#84946f" d="M809.77 589.07a2.09 2.09 0 0 1-1-.28 2.12 2.12 0 0 1-.78-2.89c41.58-72.23 109.29-117.06 158.77-134.9 38.57-13.92 54.59-33.85 54.75-34.05a2.1 2.1 0 0 1 3-.36 2.12 2.12 0 0 1 .36 3c-.67.85-16.82 21-56.64 35.42C919.42 472.56 852.67 516.77 811.6 588a2.11 2.11 0 0 1-1.83 1.07Z"/><path fill="#d3e0b6" d="M227.85 683.18h836.86a17 17 0 0 1 17 17v18.93H210.85v-18.93a17 17 0 0 1 17-17Z"/><path fill="#7ec4b3" d="m538.11 508.87-14.94-14.65a52.28 52.28 0 0 1-14.88-28.3h-75l-.24 1.25a52.32 52.32 0 0 1-14.65 27.05l-14.94 14.65a52.24 52.24 0 0 0-15.67 37.31v136.44h166V546.18a52.24 52.24 0 0 0-15.68-37.31Z"/><path fill="#f58c82" d="M428.75 367.08h86.02v102.56h-86.02z"/><path fill="#e87166" d="M463.62 289.33h16.27a7.3 7.3 0 0 1 7.3 7.3v70.44h-30.87v-70.44a7.3 7.3 0 0 1 7.3-7.3Z"/><path d="M466.24 371.49h11.03v93.74h-11.03zM489.49 371.49h11.03v93.74h-11.03zM445.1 371.49h11.03v93.74H445.1z" style="mix-blend-mode:multiply" fill="#e3e3e3"/><path d="M421.3 637.36a10.57 10.57 0 0 1-10.57-10.57c0-.44 0-44.67-.27-73.23a10.57 10.57 0 1 1 21.13-.2c.28 28.66.28 73 .28 73.43a10.57 10.57 0 0 1-10.57 10.57ZM428.79 529.31a10.57 10.57 0 0 1-9.39-15.41c6.07-11.79 15-22 27.27-31.21a10.57 10.57 0 0 1 12.68 16.91c-9.67 7.25-16.58 15.09-21.15 24a10.55 10.55 0 0 1-9.41 5.71Z" style="mix-blend-mode:screen" fill="#404040"/><path fill="#ed9d93" d="M759.68 682.63H547.21l-21.14-286.19h254.75l-21.14 286.19z"/><path fill="#fbd0ca" d="M555.06 674.17 535.17 404.9h236.55l-19.89 269.27H555.06z"/><path fill="#de8a80" d="m545.67 546.98 9.39 127.19h196.77l9.4-127.19H545.67z"/><path fill="#83575c" d="M668.46 428.4h34.12v249.37h-34.12z" transform="rotate(23.85 685.532 553.095)"/><path fill="#f0a565" d="m789.96 373.66-42.01-18.57-29.98 76.01 35.95 15.89 36.04-73.33z"/><path fill="#e89653" d="m789.96 373.66-42.01-18.57 6.78-19.44 45.04 19.92-9.81 18.09z"/><path fill="#fed5b4" d="M754.73 335.65c-5.56-19.46 2.84-50.22 10.17-58.79s49.78-12.7 70.47 3.53-11.35 62.52-35.6 75.18Z"/><path fill="#efc198" d="M763.94 296.67a1.67 1.67 0 0 1-1-1.41c-.35-5.28 1.38-16.6 7.59-26.11a1.65 1.65 0 1 1 2.77 1.81c-5.72 8.76-7.36 19.42-7 24.08a1.66 1.66 0 0 1-1.54 1.77 1.84 1.84 0 0 1-.82-.14ZM784.24 286.52a1.66 1.66 0 0 1-.9-2s1.37-4.45 1.53-18.62a1.66 1.66 0 1 1 3.31 0c-.17 14.89-1.63 19.44-1.69 19.63a1.68 1.68 0 0 1-2.1 1.05ZM794.72 305.56l-.15-.08a1.66 1.66 0 0 1-.61-2.27c8.64-15 8.95-34 8.68-36a1.7 1.7 0 0 1 1.34-1.89 1.63 1.63 0 0 1 1.9 1.22c.3 1.31.49 21.77-9 38.37a1.67 1.67 0 0 1-2.16.65ZM817.82 287h-.05a1.65 1.65 0 0 1-.77-2.21c5.28-10.93 5.16-15.45 5.16-15.49a1.66 1.66 0 0 1 1.56-1.73 1.64 1.64 0 0 1 1.74 1.53c0 .51.18 5.4-5.48 17.13a1.65 1.65 0 0 1-2.16.77ZM826.46 310.14a1.62 1.62 0 0 1-.61-.47 1.65 1.65 0 0 1 .24-2.33c.08-.07 9.19-7.76 13-27a1.66 1.66 0 1 1 3.25.64c-4 20.55-13.73 28.64-14.14 29a1.64 1.64 0 0 1-1.74.16Z"/><path fill="#83575c" d="M567.82 354H592v313.45a5.72 5.72 0 0 1-5.72 5.72h-12.74a5.72 5.72 0 0 1-5.72-5.72V354Z" transform="rotate(-11.52 579.864 513.551)"/><path fill="#fed5b4" d="M554 200.59c-3.65-11.54-16.79-27.24-41.49-21-25.18 3.89-31.13 23.49-30 35.53 1.19 12.32 23.5 42.82 38.68 60l20.74-4.12c7.25-21.81 15.84-58.61 12.07-70.41Z"/><path fill="#efc198" d="M493.93 226.87a1.65 1.65 0 0 1-1.75-.76c-.41-.69-10.2-17-10.77-33a1.66 1.66 0 0 1 3.31-.12c.54 15.13 10.2 31.28 10.3 31.44a1.67 1.67 0 0 1-.56 2.28 1.56 1.56 0 0 1-.53.16ZM496.93 202.67a1.65 1.65 0 0 1-1.95-1.28c0-.06-1.21-5.72-5.92-16.29a1.65 1.65 0 0 1 3-1.35c4.89 10.95 6.1 16.73 6.15 17a1.65 1.65 0 0 1-1.29 1.95ZM511 198.05a1.66 1.66 0 0 1-2-1.27c-2.86-13-6.12-18.67-6.15-18.72a1.66 1.66 0 1 1 2.86-1.68c.14.24 3.53 6.09 6.53 19.69a1.66 1.66 0 0 1-1.27 2ZM522 190.3h-.08a1.64 1.64 0 0 1-1.89-1.37c-1.52-9.52-3.77-13.58-3.8-13.62a1.66 1.66 0 0 1 2.88-1.64c.1.18 2.56 4.52 4.19 14.74a1.66 1.66 0 0 1-1.3 1.89ZM532.27 206.27a1.45 1.45 0 0 1-.55 0 1.66 1.66 0 0 1-1.42-1.87c0-.07 1-8.47-5.27-29.74a1.66 1.66 0 0 1 3.18-.93c6.5 22.13 5.42 30.77 5.37 31.13a1.65 1.65 0 0 1-1.31 1.41ZM543.94 210.51a1.66 1.66 0 0 1-1.9-2.17c2.89-8.27-.3-26.26-.33-26.44A1.65 1.65 0 0 1 543 180a1.67 1.67 0 0 1 1.93 1.34c.14.77 3.37 19 .2 28.11a1.66 1.66 0 0 1-1.19 1.06Z"/><path fill="#f0a565" d="M525.08 270.83h28.51v87.26h-28.51z" transform="rotate(-11.52 539.311 314.428)"/><path fill="#a16970" d="M581.18 377.34h19.76v295.84h-19.76z" transform="translate(-27.14 32.23)"/><path fill="#fed5b4" d="M576.27 253c-18 3.34-14.24 31.15-10.63 37.88l26.84-1.54c6.52-12.84 1.78-39.72-16.21-36.34Z"/><path fill="#e89653" d="M564.51 289.27h28.83v17.06h-28.83z" transform="rotate(-3.05 579.576 298.097)"/><path fill="#f0a565" d="m593.78 305.55-28.79 1.54 7.18 72.5 22.18-1.18-.57-72.86z"/><path fill="#fed5b4" d="m773.52 158.34-1.58-.23c-13.57-2-15.43 14.56-12.88 24.75s4.05 18.71 4.05 18.71l6.49.94s3.86-7.73 9.21-16.77 8.28-25.42-5.29-27.4Z"/><path fill="#a16970" d="M699 672.49a7.22 7.22 0 0 1-6.1-8.16l53.9-378.19 14.27 2.08-53.94 378.15a7.22 7.22 0 0 1-8.13 6.12Z"/><path fill="#f0a565" d="m771.49 201.48-9.9-1.44-16.12 87.79 16.45 2.4 9.57-88.75z"/><path fill="#a16970" d="M634.69 450.82h36.72V664a8.69 8.69 0 0 1-8.69 8.69h-19.34a8.69 8.69 0 0 1-8.69-8.69V450.82Z" transform="rotate(6.02 653.342 562.066)"/><path fill="#f0a565" d="m700.62 390.5-58.35-6.16 1.48 64.88 41.88 4.42 14.99-63.14z"/><path fill="#e89653" d="M655.74 340.63h35.1v58.67h-35.1z" transform="rotate(-83.98 673.256 369.978)"/><path fill="#fed5b4" d="M646 349.44c-17.78-45.86-22.15-78.57-9.8-90.62s25.66-24 51.37-20.64 52 28.94 49.55 45.95-22.21 59.55-32.76 71.47Z"/><path fill="#efc198" d="M640.33 290.24a1.65 1.65 0 0 1-1.46-1.35c-.19-1.09-4.73-26.85.94-43.1a1.66 1.66 0 0 1 3.13 1.1c-5.39 15.42-.86 41.16-.81 41.41a1.67 1.67 0 0 1-1.34 1.93 1.77 1.77 0 0 1-.46.01ZM651.82 258.21a1.6 1.6 0 0 1-1.32-1c-.25-.58-1.38-4.2.72-18.07a1.66 1.66 0 0 1 3.28.49c-2 13-1 16.22-.93 16.35a1.68 1.68 0 0 1-1 2.1 1.78 1.78 0 0 1-.75.13ZM659.78 288.06a1.65 1.65 0 0 1-1.47-1.82 175.66 175.66 0 0 0-.31-30.34 1.66 1.66 0 0 1 3.3-.29c1.64 18.36.4 30.47.35 31a1.65 1.65 0 0 1-1.87 1.45ZM680.45 268.09a1.65 1.65 0 0 1-1.47-1.77c0-.09.64-10.17-3.89-33.53a1.66 1.66 0 1 1 3.25-.63c4.63 23.89 4 34 3.94 34.4a1.66 1.66 0 0 1-1.77 1.53ZM687.62 302.07a1.63 1.63 0 0 1-.56-.16 1.65 1.65 0 0 1-.75-2.22c10.42-21 8.66-48.44 8.64-48.71a1.66 1.66 0 1 1 3.31-.23c.08 1.16 1.85 28.59-9 50.41a1.64 1.64 0 0 1-1.64.91ZM706 266.55l-.28-.05a1.66 1.66 0 0 1-1.14-2.05 53.6 53.6 0 0 0 .23-23.28 1.66 1.66 0 0 1 3.24-.69 55.89 55.89 0 0 1-.29 24.88 1.64 1.64 0 0 1-1.76 1.19ZM717.7 288.63a1.52 1.52 0 0 1-.75-.27 1.66 1.66 0 0 1-.44-2.3c.11-.16 10.78-16.18 8-36.75a1.66 1.66 0 0 1 3.28-.45 60 60 0 0 1-8.5 39.06 1.65 1.65 0 0 1-1.59.71ZM728.93 287.21a1.74 1.74 0 0 1-.8-.3 1.67 1.67 0 0 1-.37-2.32c7-9.59 9.52-21.34 9.55-21.46a1.66 1.66 0 1 1 3.24.69 67.24 67.24 0 0 1-10.1 22.72 1.66 1.66 0 0 1-1.52.67Z"/><rect width="229.11" height="158.81" x="726.78" y="523.82" fill="#5e3f43" rx="6.65"/><rect width="229.11" height="158.81" x="720.44" y="523.82" fill="#83575c" rx="6.65"/><rect width="150.35" height="220.66" x="759.82" y="492.89" fill="#a16970" rx="4.65" transform="rotate(90 835 603.22)"/><rect width="205.54" height="32.26" x="732.23" y="534.57" fill="#7ec4b3" rx="4.01"/><path fill="#e87166" d="M807.7 578.82h54.59v90.57H807.7z"/><path fill="#fed5b4" d="M873.23 578.82h54.59v90.57h-54.59z"/><path fill="#f0a565" d="M742.18 578.82h54.59v90.57h-54.59z"/><path fill="#f58765" d="M884.71 619.06c1.45 9.05 0 13.51-3.14 18.7s-4.34 12.54-4.34 12.54l51.62 20.14c-4.22-14.83-18.33-23.64-22.31-32.56a40.07 40.07 0 0 1-3.14-18Z"/><path fill="#2c1913" d="M838.28 401.39c15.31-6.75 9.89-16 6.63-33s-7.84-27.74-20.74-23.28-18 8.56-18.21 18 6.15 30.39.84 40.76-7 12.18-5.3 11.58 36.78-14.06 36.78-14.06Z"/><path fill="#f58765" d="M812.71 517.84c3.7 7.88 3.78 15-2.09 16.33s-12.38 5.62-13 4 5.95-4.11 6.19-4.43-9.09.16-11.58 2.9-5.63 6.67-6.51 5.87c-1.45-2.58-1.29-7.24 3.78-10.45s10-4.27 12.06-6.12 2.33-6.11 2.33-6.11Z"/><path fill="#7585a9" d="M864 468.56c4.5 9.33 7.71 21.87 7.71 21.87 26.7 2.41 54.67 20.9 56.28 27.17s-4 33.13-18.17 59.34c-2.09 22-3.7 47.91-3.7 47.91-22.67.65-25.24-2.25-25.24-2.25S874 553 871.4 551.53s-58.85-31.35-59.81-34.25-9.17-5.79-3.54-21.22 7.4-17.53 9-28.3 2.9-18 5-17.85 42.13 8.2 42.13 8.2Z"/><path fill="#2c1913" d="M863.52 461.65c-25.24 3.53-43.09 2.25-43.09 2.25s.64-10.78 1.61-10.94 38.27-.16 38.27-.16Z"/><path fill="#fff" d="M862.08 456.34a270.23 270.23 0 0 1-40.85 1l-9.16-45.83 2.45-9.85h19.1l9.12-1.31 12.42 7.58Z"/><path fill="#bde6f6" d="M814.52 401.63c12 23 20.7 65.16 15.24 69.83s-24.12 2.89-24.44 3.53-2.74 3.7 1 9.81 8.84 30.07 7.88 33.29-8.68 5.3-11.74 3.85-20.9-10.45-22.67-32.31S782 428.68 794.54 416c13.99-14.17 19.98-14.37 19.98-14.37ZM842.74 400.36c11.3 14.82 15.16 43.28 15.16 56.3s3.85 17.37 7.39 15.6 3.38-7.72 3.38-7.72c9.65 3.54 28.14-.48 40.68-9.65s16.72-25.08 16.72-25.08L919 420s-28.14 15.12-29.91 13.83-17.53-18-27.82-24.92-11.49-8.4-18.53-8.55Z"/><path fill="#f58765" d="M820 351.7c6.87 8.45.12 18.39-1 19.78s-1.08 1.93-1.08 1.93c-2.23-3.92-4.89-3-5.67-.36s2.29 6.81 6.63 6.81c2.9 6.52 3.56 17.91 2.11 19.48s-6.45 2.11-6.45 2.29c4.83 3.32 11.7 14 21.05 11.7s7.17-13 7.17-13c-6-.9-8.5-3.37-8.92-5.84a50.27 50.27 0 0 1-.37-6.94c2.36 0 5.91-2.71 6.52-7.29s1.2-14.54-1.21-20.45-8.26-10.13-11.82-8.74a13.13 13.13 0 0 1-6.96.63Z"/><path d="M868 463.89a.16.16 0 0 0 .15-.16c0-.14-.36-14.12-.36-25.8 0-6.14-2.16-10.19-4.44-14.48-2.07-3.88-4.2-7.89-4.61-13.63a.15.15 0 0 0-.16-.14.14.14 0 0 0-.14.16c.41 5.81 2.56 9.85 4.64 13.76 2.26 4.25 4.4 8.26 4.4 14.33 0 11.69.36 25.67.36 25.81a.15.15 0 0 0 .16.15ZM891.1 440.13a.15.15 0 0 0 .12-.18 12.49 12.49 0 0 0-1.75-4.49 7.19 7.19 0 0 1 3.75 4 .14.14 0 0 0 .19.09.16.16 0 0 0 .1-.19 7.1 7.1 0 0 0-4.29-4.26.21.21 0 0 0-.22.08.2.2 0 0 0 0 .21 12.08 12.08 0 0 1 2 4.61.15.15 0 0 0 .1.13Z" style="mix-blend-mode:multiply" fill="#bfbfbf"/><path fill="#2c1913" d="M833.82 373.32c1.63-.34 3.61-.82 3.73-1.19 0-.16-.09-.29-.68-.85-1.65-1.57-6-5.74-3.67-10.22a.16.16 0 0 0-.06-.21.15.15 0 0 0-.21.07c-2.5 4.69 2 9 3.73 10.58.24.23.48.45.57.56a18.27 18.27 0 0 1-3.47 1 .15.15 0 0 0-.12.18.15.15 0 0 0 .18.08ZM831 378.1a16.48 16.48 0 0 0 7.6-1.66.15.15 0 0 0 .07-.21.16.16 0 0 0-.21-.06c-5 2.65-11.47 1.27-11.53 1.25a.16.16 0 0 0-.19.12.16.16 0 0 0 .12.18 21.25 21.25 0 0 0 4.14.38Z"/><path d="M833.47 383.37a7.7 7.7 0 0 0 3-.65.16.16 0 0 0-.12-.29 6.91 6.91 0 0 1-3.41.6.15.15 0 0 0-.18.13.15.15 0 0 0 .13.17 2.84 2.84 0 0 0 .58.04ZM832.79 387.8a.16.16 0 0 0 .16-.14.16.16 0 0 0-.14-.17c-8.74-.83-12.51-6.63-12.55-6.68a.14.14 0 0 0-.21-.05.14.14 0 0 0 0 .21c0 .06 3.88 6 12.78 6.82ZM816.81 377.24a.15.15 0 0 0 .16-.13.15.15 0 0 0-.14-.17 1.31 1.31 0 0 1-1.23-1 2 2 0 0 1 .93-2 .15.15 0 0 0 .06-.19c-.37-.8-1-1.67-1.83-1.68-.37 0-.89.17-1.34 1.07a.15.15 0 0 0 .07.21.14.14 0 0 0 .2-.07c.21-.42.56-.91 1.06-.9s1.09.54 1.51 1.38a2.23 2.23 0 0 0-1 2.21 1.58 1.58 0 0 0 1.49 1.19Z" style="mix-blend-mode:multiply" fill="#e0b3a8"/><path d="M807.57 430.29a.16.16 0 0 0 .14-.17 38.72 38.72 0 0 0-7.59-18.57.15.15 0 1 0-.24.18 38.39 38.39 0 0 1 7.52 18.41.17.17 0 0 0 .17.15ZM805.32 472.9a.16.16 0 0 0 .15-.12c0-.13 3.24-12.94 5.46-19.61a.15.15 0 0 0-.1-.19.15.15 0 0 0-.19.1c-2.23 6.68-5.44 19.5-5.47 19.62a.15.15 0 0 0 .11.19ZM909.67 576.29a.15.15 0 0 0 .15-.14c0-.26 3.35-26.2.73-37.44S859 503 856 501.43c-.12-1.61-1.92-24.39-5.47-32a.15.15 0 0 0-.21-.07.15.15 0 0 0-.07.2c3.64 7.76 5.43 31.7 5.45 32a.16.16 0 0 0 .09.12c.52.26 51.9 26 54.51 37.12s-.7 37.07-.73 37.33a.17.17 0 0 0 .13.18ZM873.46 553.13c-.17 0-.36-.08-.41-.25s.09-.36.4-.72a15.46 15.46 0 0 0 3.27-6.22.15.15 0 0 1 .19-.1.15.15 0 0 1 .11.19 15.76 15.76 0 0 1-3.34 6.34 3.23 3.23 0 0 0-.33.41l.17.05c1.13.22 4-1.65 4-1.67a.15.15 0 0 1 .21 0 .16.16 0 0 1 0 .22c-.11.07-2.62 1.73-4 1.73a1.06 1.06 0 0 1-.27.02Zm-.12-.33Z" style="mix-blend-mode:multiply" fill="#bfbfbf"/><path d="M785.88 542.1a.15.15 0 0 0 .12-.1c.27-1.48 2.24-4.57 7-8.84a.14.14 0 0 0 0-.21.15.15 0 0 0-.22 0c-6 5.43-6.91 8.27-7 9a.16.16 0 0 0 .12.18ZM838.16 376.43c-1.51-2.24-9.53.3-10.49 1.14 4.82 4.89 8.92 4.28 10.49-1.14Z" style="mix-blend-mode:multiply" fill="#e0b3a8"/><path fill="#2c1913" d="M824.35 368.44c0 1.31.63 2.38 1.42 2.38s1.41-1.07 1.41-2.38-.63-2.39-1.41-2.39-1.42 1.07-1.42 2.39ZM834.12 366.63c0 1.31.63 2.38 1.42 2.38s1.41-1.07 1.41-2.38-.63-2.38-1.41-2.38-1.42 1.06-1.42 2.38ZM827.61 362.5c-5.19 1.08-7.06 3.13-7.06 3.13 2.35-4.46 6.63-4.1 7.06-3.13ZM838.22 360.57a5.8 5.8 0 0 0-4.7.18c1.68-2.84 4.22-1.75 4.7-.18ZM877.23 650.3a45 45 0 0 1 3.14-10.3c5.83 4.09 15.28 9.84 18.69 6.76s4.06-7.85 7.48-8.92c4 8.92 18.09 17.73 22.31 32.56Z"/><path fill="#f58765" d="M919 420c.08-4.86 1.53-7.76 3.7-10.17s3-12.9 3-12.9c3.26 2.05 2 6 1.69 10.73s3.26 14.35 3.26 14.71a13.42 13.42 0 0 1-4.59 7.84Z"/><path fill="#63ab99" d="M940.63 323.44h30.52v50.01h-30.52z"/><path fill="#e87166" d="M966.93 323.44h-22.07v-42.66l22.07 18.8v23.86z"/><path fill="#7ec4b3" d="M983.8 359.85h-55.81l-1.88 147.84h59.57l-1.88-147.84z"/><rect width="7.54" height="7.54" x="969.81" y="366.72" rx="1.78" style="mix-blend-mode:screen" fill="#404040"/><rect width="7.54" height="30.12" x="969.81" y="377.05" rx="1.78" style="mix-blend-mode:screen" fill="#404040"/><path fill="#f58765" d="M255.45 518.45c-37.18 2.84-65.65 6.51-68.34 4-7.09-5.33-15.32-5.77-20.17-3.82l-4.31 45.3c9.65-7.18 16.92-20.12 21.74-23.63s70.36 5.7 70.36 5.7Z"/><path fill="#2c1913" d="M184.37 540.31a4.23 4.23 0 0 1 1.62-.52c-2-4.9-9.06-4.74-11.24-9-2.09-4.07 4-9.26 6.93-11.46-5.54-2.3-11.1-2.18-14.74-.72l-4.31 45.3c9.65-7.15 16.92-20.09 21.74-23.6Z"/><path fill="#f58765" d="M328.59 595.16c6.35 36.75 12.71 64.74 10.48 67.65-4.64 7.56-4.3 15.8-1.89 20.44h45.5c-8.07-8.93-21.64-14.94-25.58-19.41s-1-70.57-1-70.57Z"/><path fill="#7585a9" d="M359.5 429.05c12.71 27.54 16 107.73 16 133.48s-2.06 46.88-14.94 44.82-24.76-11.35-37.12-5.15-18.55 1-26.79-2.06-7.73-1-18-4.64-25.75-2.06-27.3-10.3-7.21-11.33-11.85-19.06-.51-12.36-2.06-19.06-9.79-10.82-8.76-19.06 2.58-11.33 8.76-11.85 24.73 3.61 29.36-4.12 16-34 28.34-52a258 258 0 0 1 25.37-31.29l13.78-4.25Z"/><path fill="#2c1913" d="m321.89 424.22-1.41 4.51c24.6 3.86 39 .32 39 .32L358 424s-17.32-3.15-18.86-3.15-17.25 3.37-17.25 3.37Z"/><path fill="#f58765" d="M356.28 364.59c12.62 6.57 40.44 29.11 44.43 26.4s28.59-26.27 29.11-28.72-1-6.95.51-12.62.65-8.24 1.29-8.24c2.45 1.42 2.45 3.35 2.32 5.41s-.13 4.38 1.67 2.83 10.82-14.42 12.62-13.26-8 11.59-5.79 11.72 8.5-10.18 10.43-9.53-.26 3.34.13 3.34c.9 2.84-4.64 11.6-3 10.44s5.4-5.93 5.28-4.25-5.8 13-10.95 14.94-4.9.51-7.6 5.15-26.23 42.8-31 43.8-46-15.06-46-15.06Z"/><path fill="#bde6f6" d="M328.93 360.77a39.66 39.66 0 0 0-12.7 2.66s-6.7 35.68-5.41 36.71c10 14.81 11.07 24.08 11.07 24.08C344.43 427.05 358 424 358 424c0-6.44 8.89-23 9-26.66s-10.69-32.71-10.69-32.71l-6.4-1.93h-12.56Z"/><path fill="#f58765" d="M314.91 363.76c-13.24 11.34-22.38 34.83-22.38 34.83-11.46-18.54-23.18-30.39-23.18-31.81s4-9.59 3.35-12.56-2.06-5.53-1.55-8.05 1-3.86-.25-3.47-2.58 3-3 7.21-1.61 4.51-2.57 2.7-6.06-15.84-7.67-16.22 3 13.78 1.68 13-5.86-12.81-7.54-12.42-.51 4.38-1 4c-2.51-.26-1.61 4.64-.26 8.82s2.32 7.41-.26 4.31-4.12-5.53-5-4.5 5.15 13 7.86 15.71 8.95 6.7 9.53 8.18 10.75 32.71 19.12 42.88 12.75 12 16.23 10.18 16.48-26.53 16.87-26.66c8.55-12.71 12.28-27.82 4.44-35.95a3.28 3.28 0 0 0-4.42-.18Z"/><path fill="#2c1913" d="M335 306.34c22-2.41 28.59 14.51 28.5 23.78s-.42 31.42-17.85 31S323 356 323 356a12.13 12.13 0 0 0 3.26-8c-2.83 5.58-6 6.95-6 6.95l-2.06-1.11c1.38-2.84 5.07-6 5.07-6-4.64 2.49-6 5.06-6 5.06-8.07-3.95-10.22-9.79-10.22-9.79 5.84-2.06 10.56-6.86 13.39-16.22s4.8-18.84 14.56-20.55Z"/><path fill="#f58765" d="M340.18 313.81c2.62 6.74.09 12.1 1.12 12.45s7.51-.39 7.77-2.19c-.13 1.28-.52 1.58-.52 1.58 4.42-.42 2.71-13.43 2.71-13.43 4.08 7.34 3.22 12.06 3.22 12.06.68 0 2.1-4.72 2.87-.86a51.39 51.39 0 0 1 .09 15.54c-.77 5.84-5.5 11.77-9.62 12.11-1.8 9.1 2.06 11.59 2.06 11.59 1 4.64 1.21 12.1-8.24 10.82s-12.71-12.71-12.71-12.71c7.65-1.46 7-13.74 6.53-15.54a60 60 0 0 0-2.83-6.35c-4.81 3.43-9.62-3.35-8.42-6.87s6.27-3.09 7.39.86c4.98-5.67 8.58-19.06 8.58-19.06Z"/><path fill="#2c1913" d="M348 341.45a24.56 24.56 0 0 1-6.56-1 .16.16 0 0 1-.12-.2.15.15 0 0 1 .2-.11c8.41 2.31 12.83-.43 12.88-.45a.17.17 0 0 1 .23 0 .17.17 0 0 1-.05.22 12.84 12.84 0 0 1-6.58 1.54ZM348.08 338.44a.16.16 0 0 1-.16-.14.17.17 0 0 1 .14-.19 9.34 9.34 0 0 0 2.25-.52c-.45-.66-3.91-6.11.44-11.1a.16.16 0 0 1 .24.22c-4.43 5.09-.43 10.68-.38 10.73a.24.24 0 0 1 .05.24c-.13.34-1.46.6-2.56.76Zm2.28-.79Z"/><path d="M330 338.14a3.51 3.51 0 0 1-2.94-1.25 1.65 1.65 0 0 1-.12-1.88c.5-.82 1.69-1.17 3.26-1a4.17 4.17 0 0 0-3-2.3 1.25 1.25 0 0 0-1.36 1.08.18.18 0 0 1-.21.12.17.17 0 0 1-.11-.2 1.59 1.59 0 0 1 1.7-1.33 4.35 4.35 0 0 1 3.39 2.81.19.19 0 0 1-.05.14.18.18 0 0 1-.14 0c-1.53-.24-2.72.05-3.17.78a1.34 1.34 0 0 0 .11 1.52c.55.77 1.91 1.43 4.08.94a.16.16 0 0 1 .19.13.15.15 0 0 1-.12.19 6.85 6.85 0 0 1-1.51.25ZM347.14 351.19c-.06 0-6.73-.11-10.3-5.44a.16.16 0 0 1 0-.23.16.16 0 0 1 .23.05c3.47 5.19 10 5.29 10 5.29a.17.17 0 0 1 .16.17.16.16 0 0 1-.09.16ZM348.31 347.16a6 6 0 0 1-2.18-.45.16.16 0 0 1-.09-.21.16.16 0 0 1 .21-.09c3.06 1.18 4.43-.48 4.49-.55a.16.16 0 1 1 .26.2 3.47 3.47 0 0 1-2.69 1.1ZM256 352.46a.16.16 0 0 1-.16-.13 71.48 71.48 0 0 0-4-9.89.16.16 0 0 1 .08-.21.16.16 0 0 1 .22.08 70.28 70.28 0 0 1 4 9.94.16.16 0 0 1-.12.2ZM255 354h-.09a.15.15 0 0 1-.05-.22 5.87 5.87 0 0 1 3-1.94.15.15 0 0 1 .2.11.16.16 0 0 1-.1.21 5.57 5.57 0 0 0-2.81 1.8.16.16 0 0 1-.15.04ZM263.68 362.31h-.07a25.53 25.53 0 0 0-9.08-2.43.15.15 0 0 1-.15-.17.17.17 0 0 1 .17-.16 26.05 26.05 0 0 1 9 2.36c.13-.95.74-4.49 2.37-5.36a.17.17 0 0 1 .23.06.18.18 0 0 1-.07.23c-1.71.91-2.23 5.3-2.23 5.34a.18.18 0 0 1-.09.13ZM445.75 359.25a.17.17 0 0 1-.13-.07s-1.16-1.5-7.66-.35a.14.14 0 0 1-.13 0 .16.16 0 0 1-.06-.12 10.34 10.34 0 0 0-4.25-7 .17.17 0 0 1 0-.23.16.16 0 0 1 .23 0 10.61 10.61 0 0 1 4.36 7.08c6.64-1.13 7.78.46 7.82.52a.16.16 0 0 1-.05.23.14.14 0 0 1-.13-.06ZM446.56 350.72a.14.14 0 0 1-.09 0 .16.16 0 0 1-.05-.23 83.71 83.71 0 0 1 5.68-7.32.17.17 0 1 1 .25.23 79.66 79.66 0 0 0-5.66 7.28.17.17 0 0 1-.13.04ZM447 352.52a.15.15 0 0 1-.14-.07 9 9 0 0 0-2.19-1.93.17.17 0 0 1 0-.23.16.16 0 0 1 .23 0 9.15 9.15 0 0 1 2.27 2 .17.17 0 0 1 0 .23ZM342.92 340.7a43.51 43.51 0 0 1 10.82-.51c-3.03 4.5-6.86 4.21-10.82.51Z" style="mix-blend-mode:multiply" fill="#e0b3a8"/><path fill="#2c1913" d="M343.34 331.14c0 1.24-.59 2.25-1.31 2.25s-1.3-1-1.3-2.25.58-2.25 1.3-2.25 1.31 1 1.31 2.25ZM354.7 330.78c0 1.25-.58 2.26-1.3 2.26s-1.31-1-1.31-2.26.59-2.25 1.31-2.25 1.3 1.01 1.3 2.25ZM351.58 326.18c4.76-.42 6.05.58 6.05.58a5 5 0 0 0-6.05-.58ZM334.51 329.14c3.51-1.83 9.95-2.32 10.05-2.28-4.96-.68-7.63.51-10.05 2.28Z"/><circle cx="320.01" cy="444.74" r="2.75" fill="#bde6f6"/><circle cx="343.44" cy="437.78" r="2.75" fill="#bde6f6"/><path fill="#bde6f6" d="M339.75 457.36a2.75 2.75 0 1 1-2.75-2.75 2.75 2.75 0 0 1 2.75 2.75ZM361.13 467.92a2.75 2.75 0 1 1-2.75-2.75 2.75 2.75 0 0 1 2.75 2.75ZM340.78 486.21a2.75 2.75 0 1 1-2.74-2.75 2.74 2.74 0 0 1 2.74 2.75ZM311.16 466.89a2.75 2.75 0 1 1-2.75-2.75 2.75 2.75 0 0 1 2.75 2.75Z"/><circle cx="289.61" cy="490.33" r="2.75" fill="#bde6f6"/><path fill="#bde6f6" d="M313.48 488a2.75 2.75 0 1 1-2.75-2.75 2.75 2.75 0 0 1 2.75 2.75ZM317.34 514.28a2.75 2.75 0 1 1-2.74-2.75 2.75 2.75 0 0 1 2.74 2.75Z"/><circle cx="351.69" cy="510.16" r="2.75" fill="#bde6f6"/><path fill="#bde6f6" d="M362.68 527.42a2.75 2.75 0 1 1-2.75-2.75 2.75 2.75 0 0 1 2.75 2.75Z"/><circle cx="331.6" cy="532.05" r="2.75" fill="#bde6f6"/><circle cx="341.9" cy="562.45" r="2.75" fill="#bde6f6"/><circle cx="366.11" cy="558.33" r="2.75" fill="#bde6f6"/><circle cx="363.02" cy="592.33" r="2.75" fill="#bde6f6"/><circle cx="314.85" cy="584.6" r="2.75" fill="#bde6f6"/><path fill="#bde6f6" d="M315.54 547a2.75 2.75 0 1 1-2.75-2.74 2.75 2.75 0 0 1 2.75 2.74ZM295.19 529.22a2.75 2.75 0 1 1-2.74-2.75 2.75 2.75 0 0 1 2.74 2.75Z"/><circle cx="259.99" cy="527.68" r="2.75" fill="#bde6f6"/><path fill="#bde6f6" d="M252.69 547.51a2.75 2.75 0 1 1-2.74-2.75 2.75 2.75 0 0 1 2.74 2.75ZM279.74 551.89a2.75 2.75 0 1 1-2.75-2.75 2.75 2.75 0 0 1 2.75 2.75ZM271.5 574.3a2.75 2.75 0 1 1-2.75-2.75 2.75 2.75 0 0 1 2.75 2.75Z"/><circle cx="291.93" cy="583.83" r="2.75" fill="#bde6f6"/><path fill="#2c1913" d="M357.1 663.84a3.92 3.92 0 0 1-.67-1.55c-4.7 2.45-3.86 9.46-7.88 12-3.85 2.47-9.59-3.09-12.06-5.81-1.76 5.73-1.12 11.25.69 14.74h45.5c-8.07-8.9-21.68-14.91-25.58-19.38Z"/></g></svg>