<svg xmlns="http://www.w3.org/2000/svg" enable-background="new 0 0 1364 960" viewBox="0 0 1364 960"><path fill="#8986ce" d="M278.35,667.17c3.07,4.41,4.52,10.27,4.52,10.27s5.5,14.02,6.57,27.52c0.34,4.78,0.94,12.08-1.67,20.69    c-0.31,0.9-0.61,1.79-0.92,2.69c-0.32,0.88-0.68,1.74-1.12,2.56c-0.3,0.64-0.59,1.27-0.92,1.88c-0.15,0.34-0.31,0.65-0.49,0.97    c-5.54,10.43-13.82,16.39-17.06,18.57c-3.16,2.03-14.69,9.03-30.03,8.31c-9.49-0.45-22.35-3.82-22.88-9.81    c-0.03-1.16,0.32-2.26-0.36-3.58c-1.26-2.68-4.78-2.86-9.42-3.54c-8.59-1.25-12.9-1.81-14.97-4.09    c-0.99-1.02-2.23-4.06-4.71-10.06c-1.72-4.16-1.66-4.46-2.35-5.07c-3.54-2.91-8.64,2.35-16.22,1.68    c-5.81-0.55-11.93-4.46-13.8-9.94c-1.05-3.25,0.16-4.52-1.09-10.85c-0.9-4.47-1.41-6.77-2.77-8.61    c-5.32-7.17-18.6,0.11-22.46-6.19c-1.9-3.11-0.7-8.19,0.44-13.05c1.24-4.94,2.57-5.95,2.84-8c1.69-11.72-36.7-20.17-35.43-25.55    c0.99-4.09,26.22-9.06,43.03-5.65c2.6,0.58,7.63,1.83,12.62-0.87c5.78-3.07,5.7-8.3,9.94-9.53c2.15-0.57,3.69,0.31,17.32,9.16    c4.34,2.85,7.34,4.83,9.48,3.51c2.1-1.28,1.76-4.79,4.79-6.54c0.46-0.32,1.55-0.84,3.54-0.77c6.6,0.08,13.83,6.09,17.3,9.11    c6.98,6.01,10.01,9.66,11.82,8.59c1.75-1.14,0.06-5.3,2.8-8.05c1.98-1.9,5.11-1.94,7.08-1.54c2.8,0.6,4.33,2.68,8.25,9.29    c4.03,6.78,4.42,7.96,6.7,11.47c3.82,6.1,7.32,11.64,10.19,10.76c2.59-0.79,2.04-5.86,6.38-8.77c0.18-0.13,3.52-2.29,7.09-1.54    C274.74,663.09,276.81,664.96,278.35,667.17z"/><path fill="#fff" d="M268.29,683.31c3.72,2.94,2.42,8.37,2.27,12.46c-0.15,3.89,0.03,7.79,0.53,11.65    c0.95,7.36,3.11,14.52,6.28,21.22c-0.03-0.01-0.05-0.03-0.08-0.04c-7.66-3.95-15.7-7.27-23.53-10.68    c-8.07-3.51-16.13-7.2-23.64-11.84c-6.26-3.88-11.77-8.58-17.12-13.52c0,0-0.01-0.01-0.01-0.01c-1.42-8.06,0.43-16.13-0.28-24.21    c-0.62-7.08-4.31-14.72-11.89-16.26c-0.67-0.14-0.8,0.92-0.13,1.06c8.02,1.63,10.9,10.38,11.08,17.57    c0.18,6.92-0.96,13.79-0.02,20.68c-0.01-0.01-0.02-0.02-0.03-0.02c-0.63-0.59-1.26-1.17-1.89-1.76    c-5.12-4.81-10.38-9.56-16.58-12.92c-4.29-2.35-8.76-4.3-13.28-6.1c-1.77-7.47-5.77-14.68-11.62-19.71    c-0.52-0.45-1.17,0.4-0.65,0.85c5.45,4.69,9.26,11.41,11.03,18.36c-0.23-0.1-0.47-0.17-0.7-0.27    c-10.86-4.26-21.99-7.97-33.23-11.07c-0.98-0.26-1.98-0.54-2.98-0.79c-0.65-0.17-1.05,0.81-0.4,0.99    c10.67,2.75,21.2,6.22,31.52,10.07c5.48,2.05,10.92,4.23,16.21,6.77c1.21,0.6,2.39,1.2,3.52,1.87c0,0,0,0,0,0    c-2.69,3-6.94,3.02-10.67,3.28c-3.29,0.23-6.51,0.9-9.59,2.07c-6.1,2.3-11.45,6.37-15.29,11.63c-0.4,0.55,0.44,1.2,0.85,0.65    c4.08-5.58,9.87-9.75,16.46-11.85c3.39-1.09,6.79-1.32,10.31-1.6c3.3-0.26,6.62-1.01,8.87-3.61c0.01-0.01,0-0.02,0.01-0.03    c0,0,0,0,0.01,0c3.61,2.1,6.95,4.54,10.17,7.33c6.54,5.71,12.46,12.09,19.47,17.24c6.83,5.01,14.37,8.98,22.04,12.53    c0.65,0.31,1.32,0.6,1.98,0.89c0,0,0,0,0.01,0c-7.83,4.73-16.1,9.64-25.49,10.03c-2.17,0.09-4.34-0.1-6.46-0.57    c-2.05-0.46-4.07-1.16-6.19-1.26c-3.96-0.18-7.27,2.05-10.35,4.25c-0.56,0.4,0.09,1.25,0.65,0.85c1.76-1.26,3.56-2.54,5.59-3.33    c2.08-0.81,4.17-0.84,6.35-0.38c2.14,0.44,4.2,1.12,6.37,1.37c1.96,0.23,3.95,0.21,5.91,0.01c8.98-0.91,16.89-5.65,24.45-10.22    c0.13-0.08,0.17-0.18,0.2-0.29c0.01,0,0.01,0,0.02,0.01c9.93,4.47,20.16,8.47,29.78,13.56c0.03,0.02,0.06,0.03,0.09,0.05    c0.08,0.06,0.15,0.12,0.24,0.13c0.01,0.01,0.02,0.01,0.03,0.02c1.99,1.06,3.95,2.15,5.85,3.33c0.19-0.31,0.34-0.63,0.49-0.97    c-1.95-1.19-3.93-2.29-5.93-3.36c0,0-0.01-0.01-0.01-0.01c-3.7-7.48-6.07-15.56-6.93-23.86c-0.44-4.23-0.45-8.47-0.14-12.71    c0.27-3.7,0.33-7.85-2.86-10.38C268.4,682.04,267.75,682.89,268.29,683.31z"/><path fill="#ffa9d0" d="M248.12,648.36c-2.28-1.82-2.1-5.57-0.27-7.82c1.83-2.26,4.79-3.28,7.66-3.79c4.65-0.82,9.05-0.57,13.63-0.11   c-3.79-2.19-7.49-4.52-11.11-6.96c-2.39-1.61-4.75-3.28-7.08-5c-4.12,5.09-9.78,8.93-16.05,10.83c-2.38,0.72-5.2,1.09-7.13-0.46   c-2.26-1.81-2.09-5.57-0.26-7.82c1.82-2.26,4.77-3.29,7.62-3.79c4.8-0.85,9.33-0.55,14.08-0.06c-7.1-5.38-13.83-11.25-20-17.67   c-4.84,4.27-10.95,7.09-17.35,7.96c-2.46,0.34-5.3,0.26-6.97-1.58c-1.95-2.15-1.18-5.83,0.98-7.77c2.16-1.94,5.23-2.49,8.13-2.54   c4.7-0.08,8.99,0.86,13.43,2.04c-6.39-6.87-12.4-14.58-15.83-23.34c-0.07-0.18-0.13-0.37-0.2-0.55   c-5.44,3.61-11.96,5.57-18.49,5.52c-2.48-0.02-5.29-0.5-6.67-2.56c-1.62-2.41-0.33-5.93,2.08-7.55c2.41-1.61,5.53-1.72,8.41-1.35   c5.07,0.65,9.49,2.41,14.11,4.42c-3.69-10.23-5.51-21.18-9.54-31.27c-5.49,3.73-12.13,5.76-18.77,5.71   c-2.48-0.02-5.29-0.5-6.67-2.56c-1.62-2.41-0.33-5.93,2.08-7.55c2.41-1.61,5.53-1.72,8.41-1.35c5.21,0.66,9.73,2.51,14.48,4.58   c-1.05-2.5-2.25-4.95-3.67-7.31c-2.87-4.78-6.73-8.9-11.2-12.31c-4.37,5.2-10.38,9-16.96,10.7c-2.4,0.62-5.24,0.87-7.11-0.76   c-2.19-1.91-1.85-5.65,0.06-7.83c1.91-2.18,4.9-3.08,7.77-3.47c5.27-0.71,10.17-0.06,15.38,0.72c-7.33-5.35-16.17-8.82-24.94-10.16   c-4.51,4.2-10.21,7.11-16.27,8.27c-2.44,0.47-5.28,0.54-7.05-1.21c-2.06-2.04-1.49-5.75,0.56-7.81c2.05-2.05,5.09-2.77,7.98-2.97   c4.62-0.32,8.89,0.36,13.31,1.28c0.16-0.06,0.34-0.08,0.54-0.05c7.48,0.98,14.73,3.49,21.32,7.15c1.45,0.81,2.88,1.67,4.28,2.59   c-3.4-4.94-5.44-10.81-5.78-16.8c-0.14-2.48,0.16-5.31,2.12-6.83c2.29-1.77,5.9-0.72,7.67,1.58c1.77,2.3,2.08,5.4,1.9,8.3   c-0.33,5.4-1.96,10.15-3.78,15.21c2.85,2.05,5.5,4.37,7.78,7.03c3.46,4.03,6,8.55,8.02,13.32c-0.9-6.12-0.06-12.49,2.44-18.15   c1-2.27,2.56-4.65,5-5.11c2.85-0.53,5.58,2.05,6.1,4.91c0.52,2.85-0.62,5.76-2.1,8.25c-2.84,4.78-6.58,8.33-10.63,12.1   c3.11,7.97,4.98,16.55,7.39,24.67c0.76,2.56,1.58,5.07,2.54,7.53c-1.31-6.59-0.56-13.57,2.15-19.71c1-2.27,2.56-4.65,5-5.11   c2.85-0.54,5.58,2.05,6.11,4.9c0.53,2.85-0.61,5.76-2.09,8.25c-2.9,4.89-6.74,8.5-10.89,12.38c1.05,2.61,2.26,5.15,3.73,7.59   c2.69,4.47,5.88,8.62,9.31,12.55c0.91,1.04,1.84,2.07,2.78,3.09c-1.75-5.83-1.87-12.15-0.3-18.04c0.64-2.4,1.82-4.99,4.16-5.82   c2.74-0.96,5.83,1.17,6.78,3.91c0.96,2.74,0.27,5.78-0.8,8.48c-1.99,4.98-5,8.95-8.27,13.13c6.03,6.27,12.65,11.98,19.59,17.22   c-3.27-5.45-4.93-11.86-4.69-18.21c0.09-2.48,0.66-5.27,2.77-6.59c2.45-1.55,5.94-0.15,7.48,2.31c1.54,2.46,1.55,5.58,1.1,8.44   c-0.86,5.44-3,10.08-5.34,15.03c0.93,0.69,1.86,1.37,2.79,2.04c5.13,3.68,10.45,7.14,15.95,10.29c-3.1-5.36-4.67-11.6-4.44-17.78   c0.09-2.48,0.66-5.27,2.76-6.59c2.45-1.55,5.94-0.15,7.48,2.31c1.54,2.46,1.55,5.58,1.09,8.44c-0.84,5.29-2.88,9.82-5.15,14.62   c6.31,3.52,12.84,6.63,19.58,9.18c1.4,0.53,0.48,2.67-0.92,2.14c-6.81-2.58-13.4-5.73-19.77-9.29c-4.14,5.11-9.85,8.96-16.17,10.87   C252.9,649.54,250.07,649.91,248.12,648.36z"/><path fill="#8986ce" d="M1051.52,637.54c-3.49,3.54-5.73,8.66-5.73,8.66s-7.21,11.93-10.3,24.07c-1.06,4.3-2.74,10.87-1.72,19.13    c0.14,0.86,0.28,1.73,0.42,2.6c0.16,0.86,0.35,1.69,0.62,2.51c0.17,0.63,0.34,1.25,0.55,1.86c0.09,0.34,0.18,0.64,0.3,0.96    c3.42,10.38,10.04,17.1,12.65,19.6c2.56,2.35,11.98,10.53,26.09,12.28c8.73,1.07,20.98,0.01,22.39-5.36    c0.21-1.05,0.06-2.11,0.89-3.21c1.57-2.25,4.81-1.86,9.15-1.76c8.03,0.21,12.04,0.37,14.29-1.39c1.07-0.78,2.67-3.35,5.86-8.44    c2.22-3.53,2.21-3.81,2.94-4.25c3.68-2.1,7.51,3.49,14.53,4.07c5.39,0.4,11.57-2.2,14.14-6.9c1.47-2.8,0.56-4.15,2.69-9.73    c1.52-3.94,2.34-5.95,3.87-7.42c5.97-5.7,16.94,3.01,21.45-2.13c2.22-2.54,1.92-7.36,1.64-11.97c-0.35-4.7-1.41-5.83-1.34-7.74    c0.29-10.95,36.62-12.65,36.31-17.75c-0.26-3.88-22.49-12.37-38.35-11.89c-2.46,0.12-7.25,0.48-11.37-2.77    c-4.79-3.71-3.9-8.46-7.57-10.24c-1.87-0.85-3.41-0.3-17.23,5.64c-4.4,1.92-7.45,3.26-9.19,1.71c-1.72-1.49-0.86-4.64-3.34-6.71    c-0.37-0.37-1.28-1-3.11-1.26c-6.03-0.96-13.56,3.39-17.21,5.6c-7.31,4.39-10.64,7.24-12.12,5.99c-1.42-1.31,0.78-4.85-1.29-7.78    c-1.51-2.04-4.35-2.57-6.22-2.51c-2.64,0.11-4.37,1.76-8.97,7.18c-4.74,5.55-5.28,6.57-7.9,9.41c-4.44,4.97-8.49,9.47-10.97,8.22    c-2.24-1.13-0.95-5.67-4.45-9c-0.14-0.15-2.85-2.64-6.22-2.51C1055.44,634.37,1053.26,635.75,1051.52,637.54z"/><path fill="#fff" d="M1058.16,653.83c-3.85,2.1-3.52,7.26-4.02,11.01c-0.48,3.57-1.25,7.1-2.3,10.54    c-2.02,6.56-5.11,12.75-9.04,18.37c0.03-0.01,0.05-0.02,0.08-0.03c7.6-2.4,15.45-4.17,23.13-6.06c7.91-1.94,15.83-4.04,23.41-7.1    c6.32-2.56,12.07-5.99,17.73-9.65c0,0,0.01,0,0.01-0.01c2.55-7.13,2.13-14.78,4.04-22.03c1.67-6.36,6.23-12.75,13.39-12.97    c0.64-0.02,0.59,0.97-0.05,0.99c-7.57,0.23-11.56,7.76-12.86,14.29c-1.25,6.28-1.29,12.73-3.22,18.86    c0.01-0.01,0.02-0.01,0.03-0.02c0.66-0.44,1.33-0.87,2-1.31c5.43-3.59,10.96-7.1,17.14-9.19c4.28-1.47,8.66-2.55,13.06-3.49    c2.78-6.54,7.56-12.48,13.68-16.16c0.55-0.33,1,0.55,0.46,0.88c-5.7,3.43-10.23,8.96-12.93,15.02c0.23-0.05,0.45-0.09,0.68-0.14    c10.57-2.19,21.3-3.83,32.03-4.9c0.94-0.09,1.89-0.18,2.84-0.25c0.62-0.05,0.83,0.91,0.21,0.96c-10.16,0.84-20.3,2.36-30.32,4.25    c-5.32,1.01-10.62,2.15-15.84,3.64c-1.2,0.36-2.37,0.72-3.5,1.16c0,0,0,0,0,0c1.98,3.16,5.86,3.84,9.22,4.66    c2.96,0.72,5.79,1.84,8.42,3.38c5.2,3.05,9.44,7.6,12.12,13c0.28,0.57-0.59,1.03-0.88,0.46c-2.84-5.73-7.48-10.43-13.15-13.38    c-2.92-1.52-5.98-2.27-9.15-3.07c-2.96-0.75-5.88-1.96-7.53-4.68c-0.01-0.01,0-0.02,0-0.03c0,0,0,0-0.01,0    c-3.62,1.35-7.05,3.05-10.42,5.1c-6.86,4.18-13.25,9.08-20.46,12.68c-7.01,3.5-14.51,5.94-22.06,7.98    c-0.64,0.18-1.3,0.34-1.95,0.5c0,0,0,0-0.01,0c6.4,5.54,13.18,11.31,21.67,13.14c1.97,0.42,3.98,0.59,5.98,0.49    c1.94-0.1,3.89-0.42,5.84-0.18c3.64,0.46,6.31,3,8.78,5.5c0.45,0.45-0.28,1.13-0.72,0.67c-1.41-1.43-2.84-2.87-4.57-3.91    c-1.77-1.07-3.67-1.41-5.73-1.34c-2.02,0.07-4,0.36-6.03,0.25c-1.82-0.1-3.63-0.42-5.39-0.91c-8.05-2.23-14.51-7.79-20.7-13.15    c-0.1-0.09-0.13-0.19-0.14-0.29c-0.01,0-0.01,0-0.02,0c-9.75,2.52-19.71,4.57-29.28,7.7c-0.03,0.01-0.06,0.02-0.09,0.03    c-0.08,0.05-0.15,0.08-0.24,0.08c-0.01,0-0.02,0.01-0.03,0.01c-1.98,0.65-3.94,1.34-5.86,2.12c-0.12-0.32-0.21-0.62-0.3-0.96    c1.96-0.78,3.94-1.47,5.94-2.14c0,0,0.01,0,0.01,0c4.55-6.24,7.97-13.24,10.05-20.68c1.06-3.79,1.74-7.65,2.12-11.57    c0.33-3.42,0.93-7.21,4.23-9.02C1058.26,652.65,1058.72,653.52,1058.16,653.83z"/><path fill="#ffa9d0" d="M1100.23,621.47c2.11-1.68,1.94-5.15,0.25-7.24c-1.69-2.09-4.43-3.04-7.09-3.51c-4.3-0.76-8.37-0.53-12.61-0.1   c3.5-2.03,6.93-4.19,10.28-6.44c2.21-1.49,4.4-3.03,6.55-4.62c3.81,4.71,9.05,8.26,14.85,10.02c2.2,0.67,4.81,1.01,6.6-0.43   c2.09-1.68,1.93-5.15,0.24-7.24c-1.69-2.09-4.41-3.04-7.05-3.51c-4.44-0.79-8.63-0.51-13.03-0.06c6.57-4.97,12.79-10.41,18.5-16.35   c4.48,3.95,10.13,6.56,16.05,7.36c2.28,0.31,4.91,0.24,6.45-1.47c1.8-1.99,1.09-5.39-0.91-7.19c-1.99-1.8-4.84-2.3-7.52-2.35   c-4.35-0.07-8.32,0.8-12.42,1.89c5.92-6.35,11.47-13.49,14.64-21.59c0.07-0.17,0.12-0.34,0.19-0.51   c5.03,3.34,11.07,5.15,17.11,5.11c2.3-0.02,4.89-0.47,6.17-2.37c1.5-2.23,0.31-5.49-1.92-6.98c-2.23-1.49-5.11-1.59-7.78-1.25   c-4.69,0.6-8.78,2.23-13.06,4.09c3.41-9.46,5.1-19.6,8.83-28.93c5.08,3.45,11.22,5.33,17.36,5.28c2.3-0.02,4.89-0.47,6.17-2.37   c1.5-2.23,0.31-5.49-1.92-6.98c-2.23-1.49-5.11-1.59-7.78-1.25c-4.82,0.62-9,2.32-13.4,4.24c0.97-2.32,2.08-4.58,3.39-6.76   c2.65-4.42,6.23-8.23,10.36-11.39c4.04,4.81,9.61,8.33,15.69,9.9c2.22,0.57,4.85,0.81,6.58-0.7c2.02-1.76,1.71-5.23-0.06-7.24   c-1.77-2.02-4.53-2.85-7.19-3.21c-4.88-0.65-9.41-0.06-14.23,0.67c6.78-4.95,14.96-8.16,23.07-9.4c4.17,3.88,9.45,6.58,15.05,7.65   c2.26,0.43,4.89,0.5,6.52-1.12c1.91-1.89,1.38-5.32-0.52-7.22c-1.9-1.9-4.71-2.56-7.38-2.75c-4.27-0.3-8.22,0.33-12.31,1.18   c-0.15-0.05-0.31-0.07-0.5-0.05c-6.92,0.9-13.63,3.23-19.73,6.62c-1.34,0.75-2.67,1.55-3.96,2.39c3.14-4.57,5.03-10,5.35-15.54   c0.13-2.29-0.15-4.91-1.96-6.32c-2.12-1.64-5.46-0.67-7.09,1.46c-1.64,2.13-1.92,5-1.76,7.68c0.31,5,1.82,9.39,3.5,14.07   c-2.63,1.9-5.09,4.04-7.2,6.5c-3.2,3.73-5.55,7.91-7.42,12.33c0.83-5.66,0.05-11.56-2.26-16.79c-0.93-2.1-2.37-4.3-4.63-4.72   c-2.64-0.49-5.16,1.9-5.64,4.54c-0.48,2.64,0.57,5.32,1.94,7.63c2.62,4.42,6.09,7.71,9.83,11.2c-2.88,7.38-4.61,15.31-6.84,22.83   c-0.7,2.36-1.46,4.69-2.35,6.97c1.21-6.09,0.52-12.55-1.99-18.24c-0.93-2.1-2.37-4.31-4.62-4.73c-2.64-0.5-5.16,1.89-5.65,4.53   c-0.49,2.64,0.57,5.33,1.93,7.64c2.68,4.53,6.24,7.86,10.08,11.45c-0.97,2.41-2.09,4.76-3.45,7.02c-2.49,4.13-5.44,7.98-8.61,11.61   c-0.84,0.97-1.7,1.92-2.58,2.86c1.62-5.4,1.73-11.24,0.27-16.69c-0.59-2.22-1.68-4.62-3.85-5.38c-2.53-0.89-5.39,1.08-6.28,3.62   c-0.88,2.53-0.25,5.35,0.74,7.84c1.84,4.6,4.62,8.28,7.65,12.15c-5.57,5.8-11.71,11.09-18.13,15.93   c3.02-5.04,4.57-10.97,4.34-16.85c-0.09-2.3-0.62-4.88-2.56-6.1c-2.27-1.43-5.5-0.14-6.92,2.13c-1.42,2.27-1.43,5.16-1.01,7.81   c0.8,5.03,2.78,9.33,4.94,13.9c-0.86,0.64-1.72,1.27-2.58,1.89c-4.75,3.4-9.67,6.61-14.76,9.52c2.87-4.96,4.33-10.73,4.11-16.45   c-0.09-2.3-0.62-4.87-2.56-6.1c-2.27-1.43-5.5-0.14-6.92,2.13c-1.42,2.27-1.43,5.16-1.01,7.81c0.78,4.89,2.67,9.09,4.76,13.53   c-5.83,3.26-11.88,6.13-18.12,8.5c-1.3,0.49-0.45,2.47,0.85,1.98c6.3-2.39,12.4-5.3,18.29-8.6c3.83,4.73,9.11,8.29,14.96,10.05   C1095.8,622.57,1098.42,622.91,1100.23,621.47z"/><path fill="#e9e9f2" d="M1284.71,762.93c-3.11-12.35-25.31-12.91-42-14.08c-155.25-10.9-259.16-45.31-394.69-31.26   c-162.11,16.81-331.9-6.5-426.01,15.7c-47.83,11.28-86.85,7.89-137.06,20.52c-43.32,10.89-47.78,13.22-67.21,21.19   c-32.8,13.45-76.01,21.18-110.74,26.39c-9.68,1.45-20.28,3.71-25.39,10.02c-7.52,9.3,2.18,22.1,15.52,26.6   c13.34,4.49,28.6,3.27,43.15,2.63c30.39-1.32,60.9,0.35,91.3,2.02c13.65,0.75,30.23,3.1,34.75,12.79   c1.92,4.12,1.11,8.89,4.07,12.65c4.67,5.94,15.75,6.33,24.89,5.81c68.02-3.89,134.8-17.81,203.07-17.46   c73.86,0.37,147.26,17.47,220.71,12.16c11.25-0.81,22.8-2.25,32.28-6.82c7.59-3.65,13.36-9.08,20.62-13.1   c16.13-8.94,37.58-10.01,57.73-10.33c139.47-2.2,283.35,38.16,415.1,4.65c4.44-1.13,16.75-6.02,18.75-9.2   c6.22-9.84-63.05-23.04-60.21-33.74c3.97-11.33,46.26-11.5,58.59-15.37C1274.24,780.86,1287.2,772.82,1284.71,762.93z"/><path fill="#505093" d="M956.22,754.02L956.22,754.02c-10.46-4.26-15.61-16.08-11.6-26.63l94.99-250.22l50.24,20.44L983.12,743.06     C978.62,753.41,966.68,758.28,956.22,754.02z"/><path fill="#363372" d="M1039.62,477.17l-5.92,15.58l12.98,5.28c11.15,4.54,16.38,17.36,11.58,28.4l-97.98,225.31     c-0.47,1.09-1.03,2.11-1.66,3.08c9.83,2.68,20.34-2.2,24.51-11.77l106.73-245.44L1039.62,477.17z"/><path fill="#ffd394" d="M1131.6,439.32c-36.99-8.51-64.39-19.68-82.26-33.48c-6.84-25.23-6.61-50.89-2.51-76.78    c1.04-6.58,6.98-11.28,13.61-10.62c45.69,4.55,87.63,20.21,124.6,50.61c5.03,4.13,6.1,11.39,2.48,16.79    C1172.13,408.75,1154.15,427.6,1131.6,439.32z"/><path fill="#ffbc47" d="M1054.79,375.97c-0.3-1.39-2.44-0.86-2.14,0.53c2.28,10.68,2.15,21.8-0.41,32.42    c-0.33,1.37,1.78,2.01,2.11,0.62C1057,398.54,1057.15,387.04,1054.79,375.97z"/><path fill="#ffbc47" d="M1062.49,413.61c3.37-11.74,5.44-23.83,6.09-36.02c0.19-3.49,0.26-7,0.22-10.49    c-0.01-0.6-0.32-1.14-0.97-1.22c-0.53-0.07-1.23,0.37-1.22,0.97c0.14,12.05-1.07,24.11-3.63,35.88    c-0.73,3.38-1.58,6.73-2.53,10.06C1060.06,414.13,1062.09,414.98,1062.49,413.61z"/><path fill="#ffbc47" d="M1083.31,387.15c0.2-1.4-1.99-1.67-2.19-0.26c-1.71,12.11-5.82,23.84-12.08,34.34    c-0.72,1.21,1.02,2.56,1.75,1.34C1077.26,411.72,1081.54,399.68,1083.31,387.15z"/><path fill="#ffbc47" d="M1100.44,383.87c1.28-3.98,2.45-8,3.54-12.04c0.36-1.35-1.68-2.2-2.04-0.83    c-3.81,14.24-8.84,28.14-15.05,41.51c-1.76,3.8-3.62,7.54-5.57,11.25c-0.66,1.26,1.39,2.08,2.04,0.83    C1090.21,411.53,1095.94,397.9,1100.44,383.87z"/><path fill="#ffbc47" d="M1115.3,391.91c0.43-1.34-1.61-2.18-2.04-0.83c-3.52,11-8.93,21.35-15.98,30.5    c-2.02,2.62-4.17,5.13-6.44,7.54c-0.97,1.03,0.78,2.37,1.75,1.34c8.01-8.51,14.52-18.4,19.17-29.11    C1113.09,398.27,1114.27,395.12,1115.3,391.91z"/><path fill="#ffbc47" d="M1128.85,398.49c1.62-4.15,2.95-8.4,4.04-12.72c0.35-1.37-1.85-1.62-2.19-0.26    c-3.75,14.88-10.88,28.87-20.63,40.72c-2.74,3.33-5.68,6.49-8.82,9.45c-1.02,0.97,0.31,2.72,1.34,1.75    C1114.09,426.58,1123.12,413.22,1128.85,398.49z"/><path fill="#ffbc47" d="M1133.41,413.34c-0.61-0.25-1.15,0.09-1.44,0.61c-4.88,8.66-11.22,16.49-18.65,23.09    c-1.06,0.94,0.28,2.69,1.34,1.75c7.75-6.87,14.27-14.98,19.35-24.01C1134.31,414.25,1133.9,413.55,1133.41,413.34z"/><path fill="#ffbc47" d="M1147.87,415.33c-7.38,9.34-15.62,17.96-24.63,25.74c-1.07,0.93,0.27,2.68,1.34,1.75    c9.15-7.9,17.54-16.66,25.03-26.15C1150.5,415.56,1148.75,414.22,1147.87,415.33z"/><path fill="#f4ece1" d="M1187.07,371.16c-0.08,2.83-1.1,5.64-3.09,7.93c-9.25,10.61-19.04,20.08-29.58,27.99    c-16.89,12.67-39.71,14.05-58.11,3.7l-51.41-28.91c0.85,8.03,2.3,16.02,4.46,23.97c26.17,15.07,53.54,26.4,82.26,33.48    c22.54-11.71,40.52-30.57,55.91-53.48C1190.59,381.27,1190.28,375.37,1187.07,371.16z"/><path fill="#505093" d="M1086.33,496.18l-44.29-18.02c-5.19-2.11-8.06-7.69-6.76-13.14l14.06-59.19    c25.83,14.89,53.15,26.28,82.26,33.48l-31.26,52.19C1097.47,496.31,1091.51,498.29,1086.33,496.18z"/><path fill="#8383b7" d="M754.68,551.53l0.87,115.39l-59.51,0.45l-0.87-115.39c-0.02-2.98,2.11-5.41,4.76-5.43l49.9-0.38    C752.49,546.16,754.66,548.55,754.68,551.53z"/><path fill="#e6e6e6" d="M749.84,546.18l-5.59,0.04l0.43,56.92c0.2,26.47-21.1,48.1-47.57,48.3l-1.18,0.01l0.12,15.92l59.51-0.45     l-0.87-115.39C754.66,548.55,752.49,546.16,749.84,546.18z"/><path fill="#8383b7" d="M759.8,659.4l-68.71,0.52c-3.03,0.02-5.47,3.05-5.44,6.76v0c0.03,3.71,2.51,6.7,5.54,6.67l68.71-0.52    c3.03-0.02,5.47-3.05,5.44-6.76v0C765.32,662.37,762.83,659.38,759.8,659.4z"/><path fill="#505093" d="M690.65,673.36l0.48,63.79c0.07,8.9,6.91,16.06,15.28,16l40.03-0.3c8.37-0.06,15.1-7.33,15.03-16.23    L761,672.83L690.65,673.36z"/><path fill="#44447f" d="M690.65,673.36l0.11,15.2h0c31.47-0.24,57.18,25.08,57.41,56.55l0.05,6.8c0,0.27-0.02,0.53-0.03,0.79    c7.53-0.98,13.34-7.83,13.28-16.1L761,672.83L690.65,673.36z"/><path fill="#ff69a6" d="M749.2,486.05l0.45,60.13l-49.53,0.37l-0.29-38.91c-0.01-1.2,0.16-2.38,0.5-3.5    c0.65-2.22,1.95-4.23,3.76-5.76l25.37-21.41c3.39-2.86,7.57-3.43,11.2-2.32C745.36,476.08,749.15,480.32,749.2,486.05z"/><path fill="#ef5299" d="M742.3,475.29c0.36,1.13,0.57,2.34,0.58,3.64l0.19,25.75c0.14,18.99-15.13,34.5-34.12,34.64l-8.88,0.07    l0.05,7.17l49.53-0.37l-0.45-60.13C749.16,481,746.21,477.12,742.3,475.29z"/><path fill="#ff97c6" d="M730.46,502c-10.78,8.84-23.59,11.05-28.61,4.93c-0.68-0.83-1.19-1.77-1.51-2.8    c0.65-2.22,1.95-4.23,3.76-5.76l25.37-21.41c3.39-2.86,7.57-3.43,11.2-2.32c0.08,0.08,0.15,0.17,0.22,0.25    C745.9,481.03,741.23,493.16,730.46,502z"/><path fill="#9e9e9e" d="M713.81,628.77l-3.37,0.03c-2.16,0.02-3.92-1.72-3.94-3.88l-0.48-63.32c-0.02-2.16,1.72-3.92,3.88-3.94    l3.37-0.03c2.16-0.02,3.92,1.72,3.94,3.88l0.48,63.32C717.71,626.99,715.97,628.75,713.81,628.77z"/><polygon fill="#ffd394" points="937.72 378.41 769.14 377.88 762.49 353.99 944.52 354.56"/><polygon fill="#ffbc47" points="937.72 378.4 920.9 629.37 918.76 661.43 786.32 661.01 784.38 628.94 769.14 377.87"/><path fill="#f4ece1" d="M927.03,378.37l-12.8,134.31c-5.2,54.6-51.15,96.25-106,96.08l-25.08-0.08l1.23,20.27l1.94,32.07l132.44,0.41    l2.14-32.06l16.82-250.97L927.03,378.37z"/><path fill="#505093" d="M786.12,661.01l-0.11,36.49c-0.09,29.98,18.14,54.35,40.72,54.42l50.93,0.16    c22.58,0.07,40.97-24.18,41.06-54.16l0.11-36.49L786.12,661.01z"/><path fill="#44447f" d="M786.12,661.01l-0.04,13.7l82.27,0.26c20.15,0.06,36.44,16.45,36.38,36.61v0    c-0.04,13.72-3.93,26.24-10.28,35.77c14.24-8.46,24.21-27.39,24.28-49.43l0.11-36.49L786.12,661.01z"/><polygon fill="#ffd394" points="920.9 629.37 918.76 661.43 786.32 661.01 784.38 628.94"/><path fill="#fff" d="M854.86,548.13l0.45-5.19l-0.54,5.18l-0.29-0.03c-8.23-0.74-23.86-4.2-35.86-18.96     c-4.93-6.07-20.33-27.32-11.4-45.73c4.7-9.68,14.87-16.16,25.32-16.13c2.53,0.01,5.04,0.4,7.46,1.15     c7.04,2.21,11.85,7.18,15,11.89c3.17-4.7,8.02-9.64,15.06-11.8c2.42-0.74,4.93-1.11,7.47-1.11c10.44,0.03,20.58,6.58,25.22,16.29     c8.81,18.44-6.71,39.6-11.68,45.65c-11.7,14.24-26.78,17.84-34.74,18.71l-0.99,0.1L854.86,548.13z"/><path fill="#ffd394" d="M898.05,485.96c-4.41-9.22-15.6-15.77-26.45-12.45c-11.63,3.56-16.12,17.03-16.62,18.58     c0,0.59,0,1.18,0,1.77c-0.01-0.59-0.02-1.18-0.03-1.77c-0.48-1.55-4.89-15.05-16.5-18.68c-10.83-3.39-22.07,3.08-26.53,12.28     c-8.18,16.85,8.83,37.8,10.76,40.17c11.51,14.17,26.78,16.56,32.3,17.06c0.12,0.01,0.23,0.02,0.34,0.03     c0.14-0.01,0.29-0.03,0.45-0.05c5.52-0.61,20.09-3.22,31.28-16.84C889.02,523.65,906.11,502.84,898.05,485.96z"/><path fill="#9e9e9e" d="M799.89,583.56l-7.59,0.47c-1.39,0.09-2.59-0.97-2.67-2.36l-11.36-184.71c-0.09-1.39,0.97-2.59,2.36-2.67    l7.59-0.47c1.39-0.09,2.59,0.97,2.67,2.36l11.36,184.71C802.34,582.28,801.28,583.48,799.89,583.56z"/><path fill="#363372" d="M394.19,280.78l-54.84-0.15c-4.05-0.01-7.35,3.27-7.36,7.32l-0.17,64.34c-0.01,4.05,3.27,7.35,7.32,7.36    l54.84,0.15c4.05,0.01,7.35-3.27,7.36-7.32l0.17-64.34C401.52,284.09,398.24,280.8,394.19,280.78z"/><path fill="#363372" d="M455.9,280.95l-76.07-0.2l-0.05,19.13l84.92,0.23l0.03-10.27C464.74,284.94,460.79,280.96,455.9,280.95z"/><path fill="#505093" d="M410.04,338.23L323.2,338c-14.3-0.04-25.92,11.52-25.96,25.82l-0.14,53.12l138.62,0.37l0.14-53.12    C435.9,349.89,424.34,338.27,410.04,338.23z"/><path fill="#ffd394" d="M458.86,385.65l-184.74-0.49c-13.53-0.04-23.84,12.44-23.03,27.66l15.86,298.29    c1.04,19.59,18.12,35.19,38.17,35.24l120.81,0.32c20.05,0.05,37.22-15.46,38.36-35.04l17.44-298.2    C482.63,398.21,472.39,385.68,458.86,385.65z"/><path fill="#ffbc47" d="M463.11,485.12l-13.19,225.66c-0.69,11.87-11.44,21.5-23.94,21.47l-120.81-0.32    c-12.51-0.03-23.19-9.72-23.82-21.59L269.9,495.1c24.47-3.75,35.72-15.1,66.77-1.52C389.08,516.49,409.63,467.64,463.11,485.12z"/><path fill="#ffd394" d="M302.41,746.34c-0.02,7.99,6.44,14.49,14.43,14.51l95.02,0.25c7.99,0.02,14.49-6.44,14.51-14.43    L302.41,746.34z"/><path fill="#fff" d="M404.02,619.87l-75.72-0.2c-3.92-0.01-7.27-3.21-7.48-7.18l-3.16-60.64c-0.24-4.62,3.04-8.39,7.32-8.38    l82.74,0.22c4.29,0.01,7.54,3.8,7.28,8.42l-3.48,60.63C411.31,616.7,407.94,619.88,404.02,619.87z"/><path fill="#9e9e9e" d="M301.65,602.33l-13.5,0.73c-2.16,0.12-4.01-1.54-4.13-3.71l-9.88-183.55c-0.12-2.16,1.54-4.01,3.71-4.13    l13.5-0.73c2.16-0.12,4.01,1.54,4.13,3.71l9.88,183.55C305.47,600.36,303.81,602.21,301.65,602.33z"/><path fill="#9e9e9e" d="M305.68,677.29l-13.5,0.73c-2.16,0.12-4.01-1.54-4.13-3.71l-2.5-46.44c-0.12-2.16,1.54-4.01,3.71-4.13    l13.5-0.73c2.16-0.12,4.01,1.54,4.13,3.71l2.5,46.44C309.51,675.33,307.85,677.18,305.68,677.29z"/><g><path fill="#5c59c7" d="M630.67,752.52l-72.14,0.55c-9.06,0.07-16.45-7.22-16.52-16.27l-0.33-44.19l104.93-0.79l0.33,44.19    C647.01,745.05,639.72,752.45,630.67,752.52z"/><path fill="#504ead" d="M559.36,752.08c-0.93-2.52-1.47-5.23-1.49-8.07l0,0c-0.15-20.22,16.11-36.73,36.33-36.88l52.52-0.4    l-0.11-14.92l-104.93,0.79l0.28,36.6C542.03,740.1,549.38,749.23,559.36,752.08z"/><path fill="#ff69a6" d="M518.01,225.83l145.2-1.1c14.63-0.11,26.39,12.03,25.81,26.64l-7.97,203.52l-5.18,132.22l-0.48,12.31    l-0.81,20.58l-1.68,43.06c-0.66,16.82-14.43,30.17-31.27,30.3l-94.98,0.72c-16.84,0.13-30.82-13.01-31.72-29.82l-2.33-43.03    l-1.12-20.57l-0.67-12.3l-7.18-132.13L492.6,252.86C491.8,238.26,503.38,225.94,518.01,225.83z"/><polygon fill="#fff" points="503.65 456.23 681.05 454.89 675.88 587.12 675.4 599.42 674.59 620.01 512.61 621.23 511.49 600.66 510.82 588.36"/><polygon fill="#ff69a6" points="510.82 588.36 675.88 587.12 675.4 599.42 511.49 600.66"/><path fill="#363372" d="M639.86,752.45l-90.52,0.68c-3.98,0.03-7.23-3.17-7.26-7.15l-0.4-52.5l104.93-0.79l0.4,52.5    C647.04,749.16,643.84,752.42,639.86,752.45z"/><path fill="#efdce5" d="M665.55,224.84c0,0.1,0.01,0.2,0,0.3l-7.97,203.52l-5.18,132.22l-0.48,12.31l-0.81,20.58l-1.68,43.06    c-0.66,16.82-14.43,30.17-31.27,30.3l-94.98,0.72c-2.76,0.02-5.43-0.32-7.99-0.97c2.13,15.53,15.51,27.32,31.46,27.2l94.98-0.72    c16.84-0.13,30.6-13.48,31.27-30.3l1.68-43.06l0.81-20.58l0.48-12.31l5.18-132.22l7.97-203.52    C689.57,237.55,679.07,225.96,665.55,224.84z"/></g><g><path fill="#ff69a6" d="M893.61,616.63c-8.48-53.67,37.51-104.06,104.06-104.06s112.55,50.39,104.06,104.06     c-7.29,46.15-53.49,79.07-104.06,79.07C947.1,695.7,900.91,662.78,893.61,616.63z"/><path fill="#d9d9ff" d="M908.79,613.21c-6.12-45.31,33.32-86.88,88.89-86.88c55.57,0,95,41.58,88.89,86.88     c-5.38,39.83-44.92,68.74-88.89,68.74C953.71,681.95,914.16,653.04,908.79,613.21z"/><ellipse cx="997.68" cy="748.82" fill="#ef5299" rx="110.09" ry="47.88"/><ellipse cx="997.68" cy="734.57" fill="#ff69a6" rx="110.09" ry="47.88"/><ellipse cx="997.68" cy="734.57" fill="#ffa8ba" rx="91.57" ry="39.82"/><ellipse cx="997.68" cy="734.57" fill="#ffccd8" rx="80.16" ry="34.86"/><path fill="#ff69a6" d="M1040.04,694.93h-88.82c-1.02,0-1.85-0.83-1.85-1.85v-4.54c0-1.02,0.83-1.85,1.85-1.85h88.82    c1.02,0,1.85,0.83,1.85,1.85v4.54C1041.89,694.1,1041.06,694.93,1040.04,694.93z"/></g><g><path fill="#ff69a6" d="M504.04,809.03l-0.82-45.35l-0.82-45.35c-0.12-6.78-5.77-12.14-12.54-11.89    c-50.32,1.8-240.18,9.55-294.84,25.58c-15.91,4.66-26.63,19.54-26.33,36.12l0.03,1.61l0.03,1.61    c0.3,16.58,11.55,31.06,27.62,35.14c55.21,14.03,245.22,14.9,295.57,14.88C498.71,821.37,504.16,815.81,504.04,809.03z"/><path fill="#363372" d="M518.61,726.1l1.32,73.08c0.05,2.76-2.15,5.04-4.91,5.09l-12.15,0.22l-1.5-83.08l12.15-0.22    C516.28,721.14,518.56,723.34,518.61,726.1z"/><rect width="53.17" height="8.17" x="496.77" y="758.48" fill="#505093" transform="rotate(88.963 523.376 762.587)"/><circle cx="403.47" cy="764.74" r="41.89" fill="#fff"/><circle cx="403.47" cy="764.74" r="34.77" fill="#505093"/><path fill="#efdce5" d="M504.04,809.03l-0.21-11.43c-57-0.04-236.96-1.29-290.43-14.88c-16.07-4.08-27.32-18.57-27.62-35.14    l-0.03-1.61l-0.03-1.61c-0.05-2.96,0.25-5.87,0.87-8.67c-11.14,6.67-18.15,18.99-17.91,32.44l0.03,1.61l0.03,1.61    c0.3,16.58,11.55,31.06,27.62,35.14c55.21,14.03,245.22,14.9,295.57,14.88C498.71,821.37,504.16,815.81,504.04,809.03z"/><path fill="#9e9e9e" d="M262.4,739.85l-0.25-3.02c-0.15-1.83,1.21-3.43,3.04-3.58l79.81-6.48c1.83-0.15,3.43,1.21,3.58,3.04    l0.25,3.02c0.15,1.83-1.21,3.43-3.04,3.58l-79.81,6.48C264.15,743.04,262.55,741.68,262.4,739.85z"/><path fill="#9e9e9e" d="M228.54,742.6l-0.25-3.02c-0.15-1.83,1.21-3.43,3.04-3.58l17.89-1.45c1.83-0.15,3.43,1.21,3.58,3.04    l0.25,3.02c0.15,1.83-1.21,3.43-3.04,3.58l-17.89,1.45C230.29,745.79,228.69,744.43,228.54,742.6z"/></g><g><rect width="6.05" height="200.5" x="441.1" y="712.83" fill="#363372" transform="rotate(-97.527 444.142 813.066)"/><path fill="#ff69a6" d="M608.7,792.41L608.7,792.41c-3.01-22.75-23.88-38.75-46.63-35.75l-27.75,3.67l10.89,82.38l27.75-3.67     C595.71,836.04,611.71,815.16,608.7,792.41z"/><path fill="#efdce5" d="M607.91,807.58c-5.45,4-11.95,6.73-19.12,7.68h0c-15.33,2.03-29.39-8.76-31.42-24.08l-4.4-33.31     l-18.65,2.46l10.89,82.38l27.75-3.67C590.49,836.73,604,823.8,607.91,807.58z"/><path fill="#363372" d="M420.34,824.03l-2.03-15.36c-0.1-0.79,0.45-1.52,1.25-1.63l1.31-0.17c0.79-0.1,1.52,0.45,1.63,1.25    l2.03,15.36c0.1,0.79-0.45,1.52-1.25,1.63l-1.31,0.17C421.17,825.38,420.44,824.83,420.34,824.03z"/><path fill="#363372" d="M412.22,828.6l-2.94-22.24c-0.1-0.79,0.45-1.52,1.25-1.63l1.31-0.17c0.79-0.1,1.52,0.45,1.63,1.25l2.94,22.24    c0.1,0.79-0.45,1.52-1.25,1.63l-1.31,0.17C413.06,829.95,412.33,829.4,412.22,828.6z"/><path fill="#363372" d="M403.76,830.53l-3.15-23.83c-0.1-0.79,0.45-1.52,1.25-1.63l1.31-0.17c0.79-0.1,1.52,0.45,1.63,1.25    l3.15,23.83c0.1,0.79-0.45,1.52-1.25,1.63l-1.31,0.17C404.59,831.88,403.87,831.33,403.76,830.53z"/><path fill="#363372" d="M395.34,832.81l-3.45-26.12c-0.1-0.79,0.45-1.52,1.25-1.63l1.31-0.17c0.79-0.1,1.52,0.45,1.63,1.25    l3.45,26.12c0.1,0.79-0.45,1.52-1.25,1.63l-1.31,0.17C396.18,834.16,395.45,833.6,395.34,832.81z"/><path fill="#363372" d="M387.05,836.03l-4.01-30.31c-0.1-0.79,0.45-1.52,1.25-1.63l1.31-0.17c0.79-0.1,1.52,0.45,1.63,1.25    l4.01,30.31c0.1,0.79-0.45,1.52-1.25,1.63l-1.31,0.17C387.88,837.39,387.16,836.83,387.05,836.03z"/><path fill="#363372" d="M378.2,835.07l-3.45-26.12c-0.1-0.79,0.45-1.52,1.25-1.63l1.31-0.17c0.79-0.1,1.52,0.45,1.63,1.25l3.45,26.12    c0.1,0.79-0.45,1.52-1.25,1.63l-1.31,0.17C379.04,836.43,378.31,835.87,378.2,835.07z"/><path fill="#363372" d="M369.48,835.06l-3.15-23.83c-0.1-0.79,0.45-1.52,1.25-1.63l1.31-0.17c0.79-0.1,1.52,0.45,1.63,1.25    l3.15,23.83c0.1,0.79-0.45,1.52-1.25,1.63l-1.31,0.17C370.32,836.41,369.59,835.86,369.48,835.06z"/><path fill="#363372" d="M360.81,835.4l-2.94-22.24c-0.1-0.79,0.45-1.52,1.25-1.63l1.31-0.17c0.79-0.1,1.52,0.45,1.63,1.25l2.94,22.24    c0.1,0.79-0.45,1.52-1.25,1.63l-1.31,0.17C361.64,836.75,360.91,836.19,360.81,835.4z"/><path fill="#363372" d="M352.03,834.93l-2.52-19.05c-0.1-0.79,0.45-1.52,1.25-1.63l1.31-0.17c0.79-0.1,1.52,0.45,1.63,1.25    l2.52,19.05c0.1,0.79-0.45,1.52-1.25,1.63l-1.31,0.17C352.86,836.29,352.13,835.73,352.03,834.93z"/><path fill="#363372" d="M343.17,833.88l-1.94-14.66c-0.1-0.79,0.45-1.52,1.25-1.63l1.31-0.17c0.79-0.1,1.52,0.45,1.63,1.25    l1.94,14.66c0.1,0.79-0.45,1.52-1.25,1.63l-1.31,0.17C344,835.23,343.28,834.67,343.17,833.88z"/><ellipse cx="581.39" cy="784.56" fill="#9e9e9e" rx="14.07" ry="19.2" transform="rotate(-52.529 581.353 784.512)"/></g><radialGradient id="a" cx="194.197" cy="207.759" r="29.757" gradientTransform="rotate(-7.52 193.118 -294.554)" gradientUnits="userSpaceOnUse"><stop offset="0" stop-color="#ffb0ec"/><stop offset="1" stop-color="#fff"/></radialGradient><circle cx="259.99" cy="203.29" r="29.76" fill="url(#a)"/><radialGradient id="b" cx="837.41" cy="257.634" r="29.757" gradientTransform="matrix(1.0424 -.1378 .1378 1.0424 -8.208 41.1)" gradientUnits="userSpaceOnUse"><stop offset="0" stop-color="#ffb0ec"/><stop offset="1" stop-color="#fff"/></radialGradient><circle cx="900.2" cy="194.3" r="31.29" fill="url(#b)"/><radialGradient id="c" cx="559.259" cy="100.79" r="14.879" gradientUnits="userSpaceOnUse"><stop offset="0" stop-color="#a9a7d8"/><stop offset="1" stop-color="#fff"/></radialGradient><circle cx="559.26" cy="100.79" r="14.88" fill="url(#c)"/><radialGradient id="d" cx="1223.211" cy="561.332" r="14.879" gradientUnits="userSpaceOnUse"><stop offset="0" stop-color="#a9a7d8"/><stop offset="1" stop-color="#fff"/></radialGradient><circle cx="1223.21" cy="561.33" r="14.88" fill="url(#d)"/><radialGradient id="e" cx="141.097" cy="443.428" r="14.879" gradientUnits="userSpaceOnUse"><stop offset="0" stop-color="#a9a7d8"/><stop offset="1" stop-color="#fff"/></radialGradient><circle cx="141.1" cy="443.43" r="14.88" fill="url(#e)"/></svg>