<svg width="200" height="173" viewBox="0 0 200 173" fill="none" xmlns="http://www.w3.org/2000/svg">
<path d="M40.9089 141.767C35.7614 135.21 33.3564 125.968 32.7834 116.863C31.7024 99.6985 36.8544 82.079 46.5654 69.7265C51.8799 62.966 58.4339 57.766 63.3979 50.6105C68.3354 43.4935 71.8264 34.337 78.5019 29.8785C87.0509 24.169 97.7529 28.2625 106.111 34.3875C114.469 40.512 122.122 48.688 131.535 51.677C138.164 53.782 145.708 53.3695 151.047 58.658C159.436 66.9665 157.138 83.1215 160.04 95.9085C162.769 107.936 170.694 118.723 169.269 131.089C168.17 140.62 161.468 147.998 154.105 151.162C146.743 154.327 138.746 154.075 130.953 153.787C113.341 153.136 95.5444 151.875 78.0339 152.68C66.6539 153.203 48.8214 154.796 40.9084 141.766L40.9089 141.767Z" fill="#EFAAAA"/>
<path d="M31.5449 70.0554C31.1114 69.7359 30.6744 69.1884 30.9289 68.7134C31.1269 68.3439 31.6144 68.2784 32.0254 68.1954C32.4359 68.1124 32.9174 67.8514 32.8794 67.4339C31.4814 66.7619 30.0834 66.0904 28.6854 65.4184C28.1374 65.1549 27.4879 64.5924 27.8054 64.0739C28.1079 63.5794 28.9694 63.7949 29.3324 63.3429C29.5609 63.0584 29.4739 62.6154 29.2359 62.3384C28.9984 62.0614 28.6494 61.9099 28.3134 61.7679C27.3139 61.3449 26.3144 60.9219 25.3144 60.4989C24.8139 60.2874 24.2204 59.9224 24.2974 59.3844C24.4229 58.5054 26.0344 58.6934 26.3209 57.8529C26.4604 57.4434 26.1759 56.9939 25.8069 56.7689C25.4374 56.5439 24.9974 56.4764 24.5844 56.3474C23.9384 56.1459 23.3434 55.7849 22.8659 55.3059C22.4679 54.9064 22.1619 54.2194 22.5574 53.8174C23.0149 53.3514 24.1414 53.5699 24.1559 52.9174C24.1614 52.6734 23.9609 52.4769 23.7629 52.3339C22.7964 51.6379 21.4944 51.3974 20.7394 50.4764C20.6349 50.3489 20.5404 50.2014 20.5339 50.0369C20.5159 49.5924 21.0734 49.3959 21.5079 49.3014C21.9424 49.2069 22.4809 48.8909 22.3374 48.4699C22.2784 48.2974 22.1169 48.1854 21.9689 48.0794C20.9069 47.3194 20.0694 46.2499 19.5869 45.0364C20.5594 44.7569 21.4474 45.6069 22.1914 46.2929C22.9354 46.9789 24.1584 47.5549 24.8724 46.8379C25.0949 46.6144 25.2519 46.2744 25.5624 46.2214C26.0544 46.1379 26.2849 46.8044 26.3184 47.3024C26.3694 48.0584 26.4199 48.8144 26.4709 49.5704C26.4809 49.7184 26.4929 49.8734 26.5724 49.9989C26.8274 50.4024 27.4659 50.1674 27.7994 49.8254C28.1324 49.4839 28.4969 49.0299 28.9674 49.1109C29.5854 49.2174 29.6504 50.0834 29.4944 50.6909C29.3384 51.2984 29.1799 52.0849 29.7014 52.4329C30.4169 52.9104 31.6584 51.9674 32.1374 52.6819C32.3429 52.9879 32.2174 53.3979 32.0864 53.7424L31.4564 55.3969C31.3789 55.6004 31.3004 55.8224 31.3609 56.0319C31.5049 56.5269 32.2364 56.5044 32.6814 56.2444C33.1264 55.9839 33.5619 55.5789 34.0724 55.6519C34.7079 55.7429 34.9959 56.5299 34.9209 57.1674C34.8459 57.8054 34.5474 58.4119 34.5569 59.0539C34.5634 59.4689 34.7709 59.9424 35.1789 60.0189C35.3219 60.0459 35.4699 60.0189 35.6104 59.9799C36.2039 59.8144 36.7169 59.4379 37.2974 59.2309C37.8779 59.0239 38.6229 59.0384 38.9994 59.5259C39.4339 60.0889 39.1344 60.9039 38.7809 61.5209C38.4269 62.1379 38.0164 62.8549 38.2804 63.5154C38.5564 64.2069 39.5049 64.4324 40.1819 64.1229C40.5994 63.9319 40.9819 63.5774 41.4399 63.6144C42.1974 63.6754 42.4269 64.6844 42.3339 65.4384C41.6759 70.7529 35.8449 73.2244 31.5464 70.0549L31.5449 70.0554Z" fill="#EFAAAA"/>
<path d="M39.6629 71.783C39.6504 71.7985 39.6359 71.812 39.6189 71.8235C39.5972 71.8383 39.5728 71.8486 39.5471 71.8539C39.5214 71.8591 39.4949 71.8593 39.4691 71.8543C39.4433 71.8494 39.4188 71.8394 39.3969 71.8249C39.375 71.8104 39.3561 71.7918 39.3414 71.77L24.2934 49.499C24.2638 49.4551 24.2527 49.4013 24.2628 49.3492C24.2728 49.2972 24.3031 49.2513 24.3469 49.2215C24.3687 49.2068 24.3931 49.1965 24.4188 49.1912C24.4445 49.1859 24.471 49.1858 24.4968 49.1907C24.5225 49.1957 24.5471 49.2057 24.569 49.2202C24.5909 49.2346 24.6097 49.2533 24.6244 49.275L39.6724 71.546C39.7224 71.6205 39.7159 71.716 39.6629 71.7825V71.783Z" fill="#E97272"/>
<path d="M34.6265 69.308C35.6735 69.377 36.726 69.33 37.7615 69.162C37.9725 69.128 37.937 68.7965 37.7245 68.831C36.717 68.994 35.693 69.0455 34.6745 68.9785C34.585 68.9725 34.4995 69.025 34.4855 69.119C34.4735 69.2025 34.536 69.302 34.626 69.308H34.6265ZM37.812 68.5565C38.0815 68.3895 38.285 68.1405 38.4635 67.883C38.6485 67.6165 38.8245 67.344 38.998 67.0705C39.3589 66.5029 39.7026 65.9244 40.0285 65.336C40.072 65.2575 40.018 65.1505 39.941 65.1175C39.8515 65.079 39.766 65.126 39.7225 65.205C39.4112 65.7675 39.0828 66.3204 38.738 66.863C38.5695 67.128 38.3985 67.392 38.2205 67.6505C38.0525 67.8945 37.8715 68.1295 37.6165 68.2875C37.54 68.335 37.5295 68.451 37.5795 68.52C37.6355 68.5975 37.7355 68.6045 37.812 68.557V68.5565ZM34.5635 64.3915C33.6385 64.3545 32.7155 64.272 31.7985 64.1435C31.5865 64.114 31.537 64.443 31.75 64.473C32.667 64.6015 33.59 64.6845 34.515 64.721C34.6045 64.7245 34.69 64.676 34.704 64.5805C34.716 64.499 34.654 64.395 34.5635 64.3915ZM35.3535 64.726C35.8645 64.3055 36.236 63.76 36.556 63.187C36.878 62.6105 37.166 62.0145 37.466 61.4265C37.507 61.3465 37.4575 61.2415 37.3785 61.208C37.2915 61.1705 37.201 61.215 37.16 61.2955C36.87 61.8645 36.59 62.44 36.2815 62.9995C35.9845 63.538 35.6365 64.063 35.158 64.457C35.0885 64.514 35.066 64.6135 35.121 64.6895C35.1715 64.759 35.284 64.784 35.3535 64.7265V64.726ZM31.2205 59.6515C29.957 59.5799 28.6969 59.4566 27.4435 59.282C27.2315 59.2525 27.182 59.582 27.395 59.6115C28.6484 59.7861 29.9085 59.9094 31.172 59.981C31.2615 59.986 31.347 59.935 31.361 59.8405C31.373 59.7575 31.3105 59.6565 31.2205 59.6515ZM32.286 60.404C33.0435 59.4655 33.652 58.4085 34.081 57.2815C34.157 57.082 33.8515 56.949 33.775 57.15C33.3561 58.2511 32.7658 59.2791 32.026 60.196C31.8915 60.3625 32.151 60.571 32.286 60.404ZM27.649 54.3165C26.8911 54.4847 26.1057 54.4857 25.3475 54.3195C25.138 54.2735 25.0905 54.603 25.299 54.649C26.0825 54.8205 26.9025 54.8205 27.6855 54.6475C27.773 54.628 27.8435 54.5595 27.8325 54.4635C27.8235 54.3815 27.737 54.297 27.6485 54.3165H27.649ZM28.5645 54.686C28.952 53.892 29.223 53.0425 29.369 52.1715C29.402 51.973 29.093 51.9275 29.06 52.126C28.9178 52.9716 28.6542 53.7922 28.2775 54.5625C28.1895 54.743 28.4765 54.8665 28.5645 54.686Z" fill="#E97272"/>
<path d="M167.195 95.5961C167.371 95.0871 167.764 94.5071 168.293 94.6086C168.704 94.6876 168.912 95.1336 169.113 95.5011C169.315 95.8686 169.707 96.2501 170.094 96.0896C170.32 94.5551 170.545 93.0201 170.77 91.4856C170.859 90.8841 171.202 90.0966 171.792 90.2451C172.354 90.3866 172.405 91.2731 172.944 91.4851C173.284 91.6186 173.681 91.4036 173.875 91.0941C174.069 90.7846 174.109 90.4066 174.145 90.0436C174.251 88.9636 174.357 87.8831 174.464 86.8031C174.517 86.2626 174.689 85.5871 175.225 85.5006C176.102 85.3591 176.402 86.9531 177.29 86.9766C177.722 86.9881 178.067 86.5826 178.171 86.1631C178.276 85.7436 178.21 85.3031 178.21 84.8706C178.21 84.1941 178.377 83.5181 178.693 82.9201C178.956 82.4211 179.52 81.9251 180.022 82.1826C180.603 82.4806 180.73 83.6211 181.357 83.4406C181.592 83.3731 181.72 83.1236 181.797 82.8916C182.174 81.7616 182.016 80.4471 182.671 79.4521C182.761 79.3146 182.874 79.1801 183.029 79.1246C183.448 78.9751 183.802 79.4491 184.021 79.8356C184.241 80.2226 184.703 80.6426 185.062 80.3801C185.209 80.2726 185.268 80.0851 185.325 79.9121C185.735 78.6721 186.507 77.5541 187.521 76.7321C188.077 77.5776 187.53 78.6781 187.097 79.5926C186.664 80.5071 186.478 81.8461 187.375 82.3141C187.654 82.4601 188.025 82.5086 188.169 82.7896C188.395 83.2341 187.827 83.6531 187.362 83.8331C186.655 84.1066 185.948 84.3801 185.242 84.6536C185.103 84.7071 184.959 84.7646 184.863 84.8776C184.553 85.2411 184.968 85.7811 185.393 85.9971C185.819 86.2136 186.36 86.4266 186.423 86.8996C186.505 87.5211 185.697 87.8411 185.071 87.8731C184.445 87.9046 183.647 87.9876 183.47 88.5891C183.227 89.4141 184.496 90.3186 183.957 90.9886C183.726 91.2756 183.298 91.2781 182.93 91.2556C182.341 91.2191 181.752 91.1831 181.163 91.1466C180.945 91.1331 180.71 91.1241 180.528 91.2446C180.098 91.5296 180.338 92.2211 180.719 92.5686C181.1 92.9161 181.616 93.2111 181.698 93.7201C181.801 94.3541 181.135 94.8631 180.504 94.9811C179.873 95.0996 179.205 94.9946 178.595 95.1951C178.201 95.3246 177.81 95.6641 177.858 96.0761C177.875 96.2206 177.945 96.3541 178.024 96.4761C178.358 96.9936 178.87 97.3711 179.241 97.8636C179.611 98.3561 179.819 99.0716 179.465 99.5761C179.057 100.159 178.19 100.115 177.496 99.9611C176.801 99.8071 175.995 99.6281 175.443 100.077C174.865 100.546 174.932 101.519 175.429 102.073C175.735 102.415 176.188 102.675 176.289 103.123C176.456 103.864 175.561 104.384 174.813 104.519C169.544 105.472 165.449 100.641 167.195 95.5936L167.195 95.5961Z" fill="#EFAAAA"/>
<path d="M167.962 103.861C167.943 103.853 167.926 103.843 167.91 103.831C167.824 103.762 167.81 103.636 167.878 103.55L184.662 82.5555C184.731 82.4695 184.857 82.4555 184.943 82.524C185.029 82.593 185.043 82.7185 184.974 82.805L168.191 103.799C168.164 103.832 168.128 103.856 168.087 103.867C168.046 103.878 168.002 103.876 167.962 103.861H167.962Z" fill="#E97272"/>
<path d="M168.825 98.3154C169.071 99.3354 169.429 100.326 169.898 101.265C169.993 101.456 170.299 101.323 170.203 101.131C169.747 100.218 169.393 99.2559 169.154 98.2634C169.133 98.1759 169.058 98.1099 168.964 98.1249C168.88 98.1379 168.804 98.2274 168.825 98.3154ZM170.491 101.133C170.731 101.34 171.029 101.46 171.328 101.554C171.637 101.651 171.95 101.738 172.263 101.823C172.912 101.998 173.567 102.154 174.226 102.29C174.314 102.308 174.4 102.225 174.409 102.142C174.419 102.045 174.349 101.977 174.26 101.959C173.631 101.829 173.005 101.68 172.385 101.512C172.082 101.43 171.779 101.345 171.479 101.253C171.196 101.165 170.918 101.062 170.691 100.866C170.623 100.807 170.509 100.831 170.458 100.9C170.401 100.976 170.423 101.074 170.492 101.133H170.491ZM173.5 96.7919C173.26 95.8979 173.064 94.9919 172.914 94.0784C172.88 93.8669 172.55 93.9179 172.585 94.1304C172.735 95.0439 172.931 95.9499 173.171 96.8439C173.195 96.9304 173.266 96.9974 173.362 96.9824C173.443 96.9694 173.524 96.8794 173.5 96.7919ZM173.416 97.6459C173.97 98.0084 174.601 98.2009 175.244 98.3359C175.89 98.4719 176.545 98.5689 177.195 98.6804C177.284 98.6954 177.369 98.6174 177.378 98.5319C177.388 98.4374 177.319 98.3644 177.23 98.3489C176.6 98.2414 175.967 98.1454 175.341 98.0174C174.739 97.8944 174.134 97.7184 173.615 97.3784C173.54 97.3294 173.438 97.3369 173.382 97.4124C173.331 97.4809 173.34 97.5959 173.416 97.6454V97.6459ZM177.031 92.1899C176.723 90.9624 176.466 89.7229 176.259 88.4744C176.224 88.2634 175.895 88.3144 175.93 88.5264C176.137 89.7749 176.394 91.0144 176.702 92.2419C176.724 92.3289 176.798 92.3954 176.892 92.3804C176.975 92.3674 177.053 92.2774 177.031 92.1899ZM176.629 93.4309C177.753 93.8756 178.939 94.1403 180.145 94.2154C180.358 94.2284 180.394 93.8974 180.179 93.8839C179.003 93.8117 177.846 93.554 176.75 93.1204C176.551 93.0414 176.43 93.3514 176.629 93.4304V93.4309ZM181.061 87.1924C180.675 86.5188 180.44 85.7693 180.373 84.9959C180.354 84.7824 180.025 84.8349 180.044 85.0479C180.113 85.8469 180.357 86.6299 180.756 87.3259C180.8 87.4039 180.887 87.4504 180.975 87.4114C181.051 87.3784 181.106 87.2704 181.061 87.1919V87.1924ZM180.981 88.1764C181.854 88.3104 182.746 88.3159 183.621 88.1959C183.82 88.1684 183.772 87.8599 183.572 87.8874C182.722 88.0039 181.861 87.9954 181.013 87.8654C180.815 87.8349 180.782 88.1459 180.981 88.1764Z" fill="#E97272"/>
<path d="M19.283 134.958C19.2565 134.864 19.2515 134.751 19.23 134.657C19.3025 134.768 19.3965 134.924 19.4725 135.029C19.7885 135.465 20.137 136.091 20.5055 136.427C21.308 137.158 22.1155 137.709 23.0035 138.229C24.027 138.829 24.9215 139.233 26.015 139.689C26.8655 140.044 27.6145 140.455 28.604 140.609C29.2215 140.705 30.0685 140.45 30.7385 140.256C30.87 140.218 31.1255 139.835 31.2115 139.694C31.0995 139.556 31.0235 139.399 30.85 139.323C30.6765 139.246 30.415 139.285 30.2375 139.294C28.235 139.402 26.356 139.334 24.5185 138.494C23.104 137.848 22.0485 137.046 20.9895 135.855C20.3515 135.138 19.668 134.119 19.028 133.347C19.0245 133.271 18.998 133.204 19.001 133.141C19.004 133.078 19.033 133.037 19.0355 132.975C19.0995 131.447 19.156 129.937 18.9755 128.408C18.916 127.904 18.826 127.314 18.776 126.819C18.7565 126.625 18.7815 126.349 18.716 126.231C18.413 125.688 18.349 125.262 18.4315 124.69C18.4725 124.41 18.485 124.174 18.524 123.912C18.676 122.886 18.8555 121.873 19.0445 120.861C19.135 121.178 19.2375 121.645 19.3495 121.932C19.91 123.366 20.733 124.719 21.7265 125.805C22.6515 126.815 23.5715 127.623 24.6075 128.403C25.3475 128.96 26.018 129.315 26.9335 129.289C27.1255 129.283 27.2885 129.082 27.337 128.902C27.385 128.721 27.2415 128.418 27.119 128.295C26.7175 127.895 26.305 127.541 25.84 127.242C24.1425 126.152 22.742 124.862 21.4015 123.328C20.7035 122.529 20.0475 121.495 19.581 120.527C19.3915 120.133 19.3045 119.747 19.5565 119.402C20.06 118.712 20.27 118.019 20.4965 117.194C20.5965 116.83 20.566 116.376 20.5315 115.986C20.497 115.596 20.414 115.222 20.335 114.84C20.791 115.221 21.158 115.547 21.736 115.471C22.314 115.395 22.703 115.237 23.2695 115.151C23.9765 115.045 24.1285 115.188 24.479 115.956C24.9195 116.92 25.2925 118.185 25.7065 119.284C26.1205 120.384 26.6715 121.643 27.1665 122.716C27.2425 122.881 27.4265 123.125 27.5925 123.056C27.7585 122.988 27.792 122.757 27.809 122.538C27.826 122.319 27.7805 122.012 27.738 121.739C27.4435 119.837 26.955 117.965 26.267 116.154C26.174 115.909 25.9765 115.687 25.781 115.528C25.3325 115.165 24.848 114.882 24.382 114.554C24.6705 114.475 25.017 114.359 25.296 114.301C25.575 114.243 25.773 114.227 26.0435 114.202C26.118 114.195 26.153 114.192 26.254 114.207C26.355 114.223 26.469 114.265 26.607 114.276C27.1845 114.325 27.4514 114.566 27.8204 115.084C28.7819 116.431 29.3065 118.098 29.664 119.72C30.0985 121.692 30.5895 123.611 30.797 125.612C30.859 126.212 30.9615 126.816 31.1295 127.406C31.1715 127.553 31.3285 127.753 31.497 127.773C31.666 127.793 31.8305 127.684 31.937 127.547C32.0435 127.411 32.0755 127.23 32.067 127.054C32.0375 126.44 32.0045 125.846 31.8425 125.246C31.5705 124.241 31.307 123.265 31.0105 122.251C30.6145 120.895 30.254 119.499 29.725 118.168C29.617 117.897 29.529 117.597 29.4385 117.304C29.1335 116.318 28.7515 115.485 28.045 114.709C28.037 114.7 28.0335 114.59 28.0395 114.568C28.596 114.783 29.17 114.975 29.7145 115.222C30.0145 115.358 30.2985 115.554 30.584 115.704C31.2065 116.03 31.7985 116.277 32.441 116.582C32.8585 116.779 33.1135 117.122 33.2935 117.569C33.378 117.779 33.478 118.05 33.5525 118.281C33.908 119.384 34.2745 120.56 34.653 121.641C35.241 123.321 35.6255 124.861 35.76 126.619C35.8555 127.87 35.753 129.087 35.708 130.343C35.696 130.677 35.7 131.046 35.755 131.408C35.822 131.848 36.174 131.971 36.582 131.872C37.522 131.645 38.3935 131.01 38.4295 130.049C38.4885 128.48 38.18 127.32 37.582 125.946C36.984 124.572 36.2305 123.348 35.632 122.002C35.0335 120.656 34.536 119.362 33.7795 118.097C34.3325 118.523 34.861 118.559 35.527 118.613C35.6365 118.622 35.706 118.629 35.8075 118.653C36.7885 118.88 37.678 119.327 38.619 119.717C39.1455 119.936 39.51 120.287 39.825 120.794C40.269 121.507 40.76 122.291 41.2405 122.99C41.5135 123.388 41.68 123.846 41.8225 124.288C42.0225 124.909 42.1935 125.504 42.4105 126.11C42.463 126.257 42.547 126.4 42.5765 126.545C42.8445 127.86 43.2705 129.093 43.2245 130.461C43.2165 130.694 43.164 130.99 43.2505 131.262C43.337 131.533 43.633 131.515 43.831 131.34C44.0295 131.164 44.2775 130.888 44.3535 130.676C44.7095 129.683 44.557 128.864 44.605 127.853C44.616 127.621 44.5145 127.433 44.393 127.222C43.949 126.449 43.488 125.724 43.0375 124.932C42.199 123.456 41.4225 121.91 40.393 120.537C40.458 120.552 40.4995 120.607 40.5585 120.632C41.452 121.026 42.3215 121.354 43.2625 121.654C44.5965 122.08 45.924 122.587 47.1765 123.256C47.5395 123.45 47.9795 123.74 48.233 124.046C48.718 124.631 49.1885 124.958 49.8755 125.247C50.3515 125.448 50.854 125.589 51.3445 125.802C53.209 126.612 54.801 127.552 55.956 129.245C56.1275 129.497 56.2125 129.81 56.1325 130.032C55.9085 130.652 55.678 131.147 55.2455 131.629C54.456 132.508 53.579 133.238 52.671 134.039C51.867 134.749 50.9285 135.431 50.111 136.175C49.9605 136.311 49.891 136.599 49.808 136.789C50.0605 136.888 50.3125 136.979 50.5745 137.05C50.6385 137.068 50.7235 137.058 50.7835 137.037C51.3935 136.819 52.0774 136.699 52.6474 136.405C53.9334 135.742 54.862 134.826 55.8745 133.797C56.6595 133 56.763 132.009 56.649 130.921C56.6325 130.763 56.601 130.597 56.586 130.445C57.3945 131.533 58.1859 132.772 58.7159 133.981C59.1929 135.069 59.3245 136.035 59.082 137.133C58.928 137.83 58.697 138.416 57.989 138.631C56.7955 138.994 55.518 139.1 54.277 139.311C53.45 139.452 52.577 139.494 51.7465 139.659C51.5375 139.7 51.3635 139.83 51.173 139.924C51.2085 139.953 51.2115 140.019 51.255 140.039C51.3505 140.084 51.4855 140.138 51.5905 140.153C52.39 140.275 53.2275 140.401 54.0135 140.259C54.8 140.116 55.5365 139.945 56.284 139.733C56.8935 139.559 57.4259 139.287 58.0039 139.061C58.2824 140.064 58.0819 140.849 57.0104 141.062C55.7719 141.309 55.102 141.771 54.3305 142.717C53.502 143.733 52.7585 144.057 51.35 143.844C49.9415 143.63 48.2915 142.86 46.913 142.221C46.2135 141.897 45.2735 141.647 44.5045 141.472C44.115 141.383 43.7425 141.548 43.479 141.766C43.216 141.984 43.3265 142.115 43.5515 142.295C44.361 142.943 45.412 143.214 46.3565 143.498C47.087 143.717 47.7055 144.045 48.213 144.467C49.0325 145.148 49.4025 146.001 49.6165 146.894C49.7915 147.622 49.6165 147.871 49.3245 148.417C49.2965 148.47 49.2765 148.483 49.2515 148.528C48.882 149.198 48.4595 149.813 48.025 150.441C47.923 150.477 47.8815 150.561 47.7685 150.585C47.656 150.609 47.5935 150.564 47.4455 150.594C46.4965 150.785 45.5705 150.815 44.5535 150.897C44.07 150.936 43.283 150.966 42.782 150.968C42.281 150.97 41.928 150.975 41.611 151.354C41.294 151.734 41.2145 152.118 40.6915 152.365C39.358 152.994 37.8415 153.324 36.263 153.3C34.2585 153.269 32.119 152.818 30.152 152.311C29.0425 152.025 27.9555 151.588 26.921 151.243C26.583 151.13 26.2985 151.036 26.0425 150.981C25.2775 150.816 24.7835 150.69 24.28 150.039C22.649 147.933 21.788 145.998 21.1415 143.396C21.188 143.45 21.2905 143.614 21.325 143.665C21.6425 144.131 22.0275 144.897 22.449 145.19C23.888 146.192 25.0155 146.6 26.8245 146.968C27.712 147.148 29.964 145.902 30.8335 145.29C30.984 145.184 31.32 144.826 31.428 144.643C31.1865 144.618 30.6015 144.608 30.395 144.665C29.36 144.953 27.779 145.304 26.9175 145.326C24.5215 145.387 23.291 144.148 21.2935 143.08C20.7875 142.809 20.366 141.976 20.2915 141.256C20.2695 141.043 20.1885 140.646 20.149 140.347C19.952 138.851 19.7465 137.293 19.522 135.778C19.4815 135.506 19.3595 135.227 19.283 134.958V134.958ZM48.817 124.787C48.765 124.784 48.717 124.784 48.6675 124.781C48.694 124.889 48.7385 124.993 48.7575 125.102C48.8875 125.85 49.153 126.507 49.0845 127.286C48.9345 128.995 48.601 130.438 47.7975 132.038C47.546 132.539 47.0655 133.371 46.772 133.932C46.721 134.03 46.6515 134.248 46.739 134.336C46.8265 134.424 47.012 134.399 47.1065 134.339C47.4155 134.143 47.79 133.886 48.0335 133.638C48.538 133.126 49.008 132.51 49.5005 132.051C50.0835 131.507 50.324 130.94 50.346 130.199C50.368 129.458 50.284 128.841 50.223 128.125C50.14 127.146 49.806 126.29 49.3005 125.441C49.175 125.23 48.9645 124.994 48.8165 124.787H48.817ZM26.8185 151.007C26.9185 151.047 27.239 151.143 27.3245 151.158C28.7625 151.412 30.66 151.526 31.8795 151.032C33.795 150.256 34.553 149.148 35.7475 147.71C35.816 147.627 35.8495 147.56 35.838 147.457C35.8265 147.354 35.7685 147.236 35.6895 147.156C35.648 147.115 35.461 147.142 35.397 147.107C32.579 148.657 29.9525 150.243 26.819 151.006L26.8185 151.007ZM23.3505 131.534C23.347 131.575 23.342 131.609 23.3385 131.653C23.932 132.203 24.499 132.889 25.1055 133.402C26.2015 134.328 27.449 134.868 28.825 135.257C29.1035 135.335 29.442 135.203 29.7255 135.052C29.88 134.969 30.0515 134.68 30.056 134.48C30.061 134.281 29.8975 134.015 29.7375 133.952C29.2685 133.766 28.7885 133.588 28.3385 133.45C27.031 133.049 25.818 132.68 24.58 132.129C24.158 131.941 23.755 131.751 23.35 131.533L23.3505 131.534ZM42.0375 150.496C42.8115 150.442 44.165 150.174 44.603 149.606C45.456 148.501 44.944 147.944 44.1755 147.126C44.1075 147.054 43.9735 146.993 43.841 146.965C43.567 146.907 43.1625 146.809 42.879 146.856C42.5955 146.903 42.307 147.057 42.1405 147.243C41.974 147.428 41.99 147.616 41.9945 147.819C42.009 148.49 42.0785 149.115 42.081 149.783C42.082 150.012 42.0385 150.273 42.037 150.497L42.0375 150.496ZM40.8945 137.095C41.1785 136.851 41.5825 136.593 41.788 136.294C42.3135 135.528 42.7725 134.745 43.182 133.952C43.282 133.758 43.344 133.449 43.1305 133.343C42.917 133.237 42.5795 133.365 42.3435 133.475C42.1075 133.584 41.8715 133.79 41.6815 133.994C41.2435 134.463 40.772 134.929 40.3715 135.435C40.154 135.71 39.9685 135.995 39.8625 136.336C39.6095 137.153 40.2 137.288 40.8945 137.095ZM37.7105 134.634C37.738 134.625 37.794 134.6 37.846 134.563C38.4745 134.116 39.1215 133.253 38.9175 132.453C38.8615 132.233 38.5145 132.177 38.353 132.219C37.339 132.484 36.6335 133.226 36.8615 134.313C36.951 134.739 37.3635 134.74 37.7105 134.634ZM43.578 138.566C43.959 138.134 44.334 137.727 44.697 137.277C44.7875 137.164 44.801 136.978 44.839 136.838C44.6825 136.852 44.454 136.803 44.3255 136.904C43.863 137.269 43.42 137.674 43.0155 138.08C42.9075 138.189 42.7985 138.401 42.9355 138.514C43.0725 138.628 43.4035 138.543 43.578 138.566ZM35.7895 142.703C35.824 142.689 35.8035 142.725 35.8185 142.716C36.1585 142.523 36.558 142.325 36.8545 142.088C36.995 141.976 37.103 141.768 37.0415 141.619C36.9805 141.469 36.6675 141.495 36.5145 141.556C36.0685 141.733 35.5715 141.935 35.152 142.208C34.9005 142.372 34.817 142.668 34.6645 142.913C34.981 142.882 35.2985 142.831 35.609 142.776C35.6695 142.766 35.7545 142.716 35.789 142.703H35.7895Z" fill="#E97272"/>
<path d="M21.6425 117.18C23.1395 119.762 24.6435 122.493 26.1225 125.029C26.4345 125.564 26.661 125.901 26.906 126.352C29.721 131.529 33.581 136.645 38.979 139.271C40.5175 140.019 42.106 140.77 43.5615 141.693C43.4965 141.744 43.432 141.794 43.3615 141.846C41.9035 140.976 40.2945 140.241 38.7815 139.511C33.351 136.89 29.571 131.645 26.7555 126.462C26.5155 126.02 26.2915 125.687 25.9865 125.16C24.514 122.616 23.006 119.885 21.5105 117.299C21.553 117.256 21.597 117.216 21.6425 117.181V117.18Z" fill="white"/>
<path d="M138.135 39.548C138.186 39.5135 138.252 39.488 138.305 39.4565C138.252 39.522 138.178 39.609 138.13 39.6755C137.931 39.9515 137.625 40.284 137.497 40.571C137.217 41.1965 137.047 41.7895 136.91 42.4245C136.753 43.1565 136.688 43.7725 136.631 44.518C136.586 45.098 136.488 45.628 136.591 46.2515C136.656 46.6405 136.977 47.0975 137.225 47.4605C137.274 47.532 137.554 47.609 137.656 47.6325C137.716 47.538 137.795 47.462 137.807 47.3425C137.818 47.2235 137.743 47.0745 137.702 46.97C137.242 45.791 136.911 44.6515 137.051 43.3845C137.158 42.409 137.431 41.6175 137.935 40.7475C138.238 40.2235 138.714 39.6125 139.05 39.076C139.095 39.059 139.13 39.03 139.168 39.019C139.207 39.0085 139.237 39.0175 139.275 39.007C140.203 38.7435 141.119 38.4785 142 38.068C142.29 37.9325 142.626 37.762 142.913 37.634C143.025 37.584 143.196 37.5445 143.254 37.4815C143.519 37.1925 143.762 37.0695 144.121 37.0065C144.298 36.9755 144.441 36.9365 144.606 36.908C145.251 36.796 145.893 36.7035 146.538 36.6165C146.366 36.7335 146.106 36.8875 145.956 37.0115C145.207 37.631 144.559 38.3915 144.105 39.202C143.683 39.9565 143.38 40.6675 143.118 41.4425C142.931 41.9965 142.851 42.468 143.047 43.0115C143.089 43.1255 143.241 43.1835 143.359 43.1765C143.477 43.1695 143.63 43.0235 143.679 42.926C143.839 42.606 143.971 42.289 144.058 41.951C144.375 40.718 144.872 39.6235 145.526 38.5165C145.866 37.94 146.356 37.3425 146.845 36.8715C147.043 36.68 147.258 36.5515 147.514 36.6345C148.027 36.7995 148.484 36.789 149.023 36.7615C149.261 36.7495 149.527 36.6415 149.754 36.5435C149.981 36.4455 150.189 36.322 150.402 36.199C150.264 36.5475 150.141 36.832 150.301 37.1635C150.461 37.495 150.633 37.697 150.796 38.0195C151 38.422 150.944 38.5415 150.553 38.9035C150.063 39.358 149.378 39.832 148.801 40.2975C148.224 40.763 147.579 41.3425 147.033 41.8515C146.949 41.93 146.839 42.088 146.913 42.174C146.987 42.26 147.132 42.2345 147.267 42.2015C147.402 42.1685 147.577 42.0805 147.732 42.001C148.814 41.448 149.839 40.7855 150.788 40.015C150.917 39.911 151.011 39.7485 151.067 39.6C151.197 39.2595 151.27 38.913 151.374 38.569C151.479 38.7265 151.617 38.911 151.707 39.0665C151.797 39.222 151.845 39.338 151.914 39.495C151.933 39.538 151.941 39.5585 151.952 39.622C151.962 39.6855 151.96 39.762 151.981 39.847C152.066 40.2025 151.974 40.4105 151.737 40.734C151.119 41.5765 150.224 42.221 149.323 42.7555C148.227 43.406 147.174 44.0795 146.016 44.5995C145.669 44.7555 145.327 44.936 145.006 45.1535C144.926 45.2075 144.837 45.341 144.859 45.4465C144.88 45.5515 144.978 45.629 145.081 45.6655C145.184 45.702 145.299 45.686 145.403 45.646C145.765 45.507 146.114 45.37 146.441 45.154C146.99 44.7925 147.523 44.441 148.072 44.063C148.806 43.5575 149.572 43.0655 150.265 42.4855C150.406 42.3675 150.569 42.255 150.726 42.1425C151.257 41.765 151.68 41.371 152.006 40.794C152.01 40.7875 152.075 40.7635 152.09 40.763C152.071 41.139 152.069 41.521 152.029 41.896C152.006 42.1025 151.946 42.3115 151.912 42.5125C151.84 42.95 151.808 43.354 151.753 43.799C151.717 44.088 151.563 44.309 151.331 44.505C151.222 44.597 151.079 44.711 150.955 44.801C150.364 45.232 149.732 45.6845 149.159 46.125C148.269 46.8095 147.421 47.3445 146.394 47.773C145.663 48.0775 144.914 48.257 144.152 48.478C143.95 48.537 143.729 48.6125 143.523 48.717C143.272 48.844 143.269 49.0795 143.409 49.3045C143.731 49.823 144.284 50.2195 144.867 50.051C145.819 49.776 146.453 49.362 147.158 48.732C147.863 48.102 148.448 47.4085 149.136 46.7835C149.825 46.1585 150.502 45.6045 151.11 44.901C150.965 45.3165 151.047 45.6405 151.147 46.0505C151.163 46.118 151.173 46.161 151.179 46.2265C151.237 46.8595 151.145 47.481 151.097 48.122C151.07 48.481 150.931 48.7685 150.69 49.058C150.35 49.465 149.978 49.914 149.654 50.3405C149.469 50.583 149.228 50.773 148.991 50.946C148.658 51.1885 148.336 51.4085 148.015 51.6585C147.938 51.719 147.868 51.798 147.787 51.844C147.052 52.2645 146.397 52.7635 145.568 53.0065C145.427 53.048 145.239 53.075 145.094 53.1805C144.948 53.286 145.017 53.46 145.162 53.544C145.306 53.628 145.521 53.7225 145.663 53.726C146.329 53.743 146.789 53.4895 147.405 53.3185C147.546 53.279 147.638 53.181 147.741 53.0665C148.116 52.6475 148.459 52.228 148.845 51.801C149.563 51.007 150.337 50.2355 150.956 49.347C150.96 49.389 150.935 49.425 150.931 49.465C150.872 50.0785 150.848 50.664 150.854 51.2875C150.862 52.1715 150.821 53.067 150.668 53.95C150.623 54.206 150.536 54.527 150.403 54.7395C150.148 55.146 150.046 55.4925 150.008 55.9615C149.982 56.2865 149.997 56.6155 149.966 56.9515C149.849 58.229 149.6 59.3695 148.814 60.396C148.697 60.5485 148.527 60.6615 148.378 60.657C147.962 60.6455 147.62 60.605 147.246 60.441C146.563 60.142 145.952 59.7605 145.292 59.3745C144.707 59.033 144.113 58.6055 143.506 58.2625C143.394 58.1995 143.208 58.2145 143.078 58.202C143.068 58.373 143.064 58.542 143.073 58.713C143.075 58.7545 143.097 58.804 143.122 58.836C143.374 59.1585 143.581 59.5445 143.87 59.828C144.521 60.4675 145.254 60.843 146.071 61.2465C146.704 61.559 147.318 61.4255 147.948 61.142C148.04 61.101 148.133 61.049 148.221 61.01C147.729 61.7095 147.143 62.4285 146.523 62.9855C145.965 63.4865 145.412 63.7565 144.706 63.828C144.258 63.8735 143.861 63.851 143.592 63.469C143.139 62.8255 142.823 62.0805 142.451 61.379C142.203 60.911 142.005 60.3965 141.742 59.931C141.676 59.814 141.564 59.735 141.47 59.64C141.46 59.667 141.421 59.682 141.418 59.712C141.41 59.778 141.404 59.8695 141.416 59.9355C141.501 60.4385 141.59 60.9655 141.831 61.409C142.072 61.852 142.32 62.26 142.595 62.6655C142.82 62.9965 143.089 63.2615 143.339 63.5635C142.793 63.929 142.283 63.964 141.943 63.364C141.55 62.6705 141.14 62.36 140.421 62.085C139.649 61.7895 139.307 61.408 139.156 60.5215C139.006 59.635 139.141 58.494 139.251 57.5415C139.307 57.0585 139.271 56.445 139.224 55.9495C139.2 55.6985 139.028 55.508 138.845 55.393C138.662 55.278 138.605 55.3705 138.542 55.5415C138.313 56.155 138.359 56.8385 138.376 57.4605C138.389 57.942 138.315 58.377 138.162 58.7645C137.916 59.39 137.478 59.781 136.985 60.0855C136.583 60.3345 136.4 60.279 136.014 60.2115C135.977 60.205 135.965 60.196 135.933 60.19C135.459 60.101 135.007 59.9695 134.544 59.833C134.503 59.779 134.444 59.7705 134.407 59.708C134.371 59.645 134.386 59.599 134.338 59.516C134.036 58.985 133.835 58.436 133.584 57.843C133.465 57.561 133.292 57.095 133.192 56.7955C133.092 56.4955 133.019 56.285 132.729 56.17C132.439 56.055 132.192 56.0835 131.941 55.819C131.301 55.144 130.803 54.3005 130.506 53.3495C130.128 52.142 129.975 50.771 129.89 49.4915C129.842 48.77 129.889 48.032 129.892 47.344C129.893 47.119 129.893 46.93 129.875 46.7655C129.822 46.2745 129.8 45.9535 130.091 45.523C131.031 44.129 132.02 43.2305 133.451 42.3285C133.428 42.367 133.35 42.461 133.326 42.492C133.11 42.7745 132.727 43.1565 132.635 43.467C132.319 44.5275 132.297 45.284 132.435 46.441C132.502 47.0085 133.695 48.112 134.233 48.512C134.327 48.5815 134.607 48.712 134.738 48.7405C134.705 48.591 134.596 48.238 134.521 48.1255C134.144 47.562 133.62 46.684 133.437 46.172C132.926 44.748 133.426 43.7655 133.671 42.357C133.733 42 134.149 41.5825 134.566 41.396C134.69 41.3405 134.911 41.2135 135.083 41.131C135.94 40.717 136.834 40.286 137.697 39.8515C137.852 39.7735 137.995 39.645 138.141 39.5465L138.135 39.548ZM150.071 55.237C150.063 55.205 150.053 55.1765 150.045 55.1465C149.986 55.184 149.932 55.231 149.871 55.264C149.448 55.4895 149.107 55.779 148.626 55.892C147.573 56.14 146.642 56.2255 145.524 56.0605C145.174 56.009 144.58 55.8855 144.186 55.8205C144.117 55.809 143.973 55.8105 143.938 55.8805C143.902 55.9505 143.954 56.0565 144.008 56.1015C144.187 56.248 144.415 56.4215 144.612 56.5185C145.019 56.7195 145.481 56.8795 145.853 57.084C146.294 57.326 146.682 57.358 147.13 57.2245C147.579 57.091 147.932 56.919 148.349 56.7405C148.919 56.497 149.366 56.1275 149.775 55.6565C149.877 55.54 149.977 55.367 150.071 55.237H150.071ZM130.006 47.238C130.002 47.306 130.008 47.517 130.016 47.5715C130.148 48.4835 130.455 49.6435 130.992 50.2765C131.836 51.271 132.65 51.506 133.748 51.9375C133.811 51.9625 133.858 51.969 133.917 51.9415C133.977 51.914 134.036 51.856 134.068 51.793C134.085 51.76 134.031 51.6535 134.04 51.608C132.554 50.2255 131.083 48.965 130.006 47.238ZM140.991 41.309C140.966 41.315 140.945 41.319 140.918 41.325C140.706 41.7895 140.406 42.265 140.219 42.73C139.88 43.57 139.803 44.4245 139.842 45.326C139.85 45.5085 139.997 45.685 140.143 45.825C140.223 45.9015 140.43 45.947 140.551 45.91C140.672 45.873 140.799 45.723 140.805 45.615C140.823 45.2975 140.835 44.9745 140.829 44.6775C140.811 43.8145 140.792 43.015 140.878 42.1635C140.907 41.8735 140.941 41.5945 140.991 41.3085V41.309ZM133.322 56.2585C133.507 56.712 133.936 57.47 134.362 57.62C135.193 57.9125 135.426 57.4955 135.764 56.8735C135.794 56.8185 135.804 56.726 135.795 56.641C135.775 56.465 135.754 56.2035 135.669 56.043C135.585 55.8825 135.436 55.7395 135.292 55.6765C135.147 55.6135 135.038 55.66 134.918 55.703C134.518 55.8445 134.157 56.0095 133.757 56.1435C133.621 56.189 133.455 56.215 133.321 56.258L133.322 56.2585ZM141.127 52.9235C141.33 53.0455 141.565 53.2365 141.784 53.3005C142.347 53.464 142.907 53.584 143.464 53.673C143.599 53.6945 143.797 53.6705 143.818 53.5215C143.84 53.3725 143.696 53.1955 143.584 53.076C143.471 52.956 143.301 52.8555 143.142 52.782C142.774 52.612 142.402 52.422 142.019 52.282C141.812 52.206 141.604 52.151 141.379 52.155C140.839 52.1645 140.875 52.5455 141.128 52.924L141.127 52.9235ZM141.973 50.5285C141.983 50.543 142.01 50.5715 142.042 50.5955C142.434 50.884 143.079 51.101 143.519 50.8205C143.639 50.7435 143.605 50.5245 143.547 50.436C143.188 49.8805 142.604 49.6045 141.998 49.9565C141.76 50.0945 141.841 50.342 141.973 50.529L141.973 50.5285ZM140.777 54.8225C141.111 54.9655 141.43 55.1095 141.771 55.238C141.856 55.27 141.97 55.2415 142.062 55.2365C142.023 55.145 142.007 54.999 141.921 54.942C141.611 54.737 141.28 54.5515 140.957 54.3895C140.87 54.346 140.722 54.323 140.681 54.4275C140.64 54.532 140.756 54.7135 140.777 54.823V54.8225ZM136.758 50.9725C136.773 50.9905 136.747 50.985 136.756 50.9925C136.939 51.158 137.137 51.3585 137.337 51.489C137.432 51.551 137.578 51.5745 137.655 51.5085C137.733 51.442 137.655 51.26 137.589 51.18C137.395 50.948 137.175 50.69 136.928 50.4925C136.78 50.3745 136.586 50.3825 136.409 50.3395C136.49 50.523 136.584 50.7035 136.678 50.8785C136.696 50.9125 136.743 50.954 136.757 50.972L136.758 50.9725Z" fill="#E97272"/>
<path d="M149.256 37.4465C148.005 38.854 146.666 40.2955 145.438 41.6835C145.179 41.9765 145.022 42.179 144.8 42.415C142.254 45.126 139.951 48.451 139.445 52.2055C139.301 53.2755 139.164 54.376 138.899 55.431C138.856 55.402 138.813 55.3735 138.768 55.3415C139.001 54.2955 139.123 53.186 139.261 52.135C139.758 48.362 142.154 45.0595 144.704 42.347C144.921 42.116 145.076 41.9155 145.332 41.6285C146.566 40.243 147.904 38.799 149.158 37.3915C149.192 37.4085 149.225 37.427 149.255 37.447L149.256 37.4465Z" fill="#E97272"/>
<path d="M69.1689 161.8H123.621L121.116 125.976H73.5369L70.3184 150.304L69.1689 161.8Z" fill="#F2E6E4"/>
<path d="M97.861 56.0445C105.015 56.0445 110.815 50.2448 110.815 43.0905C110.815 35.9362 105.015 30.1365 97.861 30.1365C90.7067 30.1365 84.907 35.9362 84.907 43.0905C84.907 50.2448 90.7067 56.0445 97.861 56.0445Z" fill="#703630"/>
<path d="M97.861 62.018C105.015 62.018 110.815 56.2183 110.815 49.064C110.815 41.9097 105.015 36.11 97.861 36.11C90.7067 36.11 84.907 41.9097 84.907 49.064C84.907 56.2183 90.7067 62.018 97.861 62.018Z" fill="#F2E6E4"/>
<path d="M123.823 71.2299C123.746 85.1494 109.886 101.272 96.3404 101.272C82.7944 101.272 68.4109 85.0254 68.9669 71.1169C69.9524 46.4754 85.7509 40.1744 99.2964 40.1744C112.842 40.1744 123.932 51.4264 123.823 71.2294L123.823 71.2299Z" fill="#894E45"/>
<path d="M90.7985 95.8895H102.676V113.591H90.7985V95.8895Z" fill="#F4B683"/>
<path d="M90.7985 95.8895H102.676V113.591H90.7985V95.8895Z" fill="#F4B683"/>
<path d="M102.676 96.58C102.384 96.332 102.076 96.102 101.757 95.8895H91.696C91.335 96.342 91.028 96.8865 90.7985 97.465V101.407C91.381 102.424 92.4395 103.158 93.4885 103.737C95.206 104.685 97.0795 105.421 99.037 105.556C100.269 105.641 101.539 105.468 102.677 105.003V96.58H102.676Z" fill="#D56734"/>
<path d="M96.7374 82.0205C106.388 82.0205 114.211 74.1973 114.211 64.547C114.211 54.8966 106.388 47.0735 96.7374 47.0735C87.0871 47.0735 79.2639 54.8966 79.2639 64.547C79.2639 74.1973 87.0871 82.0205 96.7374 82.0205Z" fill="#F4B683"/>
<path d="M96.7374 101.329C106.388 101.329 114.211 93.5058 114.211 83.8555C114.211 74.2051 106.388 66.382 96.7374 66.382C87.0871 66.382 79.2639 74.2051 79.2639 83.8555C79.2639 93.5058 87.0871 101.329 96.7374 101.329Z" fill="#F4B683"/>
<path d="M79.2639 63.948H114.211V85.309H79.2639V63.948Z" fill="#F4B683"/>
<path d="M119.504 77.3874C117.167 73.2434 113.554 78.5209 113.554 78.5209L112.385 88.2409C118.548 86.8744 121.842 81.5319 119.504 77.3874Z" fill="#F4B683"/>
<path d="M113.872 80.735C113.872 80.735 115.679 77.441 117.379 78.4505C119.079 79.46 118.707 84.6665 113.5 85.7295L113.872 80.735Z" fill="#E38859"/>
<path d="M74.3515 77.3874C76.689 73.2434 80.302 78.5209 80.302 78.5209L81.471 88.2409C75.308 86.8744 72.014 81.5319 74.3515 77.3874Z" fill="#F4B683"/>
<path d="M79.983 80.735C79.983 80.735 78.1765 77.441 76.4765 78.4505C74.7765 79.46 75.148 84.6665 80.355 85.7295L79.983 80.735Z" fill="#E38859"/>
<path d="M103.094 100.137C102.145 100.654 101.115 101.025 100.056 101.277C98.9965 101.528 97.9045 101.653 96.8135 101.658C95.722 101.663 94.6295 101.546 93.5675 101.305C92.5065 101.062 91.4735 100.7 90.5205 100.19C91.5705 100.442 92.6115 100.656 93.66 100.794C94.7075 100.934 95.759 101.002 96.811 100.998C97.863 100.995 98.914 100.918 99.96 100.769C101.008 100.623 102.047 100.399 103.094 100.137Z" fill="#D56734"/>
<path d="M102.584 79.214C102.584 80.2605 103.269 81.1085 104.113 81.1085C104.958 81.1085 105.643 80.2605 105.643 79.214C105.643 78.1675 104.958 77.3195 104.113 77.3195C103.269 77.3195 102.584 78.168 102.584 79.214Z" fill="#3A3944"/>
<path d="M104.901 77.996C105.063 78.097 105.271 78.0955 105.459 78.032C105.653 77.973 105.805 77.828 105.913 77.6735C106.018 77.5135 106.074 77.3375 106.089 77.161C106.101 76.9845 106.085 76.811 106.014 76.6425C105.813 76.9465 105.708 77.223 105.55 77.4445C105.403 77.671 105.24 77.8465 104.902 77.996H104.901ZM89.6394 79.214C89.6394 80.2605 88.9544 81.1085 88.1099 81.1085C87.2654 81.1085 86.5804 80.2605 86.5804 79.214C86.5804 78.1675 87.2654 77.3195 88.1099 77.3195C88.9544 77.3195 89.6394 78.168 89.6394 79.214Z" fill="#3A3944"/>
<path d="M87.3219 77.996C87.1604 78.097 86.9519 78.0955 86.7644 78.032C86.5704 77.973 86.4179 77.828 86.3104 77.6735C86.2054 77.5135 86.1489 77.3375 86.1339 77.161C86.1224 76.9845 86.1379 76.811 86.2089 76.6425C86.4099 76.9465 86.5154 77.223 86.6729 77.4445C86.8199 77.671 86.9829 77.8465 87.3214 77.996H87.3219Z" fill="#3A3944"/>
<path d="M96.684 81.3145C96.756 82.08 96.7565 82.8369 96.7365 83.5914C96.714 84.3454 96.6645 85.096 96.5965 85.8435L96.5425 86.403L96.4835 86.9604L96.4675 87.0995L96.4615 87.2219C96.459 87.3029 96.4465 87.3854 96.4565 87.4659C96.464 87.5464 96.4585 87.6299 96.478 87.7094L96.4975 87.831C96.501 87.8515 96.5035 87.8719 96.5075 87.8919L96.525 87.9515C96.6885 88.5975 97.1365 89.2005 97.71 89.703C97.524 89.6505 97.3465 89.5679 97.176 89.4719C97.088 89.4269 97.009 89.369 96.9255 89.3155C96.8475 89.2555 96.765 89.1985 96.691 89.131C96.389 88.8695 96.13 88.5355 95.965 88.145C95.8835 87.9505 95.8235 87.743 95.795 87.5305C95.772 87.4245 95.7725 87.3179 95.769 87.2109L95.7655 87.051L95.7705 86.9085C95.777 86.718 95.7905 86.529 95.8005 86.34L95.846 85.7745C95.9155 85.022 96.0165 84.274 96.149 83.5299C96.285 82.7864 96.446 82.0455 96.684 81.3145Z" fill="#D56734"/>
<path d="M84.547 74.0595C85.097 72.8775 86.4655 72.109 87.851 72.1515C88.537 72.1955 89.2105 72.3775 89.7745 72.7275C90.0665 72.881 90.3075 73.113 90.5585 73.311C90.7815 73.549 90.9935 73.792 91.172 74.0595C90.851 73.9715 90.571 73.847 90.2885 73.7395C89.996 73.655 89.727 73.535 89.4485 73.4635C88.897 73.299 88.357 73.2045 87.8205 73.1815C87.2825 73.1495 86.7485 73.2415 86.205 73.383C85.661 73.536 85.121 73.7655 84.547 74.0595ZM101.589 74.0595C102.139 72.8775 103.508 72.109 104.893 72.1515C105.579 72.1955 106.253 72.3775 106.817 72.7275C107.109 72.881 107.349 73.113 107.6 73.311C107.823 73.549 108.036 73.792 108.214 74.0595C107.893 73.9715 107.613 73.847 107.331 73.7395C107.038 73.655 106.769 73.535 106.491 73.4635C105.939 73.299 105.399 73.2045 104.862 73.1815C104.324 73.1495 103.79 73.2415 103.247 73.383C102.703 73.536 102.163 73.7655 101.589 74.0595Z" fill="#894E45"/>
<path d="M102.155 48.0885C102.219 48.354 102.283 48.6185 102.363 48.8795C102.848 50.4695 103.537 57.1475 98.093 62.0185C91.852 67.6025 78.056 66.9455 75.9755 78.114C75.9755 78.114 64.385 56.221 85.02 45.98C87.755 44.6225 90.7565 43.86 93.8095 43.892C96.944 43.9245 101.314 44.637 102.155 48.0885Z" fill="#A36356"/>
<path d="M101.925 53.6975C101.925 53.6975 99.078 61.143 107.619 65.7415C116.159 70.34 115.94 80.742 115.94 80.742C115.94 80.742 122.4 72.749 116.926 56.8725C111.451 40.996 100.94 46.361 100.064 47.675C99.1875 48.989 101.925 53.697 101.925 53.697V53.6975Z" fill="#A36356"/>
<path d="M119.191 116.042C113.347 115.847 101.854 108.25 101.854 108.25L96.9845 108.493L92.1145 108.25C92.1145 108.25 80.6215 115.847 74.7775 116.042C68.9335 116.237 63.4795 117.405 63.0895 125.976H130.878C130.489 117.405 125.034 116.236 119.19 116.042H119.191Z" fill="#F4B683"/>
<path d="M79.1389 117.091C80.6774 116.979 82.2189 116.914 83.7614 116.871C85.3044 116.835 86.8484 116.825 88.3944 116.882C89.1674 116.91 89.9409 116.952 90.7144 117.038C91.1014 117.079 91.4879 117.134 91.8749 117.205C92.0684 117.246 92.2619 117.284 92.4559 117.342C92.5044 117.356 92.5529 117.367 92.6014 117.384L92.7469 117.436C92.8469 117.469 92.9349 117.509 93.0239 117.547C93.3839 117.697 93.7349 117.865 94.0839 118.031C94.4319 118.197 94.7759 118.367 95.1209 118.506C95.4659 118.645 95.8134 118.741 96.1689 118.761C96.5244 118.782 96.8874 118.736 97.2474 118.645L97.3829 118.614L97.5179 118.575L97.7874 118.497L98.0554 118.405L98.1894 118.359C98.2109 118.351 98.2359 118.343 98.2549 118.336L98.3094 118.313C98.4594 118.246 98.6239 118.142 98.7869 118.043C98.9514 117.943 99.1194 117.841 99.2919 117.745C99.4649 117.648 99.6439 117.558 99.8274 117.476C100.013 117.398 100.202 117.323 100.401 117.27C100.498 117.24 100.6 117.222 100.7 117.199L100.853 117.175L100.93 117.164L101.002 117.157L101.582 117.102C102.355 117.033 103.129 116.995 103.901 116.966C104.674 116.938 105.447 116.926 106.219 116.926C107.763 116.92 109.306 116.958 110.848 117.016C112.39 117.079 113.93 117.161 115.468 117.286C113.926 117.263 112.385 117.242 110.844 117.242C109.303 117.237 107.762 117.249 106.224 117.285C104.686 117.329 103.147 117.382 101.623 117.536L101.053 117.595L100.981 117.602L100.915 117.613L100.783 117.633C100.695 117.655 100.607 117.669 100.521 117.697C100.346 117.744 100.176 117.813 100.008 117.884C99.8404 117.96 99.6749 118.044 99.5119 118.136C99.3489 118.228 99.1869 118.327 99.0229 118.428C98.8569 118.528 98.6959 118.634 98.4949 118.727L98.4164 118.76C98.3909 118.771 98.3694 118.777 98.3454 118.786L98.2064 118.834L97.9279 118.931L97.6429 119.016L97.5004 119.058L97.3539 119.091C96.9674 119.187 96.5564 119.24 96.1419 119.213C95.7269 119.189 95.3229 119.072 94.9549 118.921C94.5854 118.77 94.2384 118.597 93.8919 118.429C93.5459 118.262 93.2014 118.097 92.8519 117.944C92.7649 117.905 92.6769 117.865 92.5944 117.837L92.4684 117.789C92.4264 117.774 92.3804 117.763 92.3364 117.749C92.1614 117.694 91.9769 117.655 91.7939 117.614C91.4239 117.54 91.0474 117.482 90.6684 117.436C89.9104 117.343 89.1444 117.284 88.3779 117.238C86.8439 117.15 85.3039 117.112 83.7634 117.094C82.2229 117.074 80.6814 117.078 79.1394 117.089L79.1389 117.091Z" fill="#D56734"/>
<g style="mix-blend-mode:multiply">
<path d="M70.1234 79.0304C70.1234 79.0304 71.5519 68.7065 95.2524 57.603C95.2524 57.603 112.005 61.1744 122.848 76.758C122.848 76.758 123.433 76.0435 123.433 75.2645C123.433 74.4855 115.381 57.1484 115.381 57.1484L96.0964 47.4084H89.2134L74.0844 62.0184C74.0844 62.0184 68.1104 72.7969 70.1234 79.0304Z" fill="#CCCCCC"/>
</g>
<path d="M99.0185 54.8754C99.0185 54.8754 69.2795 67.3424 69.799 79.6794C69.799 79.6794 65.124 62.7969 73.825 52.6674C82.526 42.5379 99.0185 54.8749 99.0185 54.8749V54.8754Z" fill="#F7EEED"/>
<path d="M70.3185 56.91C70.3185 56.91 102.801 47.603 123.419 75.524C123.419 75.524 126.249 59.421 116.277 50.0705C106.304 40.7205 82.8515 33.924 70.3185 56.91Z" fill="#F2E6E4"/>
<path d="M72.334 107.558L56.1455 151.655L67.054 152.44C67.054 152.44 76.8085 115.271 80.5905 107.626L72.334 107.558Z" fill="#F4B683"/>
<path d="M68.529 157.157C68.9301 154.872 66.2797 152.498 62.609 151.853C58.9384 151.209 55.6375 152.538 55.2364 154.822C54.8352 157.107 57.4857 159.481 61.1563 160.126C64.827 160.77 68.1278 159.441 68.529 157.157Z" fill="#F4B683"/>
<path d="M76.9192 123.549C77.3204 121.265 74.6699 118.89 70.9993 118.246C67.3286 117.601 64.0278 118.93 63.6266 121.215C63.2255 123.499 65.8759 125.873 69.5466 126.518C73.2172 127.163 76.5181 125.833 76.9192 123.549Z" fill="#F4B683"/>
<path d="M63.665 121.029L76.8795 123.729L68.411 157.543L55.1965 154.843L63.665 121.029Z" fill="#F4B683"/>
<path d="M76.804 90.447C77.3445 89.539 78.002 88.7065 78.657 87.8775C79.2235 87.1605 79.7955 86.438 80.499 85.855C80.587 85.782 80.6785 85.7095 80.7715 85.6365C81.502 85.065 80.6945 83.9305 79.9315 84.4585C79.098 85.0355 78.333 85.75 77.6045 86.424C76.5055 87.441 75.4175 88.4685 74.3585 89.527C74.1985 89.687 74.044 89.856 73.9555 90.0625C73.8355 90.3425 73.8495 90.6585 73.8605 90.963C73.9335 93.013 73.771 95.0715 73.3765 97.0845C75.337 95.283 75.483 92.668 76.8045 90.4475L76.804 90.447Z" fill="#E38859"/>
<path d="M77.1575 92.905C77.591 91.941 78.149 91.0395 78.705 90.1405C79.186 89.3635 79.672 88.5805 80.304 87.921C80.3835 87.8385 80.4655 87.7555 80.5495 87.673C81.2105 87.022 80.278 85.987 79.581 86.5985C78.8185 87.267 78.14 88.064 77.493 88.8165C76.517 89.952 75.5535 91.097 74.622 92.2695C74.4815 92.4465 74.347 92.632 74.283 92.8475C74.1955 93.139 74.2455 93.452 74.291 93.753C74.5975 95.7815 74.6705 97.845 74.5085 99.89C76.251 97.8765 76.0975 95.262 77.157 92.905H77.1575ZM81.1015 100.833C80.9515 100.152 80.763 99.473 80.731 98.78C80.6175 96.3505 82.4165 93.934 81.7435 91.5745C81.614 91.12 81.3085 90.6235 80.751 90.5435C80.0205 90.438 79.4765 91.092 79.1725 91.6565C78.259 93.354 77.591 95.1395 77.187 96.9615C77.055 97.5565 76.9445 98.1715 76.5755 98.6965C76.3075 99.078 75.9175 99.3895 75.569 99.7245C73.0915 102.104 72.3805 108.08 76.6505 109.562C81.792 111.345 81.579 103.002 81.102 100.833H81.1015Z" fill="#E38859"/>
<path d="M75.893 96.891C75.7745 96.546 75.7735 96.173 75.7735 95.808C75.7735 93.925 75.773 92.042 75.7725 90.1595C75.7725 89.861 75.7735 89.5555 75.875 89.275C76.0265 88.856 76.3785 88.5485 76.7035 88.244C78.108 86.9275 79.234 85.3165 79.997 83.5495C80.2665 82.9255 79.485 82.3635 78.9775 82.8155C78.7545 83.014 78.5415 83.2255 78.333 83.434C76.9115 84.856 75.4895 86.278 74.068 87.7C73.7195 88.0485 73.3665 88.403 73.13 88.835C72.7555 89.5195 72.708 90.3275 72.633 91.1045C72.445 93.0575 72.035 94.9828 71.411 96.843C71.267 97.2715 71.111 97.701 71.0615 98.15C70.995 98.755 71.1255 99.3625 71.2415 99.9605C71.898 103.352 72.0955 106.815 72.318 110.261C76.426 110.212 74.699 110.233 78.807 110.184C78.8785 107.612 78.673 105.033 78.1975 102.504C77.999 101.448 77.827 100.298 77.396 99.307C77.017 98.435 76.198 97.781 75.893 96.892V96.891Z" fill="#F4B683"/>
<path d="M67.1724 157.276C67.2699 156.865 76.9669 116.044 80.7019 107.687L80.4784 107.588C76.7349 115.965 67.0324 156.808 66.9349 157.22L67.1724 157.277V157.276ZM56.2614 151.69L72.4499 107.593L72.2179 107.523L56.0294 151.62L56.2614 151.69Z" fill="#D56734"/>
<path d="M131.587 125.405C131.635 122.636 128.652 120.338 124.923 120.273C121.194 120.208 118.132 122.4 118.084 125.17C118.036 127.939 121.019 130.237 124.748 130.302C128.477 130.367 131.539 128.175 131.587 125.405Z" fill="#F4B683"/>
<path d="M131.578 125.039L118.098 125.54L121.433 161.985L134.946 161.843L131.578 125.039Z" fill="#F4B683"/>
<path d="M97.0495 97.968C97.6297 97.968 98.1 96.8843 98.1 95.5474C98.1 94.2106 97.6297 93.127 97.0495 93.127C96.4693 93.127 95.999 94.2106 95.999 95.5474C95.999 96.8843 96.4693 97.968 97.0495 97.968Z" fill="#D56734"/>
<path d="M132.995 121.029L127.596 161.8H141.5L142.366 121.029H132.995Z" fill="#F4B683"/>
<path d="M127.72 161.816L127.472 161.783L132.885 120.904H142.494L142.491 121.031L141.625 161.802L141.375 161.797L142.238 121.154H133.104L127.72 161.816Z" fill="#D56734"/>
<path d="M132.842 121.675C132.98 121.954 133.128 122.241 133.38 122.436C133.638 122.634 133.973 122.712 134.298 122.78C136.752 123.292 139.434 123.491 141.677 122.423C142.03 122.255 142.376 122.05 142.606 121.747C142.863 121.41 142.95 120.986 143.02 120.575C143.583 117.284 143.471 113.928 143.357 110.597C143.344 110.224 143.323 109.827 143.093 109.524C142.8 109.137 142.255 109.014 141.756 108.946C139.542 108.644 137.289 108.856 135.064 109.068C132.09 109.352 128.045 108.587 129.074 112.315C129.962 115.531 131.388 118.658 132.842 121.674L132.842 121.675Z" fill="#F4B683"/>
<path d="M136.231 101.6L143.213 95.1314C143.573 94.7984 144.02 94.4394 144.497 94.5499C144.923 94.6484 145.18 95.0909 145.279 95.5164C145.516 96.5309 145.133 97.6099 144.504 98.4404C143.875 99.2704 143.021 99.8964 142.179 100.51C141.031 101.347 139.882 102.184 138.734 103.021C138.166 103.435 137.558 103.864 136.858 103.919C136.157 103.973 135.365 103.481 135.371 102.779L136.231 101.6H136.231Z" fill="#E38859"/>
<path d="M130.281 80.4635H143.456L141.065 109.008H132.649L130.281 80.4635Z" fill="#E6E6E6"/>
<path d="M139.582 115.331H134.131C133.301 115.331 132.627 114.657 132.627 113.827V108.987H141.085V113.827C141.085 114.197 140.951 114.537 140.729 114.799C140.453 115.124 140.041 115.331 139.582 115.331Z" fill="#999999"/>
<path d="M130.26 78.624H143.455V80.4425H130.26V78.624Z" fill="#B5B5B5"/>
<path d="M131.764 78.7295H130.894C130.894 78.7295 130.81 80.294 131.329 80.34C131.848 80.386 131.763 78.7295 131.763 78.7295H131.764ZM132.99 78.7295H132.121C132.121 78.7295 132.036 80.294 132.555 80.34C133.075 80.386 132.99 78.7295 132.99 78.7295H132.99ZM134.217 78.7295H133.347C133.347 78.7295 133.263 80.294 133.782 80.34C134.301 80.386 134.216 78.7295 134.216 78.7295H134.217ZM135.443 78.7295H134.573C134.573 78.7295 134.489 80.294 135.008 80.34C135.527 80.386 135.442 78.7295 135.442 78.7295H135.443ZM136.669 78.7295H135.8C135.8 78.7295 135.715 80.294 136.234 80.34C136.754 80.386 136.669 78.7295 136.669 78.7295H136.669ZM137.896 78.7295H137.026C137.026 78.7295 136.942 80.294 137.461 80.34C137.98 80.386 137.895 78.7295 137.895 78.7295H137.896ZM139.122 78.7295H138.253C138.253 78.7295 138.168 80.294 138.687 80.34C139.207 80.386 139.122 78.7295 139.122 78.7295H139.122ZM140.349 78.7295H139.479C139.479 78.7295 139.395 80.294 139.914 80.34C140.433 80.386 140.348 78.7295 140.348 78.7295H140.349ZM141.575 78.7295H140.705C140.705 78.7295 140.621 80.294 141.14 80.34C141.659 80.386 141.574 78.7295 141.574 78.7295H141.575ZM142.801 78.7295H141.932C141.932 78.7295 141.847 80.294 142.366 80.34C142.886 80.386 142.801 78.7295 142.801 78.7295H142.801Z" fill="#CCCCCC"/>
<path d="M132.649 109.008H141.064V109.769H132.649V109.008Z" fill="#7F7E7E"/>
<path d="M128.913 111.566C128.805 110.607 129.242 109.682 129.607 108.788C130.556 106.46 131.073 103.956 131.124 101.443C132.412 101.439 133.51 102.555 133.821 103.805C134.132 105.055 133.803 106.382 133.279 107.559C133.131 107.89 132.965 108.245 133.042 108.599C133.124 108.977 133.456 109.237 133.746 109.493C134.612 110.258 135.278 111.309 135.362 112.462C135.445 113.614 134.847 114.846 133.786 115.303C131.566 116.26 129.151 113.678 128.913 111.566ZM140.112 101.183C139.098 102.051 138.203 103.05 137.451 104.154C137.111 104.653 136.798 105.322 137.129 105.828C137.265 106.036 137.49 106.172 137.727 106.249C138.738 106.577 139.78 105.923 140.643 105.302C140.904 105.113 141.166 104.925 141.428 104.736C142.34 104.079 144.297 102.635 143.635 101.247C142.985 99.882 140.969 100.449 140.112 101.182V101.183Z" fill="#F4B683"/>
<path d="M140.112 104.735C139.098 105.604 138.203 106.603 137.451 107.706C137.111 108.206 136.798 108.875 137.129 109.381C137.265 109.589 137.49 109.725 137.727 109.801C138.738 110.129 139.78 109.476 140.643 108.854C140.904 108.666 141.166 108.477 141.428 108.288C142.34 107.631 144.297 106.188 143.635 104.8C142.985 103.434 140.969 104.002 140.112 104.735V104.735Z" fill="#F4B683"/>
<path d="M140.112 109.049C139.098 109.917 138.203 110.916 137.451 112.02C137.111 112.519 136.798 113.188 137.129 113.694C137.265 113.902 137.49 114.038 137.727 114.115C138.738 114.443 139.78 113.789 140.643 113.168C140.904 112.979 141.166 112.791 141.428 112.602C142.34 111.945 144.297 110.501 143.635 109.113C142.985 107.748 140.969 108.315 140.112 109.048V109.049Z" fill="#F4B683"/>
<path d="M108.731 52.6489C109.348 53.0644 109.954 53.5034 110.589 53.8934C111.907 54.7034 112.895 54.6474 114.1 53.6944C114.685 53.2319 115.234 52.7254 115.867 52.1804C115.45 52.7979 115.067 53.3444 114.705 53.9044C113.746 55.3874 113.795 56.3949 114.909 57.7684C115.365 58.3309 115.858 58.8624 116.34 59.4144C115.72 58.9949 115.116 58.5629 114.489 58.1684C113.049 57.2619 112.042 57.3269 110.728 58.4034C110.199 58.8369 109.692 59.2969 109.165 59.7534C109.65 58.9874 110.148 58.2519 110.592 57.4844C111.13 56.5539 111.065 55.6089 110.437 54.7514C109.892 54.0079 109.277 53.3164 108.731 52.6489H108.731ZM115.235 81.7299C115.304 82.2464 115.356 82.7674 115.446 83.2814C115.635 84.3484 116.123 84.8399 117.183 85.0279C117.696 85.1189 118.217 85.1714 118.797 85.2494C118.279 85.3179 117.815 85.3714 117.354 85.4419C116.132 85.6294 115.627 86.1229 115.425 87.3449C115.342 87.8449 115.293 88.3509 115.228 88.8599C115.159 88.3399 115.105 87.8234 115.021 87.3114C114.826 86.1359 114.324 85.6384 113.149 85.4509C112.676 85.3754 112.2 85.3234 111.716 85.2599C112.342 85.1579 112.959 85.0774 113.567 84.9529C114.304 84.8019 114.769 84.3289 114.926 83.6014C115.063 82.9709 115.139 82.3269 115.234 81.7309L115.235 81.7299ZM125.381 67.8879C125.135 68.3474 124.873 68.8004 124.646 69.2704C124.176 70.2464 124.285 70.9309 125.035 71.7024C125.399 72.0764 125.791 72.4229 126.216 72.8254C125.756 72.5784 125.348 72.3509 124.932 72.1384C123.83 71.5764 123.132 71.6819 122.255 72.5554C121.895 72.9129 121.56 73.2949 121.21 73.6699C121.458 73.2079 121.716 72.7569 121.946 72.2919C122.475 71.2244 122.358 70.5269 121.515 69.6884C121.175 69.3509 120.819 69.0304 120.463 68.6959C121.031 68.9789 121.579 69.2744 122.145 69.5284C122.832 69.8369 123.485 69.7244 124.038 69.2259C124.517 68.7939 124.955 68.3159 125.381 67.8879H125.381ZM56.016 72.1374C56.085 72.6539 56.137 73.1749 56.2275 73.6889C56.416 74.7559 56.9045 75.2474 57.964 75.4354C58.4775 75.5264 58.9985 75.5789 59.578 75.6569C59.0605 75.7254 58.5965 75.7789 58.135 75.8494C56.9125 76.0369 56.408 76.5304 56.206 77.7524C56.1235 78.2524 56.0745 78.7584 56.0095 79.2674C55.9405 78.7474 55.8865 78.2309 55.802 77.7189C55.6075 76.5434 55.105 76.0459 53.9305 75.8584C53.4575 75.7829 52.981 75.7309 52.497 75.6674C53.1235 75.5654 53.7405 75.4849 54.3485 75.3604C55.0855 75.2094 55.5505 74.7364 55.7075 74.0089C55.844 73.3784 55.92 72.7344 56.0155 72.1384L56.016 72.1374ZM73.111 88.0654C72.7065 88.6899 72.279 89.3034 71.9005 89.9454C71.1145 91.2784 71.189 92.2654 72.164 93.4524C72.637 94.0284 73.1535 94.5679 73.7105 95.1909C73.085 94.7849 72.532 94.4119 71.9655 94.0604C70.465 93.1294 69.4585 93.1964 68.1055 94.3354C67.5515 94.8014 67.029 95.3049 66.486 95.7969C66.894 95.1689 67.315 94.5574 67.698 93.9234C68.578 92.4669 68.4945 91.4609 67.394 90.1669C66.951 89.6459 66.4815 89.1474 66.0155 88.6289C66.7905 89.0994 67.535 89.5849 68.31 90.0144C69.25 90.5349 70.1935 90.4529 71.04 89.8094C71.7735 89.2514 72.4535 88.6234 73.111 88.0654ZM64.4265 42.5184C64.6095 43.8864 64.7465 45.2669 64.987 46.6284C65.486 49.4549 66.7815 50.7574 69.5875 51.2554C70.9485 51.4969 72.328 51.6349 73.864 51.8419C72.493 52.0234 71.263 52.1649 70.0405 52.3524C66.802 52.8489 65.4645 54.1574 64.93 57.3939C64.711 58.7189 64.5815 60.0589 64.409 61.4074C64.227 60.0299 64.083 58.6609 63.8585 57.3049C63.343 54.1904 62.0115 52.8724 58.9005 52.3754C57.6475 52.1754 56.385 52.0379 55.1025 51.8689C56.7625 51.5984 58.397 51.3849 60.0085 51.0549C61.962 50.6554 63.193 49.4019 63.61 47.4739C63.9715 45.8029 64.1725 44.0974 64.4265 42.5179V42.5184ZM128.462 89.0099C128.645 90.3779 128.782 91.7584 129.022 93.1199C129.521 95.9464 130.817 97.2489 133.623 97.7469C134.984 97.9884 136.363 98.1264 137.899 98.3334C136.528 98.5149 135.298 98.6564 134.076 98.8439C130.837 99.3404 129.5 100.649 128.965 103.885C128.746 105.21 128.617 106.55 128.444 107.899C128.262 106.521 128.118 105.152 127.894 103.796C127.378 100.682 126.047 99.3639 122.936 98.8669C121.683 98.6669 120.42 98.5294 119.138 98.3604C120.798 98.0899 122.432 97.8764 124.044 97.5464C125.997 97.1469 127.228 95.8934 127.645 93.9654C128.007 92.2944 128.208 90.5889 128.462 89.0094V89.0099ZM53.023 94.7119C53.206 96.0799 53.343 97.4604 53.5835 98.8219C54.0825 101.648 55.378 102.951 58.184 103.449C59.545 103.69 60.9245 103.828 62.4605 104.035C61.0895 104.217 59.8595 104.358 58.637 104.546C55.3985 105.042 54.061 106.351 53.5265 109.587C53.3075 110.912 53.178 112.252 53.0055 113.601C52.8235 112.223 52.6795 110.854 52.455 109.498C51.9395 106.384 50.608 105.066 47.497 104.569C46.244 104.369 44.9815 104.231 43.699 104.062C45.359 103.792 46.9935 103.578 48.605 103.248C50.5585 102.849 51.7895 101.595 52.2065 99.6674C52.568 97.9964 52.769 96.2909 53.023 94.7114V94.7119Z" fill="#F9D88F"/>
</svg>
