<svg xmlns="http://www.w3.org/2000/svg" enable-background="new 0 0 1364 960" viewBox="0 0 1364 960"><path fill="#554d93" d="M1120.11,576.12L983.23,837.1L846.7,765.5c-5.95-3.12-8.24-10.47-5.12-16.42l125.58-239.43    c3.12-5.95,10.47-8.24,16.42-5.12L1120.11,576.12z"/><path fill="#242466" d="M1085.29,700.96l-19.16,36.52l8.62,4.52c1.11,0.58,2.47,0.15,3.05-0.95l17.05-32.52    c0.58-1.11,0.15-2.47-0.95-3.05L1085.29,700.96z"/><path fill="#242466" d="M908.07,750.69c-5.67,10.81-19.08,14.99-29.89,9.32s-14.99-19.08-9.32-29.89    c5.67-10.81,19.08-14.99,29.89-9.32S913.74,739.88,908.07,750.69z"/><circle cx="888.47" cy="740.41" r="18.81" fill="#ff96be"/><path fill="#242466" d="M951.09,773.25c-5.67,10.81-19.08,14.99-29.89,9.32s-14.99-19.08-9.32-29.89    c5.67-10.81,19.08-14.99,29.89-9.32C952.57,749.03,956.76,762.44,951.09,773.25z"/><circle cx="931.48" cy="762.97" r="18.81" fill="#ff8287"/><path fill="#242466" d="M976.34,725.11c-5.67,10.81-19.08,14.99-29.89,9.32c-10.81-5.67-14.99-19.08-9.32-29.89    c5.67-10.81,19.08-14.99,29.89-9.32C977.83,700.89,982.01,714.3,976.34,725.11z"/><circle cx="956.73" cy="714.82" r="18.81" fill="#cc4b51"/><path fill="#242466" d="M1000.2,679.62c-5.67,10.81-19.08,14.99-29.89,9.32s-14.99-19.08-9.32-29.89    c5.67-10.81,19.08-14.99,29.89-9.32S1005.87,668.81,1000.2,679.62z"/><circle cx="980.59" cy="669.34" r="18.81" fill="#93d4fa"/><path fill="#242466" d="M1024.75,632.8c-5.67,10.81-19.08,14.99-29.89,9.32s-14.99-19.08-9.32-29.89    c5.67-10.81,19.08-14.99,29.89-9.32C1026.24,608.58,1030.42,621.99,1024.75,632.8z"/><circle cx="1005.14" cy="622.52" r="18.81" fill="#c0b0ff"/><path fill="#242466" d="M1049.31,585.99c-5.67,10.81-19.08,14.99-29.89,9.32c-10.81-5.67-14.99-19.08-9.32-29.89    c5.67-10.81,19.08-14.99,29.89-9.32S1054.98,575.17,1049.31,585.99z"/><circle cx="1029.7" cy="575.7" r="18.81" fill="#b87f62"/><path fill="#242466" d="M994.1,795.81c-5.67,10.81-19.08,14.99-29.89,9.32c-10.81-5.67-14.99-19.08-9.32-29.89    c5.67-10.81,19.08-14.99,29.89-9.32C995.59,771.59,999.77,785,994.1,795.81z"/><circle cx="974.49" cy="785.53" r="18.81" fill="#ffb482"/><path fill="#242466" d="M1018.65,749c-5.67,10.81-19.08,14.99-29.89,9.32c-10.81-5.67-14.99-19.08-9.32-29.89    c5.67-10.81,19.08-14.99,29.89-9.32C1020.14,724.77,1024.32,738.18,1018.65,749z"/><circle cx="999.05" cy="738.71" r="18.81" fill="#ffec82"/><path fill="#242466" d="M1043.21,702.18c-5.67,10.81-19.08,14.99-29.89,9.32c-10.81-5.67-14.99-19.08-9.32-29.89    s19.08-14.99,29.89-9.32C1044.7,677.96,1048.88,691.37,1043.21,702.18z"/><circle cx="1023.6" cy="691.89" r="18.81" fill="#e09b77"/><path fill="#242466" d="M1067.76,655.36c-5.67,10.81-19.08,14.99-29.89,9.32c-10.81-5.67-14.99-19.08-9.32-29.89    c5.67-10.81,19.08-14.99,29.89-9.32C1069.25,631.14,1073.43,644.55,1067.76,655.36z"/><circle cx="1048.16" cy="645.08" r="18.81" fill="#e07777"/><path fill="#242466" d="M1093.54,606.22c-5.67,10.81-19.08,14.99-29.89,9.32c-10.81-5.67-14.99-19.08-9.32-29.89    c5.67-10.81,19.08-14.99,29.89-9.32C1095.03,582,1099.21,595.41,1093.54,606.22z"/><circle cx="1073.93" cy="595.94" r="18.81" fill="#d19e84"/><path fill="#242466" d="M932.63,703.88c-5.67,10.81-19.08,14.99-29.89,9.32c-10.81-5.67-14.99-19.08-9.32-29.89    c5.67-10.81,19.08-14.99,29.89-9.32C934.12,679.66,938.3,693.06,932.63,703.88z"/><circle cx="913.02" cy="693.59" r="18.81" fill="#ffb0ed"/><path fill="#242466" d="M957.18,657.06c-5.67,10.81-19.08,14.99-29.89,9.32c-10.81-5.67-14.99-19.08-9.32-29.89    c5.67-10.81,19.08-14.99,29.89-9.32S962.85,646.25,957.18,657.06z"/><circle cx="937.58" cy="646.78" r="18.81" fill="#c2c4ff"/><path fill="#242466" d="M981.74,610.24c-5.67,10.81-19.08,14.99-29.89,9.32s-14.99-19.08-9.32-29.89    c5.67-10.81,19.08-14.99,29.89-9.32C983.23,586.02,987.41,599.43,981.74,610.24z"/><circle cx="962.13" cy="599.96" r="18.81" fill="#ffefbf"/><path fill="#242466" d="M1006.29,563.43c-5.67,10.81-19.08,14.99-29.89,9.32s-14.99-19.08-9.32-29.89    c5.67-10.81,19.08-14.99,29.89-9.32S1011.96,552.61,1006.29,563.43z"/><circle cx="986.69" cy="553.14" r="18.81" fill="#ffd0cf"/><path fill="#242466" d="M1141.77,593.27l-132.12,251.91c-1.31,2.5-4.41,3.47-6.91,2.16l-19.51-10.23l136.88-260.98l19.51,10.23    C1142.12,587.67,1143.09,590.77,1141.77,593.27z"/><rect width="214.83" height="8" x="956.1" y="709.26" fill="#fff" transform="rotate(-62.322 1063.53 713.23)"/><ellipse cx="1115.96" cy="613.25" fill="#ffb482" rx="11.58" ry="9.65" transform="rotate(-62.322 1115.98 613.22)"/><ellipse cx="1011.41" cy="812.59" fill="#ffb482" rx="11.58" ry="9.65" transform="rotate(-62.322 1011.434 812.564)"/><path fill="#ffd5ab" d="M210.05,754.94c0,0,5.33,2.22,12.6,6.21c17.21,9.43,45.29,28.74,39.08,51.79c-0.88,3.26-1.46,6.6-1.45,9.98    c0,0.67,0,1.39-0.01,2.14c-0.14,11.61-5.73,22.56-14.99,29c-9.25,6.43-22.6,13.99-36.84,16.4c-4.04,0.68-8.16,0.95-12.27,0.66    c0,0-22.24-27.12-18.93-61.05C178.96,792.55,197.96,762.02,210.05,754.94z"/><path fill="#e8dcd1" d="M254.15,833.95c-1.3,0.67-2.62,1.32-3.94,1.94c-5.16,2.41-10.5,4.45-15.97,6.03    c-6.19,1.79-12.61,3.22-19.01,4.01c-0.61,0.07-0.45,0.96,0.14,0.93c5.8-0.36,11.5-1.1,17.15-2.49c5.55-1.37,11-3.14,16.26-5.38    c1.35-0.57,2.68-1.17,4.01-1.8c0.63-0.3,1.25-0.6,1.87-0.91c0.61-0.31,1.6-0.63,1.95-1.25c0.26-0.46,0.25-1.07-0.2-1.41    C255.65,833.05,254.85,833.58,254.15,833.95z"/><path fill="#e8dcd1" d="M257.5,827.02c-2.18,0.84-4.3,1.81-6.52,2.57c-2.25,0.78-4.54,1.43-6.86,1.96    c-4.61,1.06-9.32,1.64-14.05,1.7c-0.89,0.01-1.07,1.41-0.16,1.4c4.86-0.01,9.71-0.49,14.46-1.49c2.36-0.49,4.69-1.11,6.99-1.84    c2.32-0.74,4.7-1.53,6.86-2.66C259.25,828.14,258.59,826.6,257.5,827.02z"/><path fill="#e8dcd1" d="M255.92,839.16c-0.68,0.62-1.37,1.23-2.08,1.81c-1.42,1.17-2.91,2.26-4.45,3.27c-3.05,2-6.33,3.64-9.75,4.9    c-1.97,0.73-3.99,1.3-6.04,1.75c-0.84,0.18-0.65,1.5,0.21,1.33c7.45-1.49,14.6-4.67,20.6-9.34c0.84-0.65,1.65-1.33,2.45-2.04    c0.73-0.65,1.89-1.44,1.94-2.5c0.02-0.42-0.29-0.69-0.7-0.67C257.17,837.73,256.55,838.58,255.92,839.16z"/><path fill="#e8dcd1" d="M257.54,823.18c-3.11,0.78-6.16,1.69-9.32,2.29c-3.14,0.6-6.32,1.03-9.51,1.29    c-6.31,0.51-12.63,0.42-18.91-0.31c-3.63-0.42-7.26-1.05-10.8-1.95c-0.65-0.16-1.07,0.8-0.4,0.99c6.29,1.82,12.72,3.06,19.27,3.44    c6.49,0.38,13,0.02,19.41-1.07c3.64-0.62,7.4-1.35,10.88-2.6C259.3,824.85,258.75,822.88,257.54,823.18z"/><path fill="#e8dcd1" d="M261.95,818.07c-1.08,0.2-2.15,0.55-3.22,0.79c-1.08,0.25-2.17,0.46-3.26,0.65    c-2.22,0.38-4.47,0.64-6.72,0.77c-4.47,0.27-8.94,0.12-13.37-0.54c-2.52-0.38-5.04-0.88-7.51-1.53c-0.65-0.17-1.07,0.77-0.4,0.99    c8.77,2.95,18.21,3.72,27.36,2.37c1.25-0.18,2.5-0.41,3.74-0.67c1.3-0.28,2.68-0.53,3.92-1.01    C263.51,819.51,263.02,817.88,261.95,818.07z"/><path fill="#e8dcd1" d="M216.26,807.48c11.03,4.86,22.93,7.77,34.96,8.54c1.72,0.11,3.44,0.18,5.16,0.19    c1.73,0.01,3.5,0.08,5.2-0.21c1.08-0.18,1.1-1.87-0.04-1.97c-1.47-0.12-2.94-0.02-4.41-0.02c-1.52,0-3.04-0.03-4.55-0.09    c-2.95-0.11-5.9-0.36-8.83-0.73c-5.9-0.74-11.73-2-17.4-3.77c-3.21-1-6.37-2.17-9.46-3.48    C215.89,805.52,215.28,807.05,216.26,807.48z"/><path fill="#e8dcd1" d="M223.08,798.25c9.83,4.87,20.3,8.3,31.1,10.2c1.47,0.26,2.95,0.49,4.43,0.69c1.55,0.21,3.13,0.47,4.7,0.51    c1.31,0.04,1.56-1.84,0.23-2.04c-2.66-0.4-5.36-0.56-8.03-0.96c-2.66-0.41-5.31-0.9-7.94-1.49c-5.26-1.18-10.45-2.72-15.5-4.6    c-2.88-1.07-5.71-2.25-8.49-3.54C222.8,796.65,222.32,797.88,223.08,798.25z"/><path fill="#e8dcd1" d="M241.49,795.8c2.97,2.42,6.25,4.38,9.75,5.96c1.71,0.77,3.46,1.46,5.24,2.04c0.89,0.29,1.79,0.56,2.69,0.81    c0.92,0.25,2.05,0.71,3,0.52c0.68-0.13,0.99-1.07,0.37-1.5c-0.76-0.52-1.8-0.6-2.68-0.81c-0.9-0.22-1.8-0.47-2.69-0.74    c-1.76-0.54-3.49-1.17-5.18-1.89c-3.43-1.45-6.71-3.27-9.84-5.28C241.55,794.53,240.93,795.34,241.49,795.8z"/><path fill="#e8dcd1" d="M234.23,782.36c6.8,5.53,14.2,10.22,22.11,13.98c1.11,0.53,2.22,1.03,3.35,1.52    c1.15,0.5,2.32,1.05,3.52,1.42c1.35,0.41,2.12-1.43,0.82-2.04c-1.96-0.93-4.03-1.64-6.01-2.52c-1.95-0.87-3.87-1.79-5.77-2.77    c-3.82-1.97-7.52-4.19-11.1-6.56c-2.04-1.35-4.03-2.79-5.98-4.28C234.37,780.48,233.44,781.72,234.23,782.36z"/><path fill="#ff69a6" d="M301.7,838.72l113.72,13.03c6.28,0.72,11.96-3.79,12.68-10.07l0.57-4.95c0.72-6.28-3.79-11.96-10.07-12.68    l-113.72-13.03L301.7,838.72z"/><path fill="#37456b" d="M257.83,790.12l47.02,21.21l-3.1,27.07l-50.59,10.02C258.28,829.55,260.51,810.12,257.83,790.12z"/><path fill="#ccc" d="M258.88,803.5l16.48,7.43c11.36,5.12,18.11,17,16.69,29.39l0,0l9.69-1.92l3.1-27.07l-47.02-21.21    C258.43,794.61,258.77,799.07,258.88,803.5z"/><path fill="#e8dcd1" d="M210.05,754.94c0,0,5.33,2.22,12.6,6.21c-1.84,0.76-3.78,1.19-5.69,1.05c-8.69-0.64-7.53,11.19-15.2,16.13    c-7.67,4.93-3.56,9.78-6.67,19.98c-3.11,10.19-12.65,12.72-7.14,21.61c5.03,8.1,5.16,15.12,3.8,25.09    c-1.36,9.96,7.15,9,12.13,16.25c2.25,3.27,3.67,6.58,4.56,9.22c-4.04,0.68-8.16,0.95-12.27,0.66c0,0-22.24-27.12-18.93-61.05    C178.96,792.55,197.96,762.02,210.05,754.94z"/><path fill="#efdce5" d="M303.62,822.03l103.8,11.9c6.28,0.72,10.79,6.4,10.07,12.68l-0.57,4.95c-0.01,0.09-0.03,0.17-0.04,0.25    c5.68-0.07,10.56-4.34,11.22-10.13l0.57-4.95c0.72-6.28-3.79-11.96-10.07-12.68l-113.72-13.03L303.62,822.03z"/><path fill="#c8cceb" d="M310.62,809.76l-3.63,31.69c-0.1,0.87-0.89,1.5-1.76,1.4l-3.5-0.4c-0.87-0.1-1.5-0.89-1.4-1.76l3.63-31.69    c0.1-0.87,0.89-1.5,1.76-1.4l3.5,0.4C310.09,808.1,310.72,808.89,310.62,809.76z"/><path fill="#9e9e9e" d="M384.73,840.6l-0.14,1.21c-0.12,1.05-1.07,1.8-2.11,1.68l-68.57-7.86c-1.05-0.12-1.8-1.07-1.68-2.11    l0.14-1.21c0.12-1.05,1.07-1.8,2.11-1.68l68.57,7.86C384.1,838.61,384.85,839.56,384.73,840.6z"/><path fill="#ffd5ab" d="M240.17,714.6c0.06,0.03,0.13,0.07,0.2,0.12l26.02,16.6c2.22,1.41,3.21,3.81,2.31,5.62l-9.35,18.83    c-0.9,1.81-3.41,2.48-5.87,1.56l-28.95-10.69c-0.47-0.17-0.9-0.39-1.3-0.64c-2.17-1.37-3.26-3.78-2.34-5.64l12.28-24.74    C234.23,713.47,237.5,713.01,240.17,714.6z"/><path fill="#e8dcd1" d="M259.59,752.69c-0.99-0.38-1.98-0.75-2.97-1.12c-1.94-0.72-3.89-1.41-5.84-2.08    c-3.91-1.35-7.86-2.5-11.84-3.63c-0.33-0.09-0.5,0.47-0.17,0.58c3.9,1.35,7.76,2.8,11.64,4.19c1.9,0.68,3.79,1.39,5.69,2.1    c0.95,0.35,1.89,0.71,2.84,1.07c0.51,0.2,1.03,0.4,1.54,0.59c0.46,0.18,0.72,0.32,1.2,0.14c0.21-0.08,0.38-0.37,0.27-0.59    C261.53,753.17,260.37,752.99,259.59,752.69z"/><path fill="#e8dcd1" d="M260.72,749.26c-1.21-0.46-2.41-0.93-3.61-1.41c-2.45-0.97-4.88-1.96-7.32-2.96    c-4.82-1.98-9.62-4.04-14.42-6.08c-0.47-0.2-0.78,0.49-0.33,0.72c4.66,2.35,9.4,4.51,14.2,6.56c2.38,1.01,4.77,1.98,7.18,2.93    c1.2,0.47,2.41,0.94,3.61,1.4c0.6,0.23,1.21,0.46,1.81,0.69c0.57,0.21,1.13,0.48,1.74,0.35c0.29-0.06,0.5-0.39,0.3-0.66    C263.23,749.92,261.7,749.64,260.72,749.26z"/><path fill="#e8dcd1" d="M262.79,745.09c-0.92-0.42-1.84-0.84-2.76-1.26c-1.88-0.85-3.77-1.69-5.68-2.48    c-1.87-0.77-3.74-1.53-5.62-2.27c-1.92-0.75-3.84-1.51-5.84-2c-0.4-0.1-0.52,0.49-0.2,0.66c1.78,0.95,3.67,1.68,5.53,2.45    c1.91,0.79,3.81,1.61,5.7,2.44c1.85,0.81,3.7,1.62,5.54,2.45c0.92,0.42,1.84,0.84,2.75,1.27c0.88,0.41,1.85,1.06,2.81,1.19    c0.61,0.08,0.91-0.66,0.48-1.06C264.81,745.84,263.66,745.49,262.79,745.09z"/><path fill="#e8dcd1" d="M241.08,729.35c4.23,2.28,8.44,4.57,12.7,6.79c2.13,1.11,4.27,2.19,6.4,3.29c1.07,0.55,2.13,1.1,3.2,1.64    c0.49,0.25,0.99,0.5,1.48,0.75c0.51,0.25,0.99,0.56,1.57,0.48c0.39-0.05,0.52-0.45,0.35-0.77c-0.27-0.5-0.86-0.72-1.35-0.98    c-0.49-0.25-0.98-0.51-1.48-0.76c-1.07-0.55-2.14-1.09-3.21-1.63c-2.14-1.09-4.27-2.18-6.41-3.25c-4.29-2.14-8.61-4.2-12.93-6.28    C240.94,728.41,240.64,729.11,241.08,729.35z"/><path fill="#e8dcd1" d="M251.88,727.28c2.44,1.6,4.85,3.26,7.19,5c1.16,0.86,2.31,1.72,3.44,2.61c0.57,0.44,1.13,0.89,1.69,1.34    c0.55,0.45,1.09,1.02,1.76,1.29c0.53,0.21,1.01-0.37,0.7-0.85c-0.37-0.57-0.98-0.96-1.51-1.38c-0.6-0.48-1.2-0.95-1.81-1.41    c-1.18-0.9-2.38-1.79-3.59-2.64c-2.4-1.68-4.86-3.26-7.39-4.74C251.92,726.25,251.44,727,251.88,727.28z"/><path fill="#ff69a6" d="M285.86,767.46l125.18,62.15c5.55,2.75,11.54,1.97,13.38-1.74l1.45-2.93c1.84-3.72-1.16-8.96-6.7-11.71    L294,751.08L285.86,767.46z"/><path fill="#efdce5" d="M290.76,757.59l116.43,57.8c5.55,2.75,8.55,8,6.7,11.71l-1.45,2.93c-0.03,0.05-0.06,0.1-0.09,0.15    c5.15,2.03,10.38,1.11,12.08-2.31l1.45-2.93c1.84-3.72-1.16-8.96-6.7-11.71L294,751.08L290.76,757.59z"/><path fill="#9e9e9e" d="M385.39,811.32l-0.35,0.71c-0.31,0.62-1.06,0.87-1.68,0.56l-86.42-42.9c-0.62-0.31-0.87-1.06-0.56-1.68    l0.35-0.71c0.31-0.62,1.06-0.87,1.68-0.56l86.42,42.9C385.45,809.95,385.7,810.7,385.39,811.32z"/><path fill="#37456b" d="M267.53,731.91l26.38,19.35l-7.95,16.02l-31.36-9.32C261.1,750.5,265.52,741.6,267.53,731.91z"/><path fill="#ccc" d="M265.82,738.24l7.59,6.29c6.13,5.08,8.48,13.63,5.06,20.53v0l7.49,2.22l7.95-16.02l-26.38-19.35     C267.08,734.04,266.51,736.15,265.82,738.24z"/><path fill="#e8dcd1" d="M240.17,714.6c-0.37,1.43-0.82,2.58-1.31,3.08c-1.9,1.93-6.43,5.84-7.77,8.83    c-1.33,2.99,0.08,5.93-3.4,8.21c-2.34,1.53-3.78,7.5-4.48,11.29c-2.17-1.37-3.26-3.78-2.34-5.64l12.28-24.74    C234.23,713.47,237.5,713.01,240.17,714.6z"/><path fill="#c8cceb" d="M297.81,751.59l-9.29,18.72c-0.26,0.52-0.89,0.74-1.42,0.48l-2.04-1.01c-0.52-0.26-0.74-0.89-0.48-1.42    l9.29-18.72c0.26-0.52,0.89-0.74,1.42-0.48l2.04,1.01C297.86,750.43,298.07,751.07,297.81,751.59z"/><g><path fill="#f5b79d" d="M660.59,679.37c47.76,39.59,119.53,21.04,152.95-0.9c-10.04-9.61-15.04-21.59-17.65-35.9    c-3.36-18.09-2.99-39.77-4.54-64.87c-0.24-4.25-0.56-8.64-0.95-13.11l-10.66-1.13l-25.24-2.72L674,552.05    c0.36,7.95,0.92,16.38,1.53,25c1.87,29.03,3.74,60.18-1.73,81.04C671.28,667.86,667.14,675.38,660.59,679.37z"/><path fill="#8986ce" d="M947.06,871.05H498.5c-14.03-61.56-6.74-133.45,43.23-164.88c4.97-3.16,10.38-5.88,16.24-8.17    c23.19-9,69.45-16.2,85.75-20.41c0.07-0.01,0.12-0.03,0.17-0.04c0.73-0.05,1.48-0.11,2.2-0.2c6.26-0.53,12.85-1.71,18.77-1.44    c0,0,0,0,0,0.01c0.15,0.44,3.09,9.08,19.43,17.85c4.86,2.61,10.93,5.23,18.46,7.66c14.16,4.56,39.97,3.06,59.46-2.43    c0.3-0.08,0.59-0.16,0.9-0.25c16.48-4.75,31.14-13.1,40.49-24.77c0.04-0.05,0.08-0.11,0.13-0.16c0.44-0.54,0.86-1.09,1.27-1.66    c0.05-0.08,0.12-0.16,0.18-0.25c0.43-0.59,0.84-1.2,1.25-1.81c0-0.01,0.01-0.01,0.01-0.03c6.24,0.86,13.75,2.2,22.02,3.82h0.01    c13.58,2.68,29.06,6.17,44.26,9.41c9.52,1.65,18.09,4.65,25.75,8.86c3.28,1.81,6.41,3.82,9.36,6.05c0.28,0.21,0.55,0.41,0.82,0.62    c7.95,6.09,14.71,13.63,20.38,22.25C954.71,760.16,957.82,821.41,947.06,871.05z"/><path fill="#ffd4c2" d="M572.72,257.71c-88.5,252.81,26.86,379.46,164.55,376.79c124.23-2.41,233.09-109.72,148.02-382.71     L572.72,257.71z"/><path fill="#edd6c7" d="M710.32,476.61c4.79-14.06,16.68-19.5,19.69-56.91c5.62,22.34-5.64,50.82-9.91,62.8     c-8.65,24.27,33.8,20.15,21.24,22.82C726.15,508.55,700.81,504.5,710.32,476.61z"/><path fill="#573027" d="M678.28,386.68c-31.02-17.08-68.3,9.59-70.39,22.66c-0.55,3.44,2.45,0.08,16.33-9.23     c10.26-6.63,29.98-8.2,41.53-4.72C677.78,399.02,693.11,395.78,678.28,386.68z"/><path fill="#573027" d="M783.74,384.62c31.02-17.08,68.3,9.59,70.39,22.66c0.55,3.44-2.45,0.08-16.33-9.23     c-10.26-6.63-29.98-8.2-41.53-4.72C784.24,396.97,768.91,393.73,783.74,384.62z"/><ellipse cx="849.4" cy="506.26" fill="#ffbbad" rx="38.32" ry="15.8"/><ellipse cx="607.83" cy="506.26" fill="#ffbbad" rx="38.32" ry="15.8"/><path fill="#ffa694" d="M739.77,536.81c-10.07,0-10.79,5.99-10.79,5.99s-0.72-5.99-10.79-5.99s-27.28,11.29-35.98,12.79      c0,0,11.27,26.98,46.77,26.98c35.5,0,46.77-26.98,46.77-26.98C765.5,548.05,749.84,536.81,739.77,536.81z"/><path fill="#b34949" d="M687.55,550.71c0,0,50.55,10.52,81.78,0.24C744.14,565.57,721.41,570.75,687.55,550.71z"/><path fill="#573027" d="M670.93,457.51c-7.32,5.54-16.66,8.88-26.15,8.88c-5.35,0.05-10.66-0.98-15.6-2.83     c-4.35,2.24-5.41,6.04-5.72,8.15c-2.16-4.04-1.06-8.14,0.33-10.57c-1.58-0.84-3.1-1.78-4.56-2.8     c-7.79,1.43-11.03,6.84-12.39,9.93c-1.65-7.25,2.09-13.13,5.26-16.07c-0.97-1.01-1.89-2.05-2.75-3.14     c-5.25-0.77-8.38,2.02-9.85,3.7c0.38-4.73,3.75-7.62,6.27-8.85c-1.34-2.22-2.51-4.52-3.46-6.9c6.61,5.7,13.17,10.71,20.31,14.13     c7.08,3.45,14.6,5.27,22.11,5.21c7.52-0.03,15.01-1.95,22.01-5.52c7.05-3.53,13.5-8.65,19.82-14.67     C683.75,444.44,678.27,451.98,670.93,457.51z"/><path fill="#573027" d="M788.45,455.66c6.84,4.97,15.52,7.87,24.26,7.69c4.93-0.05,9.8-1.1,14.32-2.9     c4.05,1.99,5.09,5.47,5.42,7.41c1.92-3.76,0.82-7.52-0.5-9.74c1.44-0.81,2.83-1.7,4.15-2.66c7.2,1.17,10.29,6.1,11.6,8.92     c1.39-6.71-2.17-12.06-5.15-14.71c0.87-0.95,1.7-1.93,2.48-2.94c4.82-0.81,7.76,1.71,9.15,3.22c-0.44-4.35-3.59-6.95-5.94-8.03     c1.19-2.07,2.23-4.21,3.06-6.43c-5.99,5.37-11.94,10.12-18.45,13.4c-6.46,3.31-13.35,5.13-20.28,5.21     c-6.93,0.11-13.87-1.52-20.39-4.68c-6.56-3.12-12.6-7.72-18.53-13.15C776.39,443.85,781.57,450.7,788.45,455.66z"/><path fill="#ffd4c2" d="M949.9,398.6c-14.22-24.98-47.09,11.54-47.09,11.54l-9.13,96.53C964.46,502.66,964.12,423.59,949.9,398.6z"/><path fill="#ffd4c2" d="M497.93,393.66c14.74-24.68,46.84,12.54,46.84,12.54l7.09,96.7C481.18,497.39,483.19,418.34,497.93,393.66z    "/><path fill="#f2e0d5" d="M508.31,415.04c5.13-2.42,12.55-1.2,15.16,4.3c1.15,2.42-2.12,4.54-3.61,2.2c-1.15-1.8-3.32-2.7-5.4-2.08    c-1.84,0.55-3.46,2.63-4.32,4.29c-2.62,5.08-0.21,11.35,1.72,16.24c1.93,4.88,4.52,9.55,7.56,13.82    c3.23,4.54,7.71,7.97,10.96,12.44c3.08,4.25-2.76,10.2-7.1,7.36c-3.35-2.18-5.83-5.57-8.21-8.73c-2.21-2.93-4.2-6.04-5.97-9.25    c-3.63-6.58-6.65-13.9-7.83-21.35C500.21,427.65,501.42,418.29,508.31,415.04z"/><path fill="#f2e0d5" d="M936.39,415.04c-5.13-2.42-12.55-1.2-15.16,4.3c-1.15,2.42,2.12,4.54,3.61,2.2c1.15-1.8,3.32-2.7,5.4-2.08    c1.84,0.55,3.46,2.63,4.32,4.29c2.62,5.08,0.21,11.35-1.72,16.24c-1.93,4.88-4.52,9.55-7.56,13.82    c-3.23,4.54-7.71,7.97-10.96,12.44c-3.08,4.25,2.76,10.2,7.1,7.36c3.35-2.18,5.83-5.57,8.21-8.73c2.21-2.93,4.2-6.04,5.97-9.25    c3.63-6.58,6.65-13.9,7.83-21.35C944.5,427.65,943.28,418.29,936.39,415.04z"/><path fill="#fff" d="M643.57,677.34c12.08,21.83,40.98,47.13,88.4,47.25c61.7,0.16,84.23-34.26,96.49-50.67    c-8.27-1.62-15.78-2.97-22.02-3.83c-26.3,39.97-115.04,45.95-141.39,5.67C658.83,675.61,650.78,676.72,643.57,677.34z"/><path fill="#8986ce" d="M556.65,871.05H425.71c44.75-79.23,93.24-156.64,116.02-164.88L556.65,871.05z"/><path fill="#8986ce" d="M1025.03,871.05H892.07l9.44-165.65l-3.1-13.24c0.03,0.01,0.04,0.01,0.07,0.03    c2.93,1.07,6.34,3.34,10.18,6.67c5.89,5.12,12.78,12.71,20.38,22.25C956,754.94,992.01,813.11,1025.03,871.05z"/><path fill="#9d3d25" d="M904.18,255.29c-28.46-47.85-113.13-82.67-175.56-63.03c-87.81-25.24-139.07,15.18-170.6,53.6    c-57.47,70.03-56.5,189.79,13.7,314.89c-50.66-149.58,42.12-327.99,156.79-265.82c131.68-60.3,184.96,131.8,165.16,264.23    C918.7,492.92,957.42,344.8,904.18,255.29z"/><path fill="#9d3d25" d="M640.28,109.83c-24.17,28.75,5.6,77.85,5.6,77.85c57.21,29.96,112.49,33.61,170.89,6.62    c0,0,29.77-46.15,11.93-77.61C800.06,66.2,681.68,60.59,640.28,109.83z"/><path fill="#9d3d25" d="M710.51,76.86c-26.52,1.66-54.87,6.6-74.67,25.83c-8.37,8.13-14.93,18.47-17.52,29.92    c-2.62,11.55-0.83,23.44,4.54,33.94c6,11.73,16.14,21.74,28,27.5c2.44,1.19,4.58-2.37,2.15-3.67    c-19.43-10.42-34.72-31.08-31.29-54.07c3.55-23.82,23.93-40.7,45.28-48.86c13.92-5.32,28.77-7.62,43.52-9.14    C711.43,78.22,711.46,76.8,710.51,76.86z"/><path fill="#9d3d25" d="M835.17,119.72c-4.85-7.18-11.26-12-19.35-15c-0.37-0.14-0.51,0.43-0.16,0.58    c19.67,8.17,27.04,32.19,23.2,51.61c-4.48,22.65-19.95,39.82-35.34,56.03c-2.28,2.4,1.37,6.06,3.64,3.64    c12.99-13.81,25.62-29.03,32.03-47.14C844.93,153.19,845.08,134.41,835.17,119.72z"/><path fill="#9d3d25" d="M604.45,205.74c-32.92,11.85-60.25,37.63-76.54,68.37c-19.02,35.91-24.27,78.26-17.82,118.15    c1.94,11.99,4.65,23.87,7.61,35.65c3.03,12.07,5.81,24.7,10.6,36.21c0.43,1.03,1.89,0.66,1.69-0.47    c-1.79-10.48-5.39-20.7-8.07-30.98c-2.64-10.14-4.95-20.34-6.73-30.66c-3.45-20.05-4.52-40.74-2.53-61    c3.67-37.38,18.64-73.96,44.88-101.17c13.41-13.9,29.7-25.21,47.43-32.88C605.66,206.67,605.17,205.49,604.45,205.74z"/><path fill="#9d3d25" d="M695.3,280.59c-22.58-7.76-44.33,4.36-60.85,19.16c-16.74,14.99-32.66,32.19-44.21,51.54    c-12.19,20.42-17.99,43.54-20.89,66.97c-2.86,23.14-4.05,46.89-1.56,70.13c1.36,12.72,3.87,25.4,7.83,37.56    c3.98,12.24,8.61,24.72,15.71,35.54c0.22,0.33,0.79,0.06,0.63-0.31c-4.47-10.28-8.84-20.42-11.84-31.25    c-2.93-10.58-4.82-21.53-6.13-32.43c-2.69-22.43-2.76-45.03-0.59-67.5c2.18-22.57,5.87-45.47,15.7-66.11    c9.41-19.77,23.63-36.94,38.94-52.41c17.05-17.23,40.69-36.61,66.79-28.57C696.28,283.34,696.7,281.07,695.3,280.59z"/><path fill="#9d3d25" d="M932.97,313.47c-4.79-15.43-12.11-29.97-20.8-43.55c-9.73-15.21-21.25-28.77-32.93-42.46    c-0.32-0.37-0.82,0.16-0.53,0.53c9.93,12.52,19.37,25.72,27.95,39.21c8.47,13.33,15.9,27.46,20.9,42.48    c10.87,32.6,8.45,67.21,1.25,100.31c-4.19,19.26-10.36,37.94-15.33,56.99c-0.67,2.59,3.08,3.56,3.96,1.09    c6.08-17.08,10.95-34.71,14.98-52.39c3.87-16.98,6.63-34.3,7.08-51.73C939.94,346.9,938.04,329.79,932.97,313.47z"/><path fill="#9d3d25" d="M860.43,350.44c-5.19-11.51-11.31-22.01-20.09-31.19c-8.59-8.98-18.74-16.36-30.06-21.5    c-11.82-5.38-24.48-8.5-37.38-9.83c-14.59-1.51-29.6-0.21-43.47,4.69c-0.87,0.31-0.53,1.64,0.39,1.4    c24.87-6.49,50.92-5.56,74.37,5.52c22.12,10.45,38.83,27.76,51.37,48.46c6.83,11.26,10.04,24.93,11.84,37.85    c0.17,1.18,2.16,0.91,2.09-0.28C868.76,373.44,865.41,361.48,860.43,350.44z"/><path fill="#662312" d="M811.4,198.54c-9.26-4.84-19.51-7.44-29.67-9.66c-10.12-2.22-20.38-3.83-30.67-5.02    c-21.05-2.43-42.48-2.62-63.57-0.47c-11.9,1.22-23.58,3.28-35.28,5.73c-0.88,0.18-0.5,1.48,0.37,1.33    c40.92-7.1,84-5.91,124.64,2.33c11.28,2.29,22.44,5.48,33.85,7C811.73,199.88,811.95,198.83,811.4,198.54z"/><path fill="#662312" d="M811.08,131.64c-4.97-16.54-16.93-29.44-32.51-36.61c-0.64-0.29-1.21,0.63-0.56,0.97    c14.11,7.32,25.11,21.37,29.24,36.7c4.48,16.67,0.69,34.66-9.3,48.6c-1.84,2.57,2.39,4.99,4.22,2.47    C812.92,168.96,816.35,149.19,811.08,131.64z"/><path fill="#662312" d="M716.08,86.34c-5.19,0.87-10.45,1.23-15.64,2.14c-4.96,0.87-9.86,2.12-14.65,3.67    c-8.36,2.7-16.22,6.55-23.07,12.09c-14.68,11.87-20.43,29.99-16.26,48.3c2.46,10.8,8.13,21.22,13.83,30.63    c0.53,0.88,1.9,0.09,1.39-0.81c-2.29-4.01-4.47-8.08-6.37-12.29c-2.05-4.54-3.28-9.02-4.43-13.85    c-2.13-8.94-2.59-18.64-0.22-27.58c4.43-16.73,19.44-27.49,34.9-33.35c4.88-1.85,9.91-3.22,14.94-4.61    c5.21-1.43,10.37-2.98,15.68-4.02C716.38,86.62,716.29,86.3,716.08,86.34z"/><path fill="#662312" d="M685.13,112.81c0.45-0.44-0.22-1.09-0.69-0.69c-8.19,7.18-13.22,16.33-15.8,26.85    c-1.3,5.31-1.5,10.52-0.75,15.94c0.72,5.16,2.03,11.98,5.5,16.05c1.25,1.47,3.51-0.12,3.09-1.8c-0.62-2.49-2.06-4.78-2.9-7.22    c-0.84-2.46-1.49-5-1.91-7.57c-0.81-4.85-0.97-10.16-0.39-15.04C672.45,129.36,678.02,119.71,685.13,112.81z"/><path fill="#662312" d="M765.91,121.35c-2.37-7.06-5.9-13.73-10.43-19.63c-4.59-5.99-9.9-10.41-16.02-14.7    c-0.34-0.24-0.78,0.32-0.45,0.59c10.7,8.66,18.89,21.76,22.72,34.9c2.15,7.38,3.14,14.94,2.81,22.63    c-0.17,4.02-0.71,8.02-1.61,11.95c-0.87,3.8-2.46,7.36-3.41,11.11c-0.6,2.4,2.74,3.89,4.03,1.7c3.93-6.73,5.14-16.02,5.55-23.69    C769.56,137.88,768.56,129.26,765.91,121.35z"/><path fill="#662312" d="M778.15,113.08c-0.49-0.61-1.55,0.2-1.08,0.84c10.27,13.89,12.57,33.42,6.3,49.42    c-0.84,2.15,2.69,3.15,3.49,0.96C793.25,146.75,789.74,127.55,778.15,113.08z"/><path fill="#662312" d="M725.52,97.81c-11.67,7.1-20.79,17.95-24.8,31.09c-2.17,7.12-2.84,14.74-1.99,22.14    c0.77,6.69,2.54,15.28,6.9,20.65c1.08,1.33,3.33-0.1,2.84-1.65c-1.01-3.16-2.79-6.05-3.84-9.23c-1.05-3.18-1.8-6.44-2.25-9.76    c-0.98-7.1-0.53-14.4,1.42-21.3c3.52-12.46,11.57-23.65,22.52-30.59C727.16,98.63,726.39,97.28,725.52,97.81z"/><path fill="#662312" d="M750.74,143.6c-1.21-11.37-5.5-21.66-10.85-31.65c-0.6-1.13-2.27-0.14-1.71,1    c4.68,9.48,8.3,20.05,9.1,30.66c0.36,4.81,0.21,9.71-0.69,14.45c-0.99,5.22-3.07,9.63-5.28,14.41c-1,2.17,1.8,3.81,3.19,1.87    C750.48,165.94,751.8,153.55,750.74,143.6z"/><path fill="#662312" d="M721.38,268.66c-41.28-14.05-89.45-15.27-127.07,9.5c-33.56,22.1-50.86,61.09-56.13,99.78    c-1.77,12.96-2.23,26-1.83,39.07c0.4,12.92,1.29,26.1,3.16,38.89c0.14,0.96,1.73,0.73,1.69-0.23c-0.47-11.2-1.32-22.31-1.43-33.54    c-0.11-11.18,0.35-22.36,1.35-33.5c1.83-20.29,6.43-40.48,15.19-58.95c7.92-16.71,18.94-32.01,33.51-43.55    c16.18-12.8,36.16-20.24,56.49-23.06c25.02-3.47,50.52,0.26,74.67,7.06C721.93,270.41,722.31,268.98,721.38,268.66z"/><path fill="#662312" d="M635.91,277.12c-16.83,2.62-31.06,11.3-42,24.23c-12.12,14.32-19.04,31.89-23.57,49.92    c-1.41,5.59-2.61,11.23-3.5,16.93c-0.85,5.49-1.95,11.42-1.82,16.98c0.02,0.85,1.15,0.94,1.43,0.19    c1.66-4.42,2.54-9.45,3.55-14.07c1-4.57,2-9.14,3.02-13.71c2.11-9.43,4.72-18.78,8.36-27.74c6.43-15.83,16.17-29.99,29.92-40.31    c7.39-5.55,15.77-9.75,24.93-11.28C636.99,278.14,636.66,277,635.91,277.12z"/><path fill="#662312" d="M719.41,246.73c-26.81-14.5-58.77-18.17-88.48-11.78c-27.47,5.91-52.81,21-71.28,42.16    c-5.03,5.76-9.75,11.94-13.58,18.57c-3.77,6.54-7.52,13.48-9.46,20.8c-0.27,1.02,1.21,1.7,1.74,0.73    c3.16-5.79,5.74-11.89,9.33-17.45c3.67-5.68,7.45-11.29,11.76-16.51c8.32-10.07,18.05-19.04,28.9-26.33    c23.88-16.05,52.58-23.36,81.25-21.4c16.84,1.15,33.67,5.6,49.02,12.6C719.53,248.54,720.34,247.23,719.41,246.73z"/><path fill="#662312" d="M718.45,228.17c-28.53-19.83-65.59-24.62-98.27-12.92c-9.25,3.31-17.89,7.92-25.89,13.61    c-0.21,0.15-0.02,0.5,0.21,0.35c18.07-11.82,39.91-18.56,61.57-17.91c21.83,0.65,42.63,7.54,60.48,20.13    C718.53,232.83,720.43,229.55,718.45,228.17z"/><path fill="#662312" d="M846.41,222.69c-23.74-10.63-49.69-15.93-75.72-14.4c-14.31,0.84-28.45,4.26-41.64,9.84    c-0.54,0.23-0.15,1.18,0.4,0.95c23.12-9.56,48.98-10.88,73.4-6.24c12.11,2.3,24.03,5.95,35.4,10.69    c11.59,4.83,23.16,10.71,32.91,18.7c5.22,4.28,10.45,8.9,14.38,14.4c4.1,5.74,7.34,12.08,9.47,18.81    c0.04,0.13,0.28,0.12,0.26-0.04C892.05,249.35,868.6,232.62,846.41,222.69z"/><path fill="#662312" d="M870.19,275.9c-5.08-8.08-12.66-15.16-20.09-21.06c-7.62-6.06-16.01-11.12-24.94-14.99    c-19.01-8.24-39.74-10.81-60.22-7.76c-12.1,1.8-23.6,5.88-34.39,11.59c-0.52,0.27-0.06,1.01,0.45,0.77    c36.71-17.22,80.96-12.68,113.14,11.96c4.17,3.19,8.1,6.68,11.77,10.44c3.72,3.82,6.87,8.04,10.32,12.09    C868.1,281.14,871.7,278.31,870.19,275.9z"/><path fill="#662312" d="M844.77,284.19c-2.53-4.09-6.96-7.48-10.69-10.45c-3.67-2.91-7.53-5.56-11.61-7.86    c-8.27-4.65-17.29-8.03-26.61-9.83c-20.07-3.88-41.04-0.47-58.97,9.28c-0.93,0.51-0.11,1.89,0.83,1.42    c17.69-8.9,38.36-11.72,57.74-7.44c8.82,1.95,17.29,5.3,25.06,9.89c4.01,2.37,7.87,5.02,11.45,8c3.45,2.87,6.32,6.53,9.83,9.27    C843.37,287.69,845.99,286.16,844.77,284.19z"/><path fill="#662312" d="M906.05,441.65c-0.08-4.78-0.5-9.5-1.24-14.23c-1.56-9.97-3.56-19.9-6.07-29.68    c-4.92-19.21-11.52-37.99-20.02-55.91c-4.87-10.27-10.65-19.97-16.73-29.57c-0.21-0.33-0.7-0.04-0.52,0.3    c18.49,34.58,32.05,72.53,38.73,111.19c0.93,5.39,1.64,10.85,2.77,16.2c1.17,5.54,1.36,11.17,2.37,16.73    c0.17,0.92,1.54,0.65,1.58-0.21C907.12,451.51,906.14,446.6,906.05,441.65z"/><path fill="#662312" d="M912.63,376.3c-0.47-3.99-1.09-7.93-1.98-11.85c-1.89-8.36-4.3-16.6-7.24-24.65    c-5.79-15.89-13.44-30.71-23.48-44.32c-0.49-0.66-1.56-0.09-1.13,0.66c8.28,14.35,15.61,29.53,21.07,45.18    c2.65,7.59,4.9,15.34,6.7,23.18c0.94,4.08,1.86,8.17,2.76,12.27c0.89,4.04,1.11,8.36,2.35,12.3c0.35,1.12,1.88,0.85,1.98-0.27    C914.03,384.68,913.11,380.36,912.63,376.3z"/></g><g><rect width="35.8" height="15.43" x="357.72" y="671.61" fill="#363372" transform="rotate(-12.357 375.58 679.277)"/><path fill="#363372" d="M424.69,676.48l-91.6,20.07c-15.64,3.43-25.55,18.89-22.12,34.53l25.43,116.08    c3.43,15.64,18.89,25.55,34.53,22.12l91.6-20.07c15.64-3.43,25.55-18.89,22.12-34.53L459.21,698.6    C455.79,682.96,440.33,673.05,424.69,676.48z"/><path fill="#d1a273" d="M369.15,861.16c-11.14,2.44-22.2-4.64-24.64-15.78L319.08,729.3c-2.44-11.14,4.64-22.2,15.78-24.64    l91.6-20.07c11.14-2.44,22.2,4.64,24.64,15.78l25.43,116.08c2.44,11.14-4.64,22.2-15.78,24.64L369.15,861.16z"/><path fill="#ffd5ab" d="M368.1,856.39c-8.51,1.86-16.95-3.54-18.82-12.05l-25.43-116.08c-1.86-8.51,3.54-16.95,12.06-18.82    l91.6-20.07c8.51-1.86,16.95,3.54,18.82,12.05l25.43,116.08c1.86,8.51-3.54,16.95-12.06,18.82L368.1,856.39z"/><path fill="#363372" d="M384.1,491.21l-91.6,20.07c-15.64,3.43-25.55,18.89-22.12,34.53l25.43,116.08    c3.43,15.64,18.89,25.55,34.53,22.12l91.6-20.07c15.64-3.43,25.55-18.89,22.12-34.53l-25.43-116.08    C415.2,497.69,399.74,487.78,384.1,491.21z"/><path fill="#ebeeff" d="M410.51,515.11l25.43,116.08c2.44,11.15-4.64,22.2-15.78,24.64l-91.6,20.07    c-4.78,1.05-9.54,0.34-13.61-1.68c-5.43-2.69-9.63-7.73-11.03-14.1L278.5,544.02c-2.44-11.15,4.64-22.2,15.78-24.64l91.6-20.06    c0.47-0.1,0.94-0.19,1.41-0.26c6.58-0.97,12.99,1.3,17.48,5.69C407.56,507.48,409.62,511.02,410.51,515.11z"/><rect width="32.24" height="13.14" x="321.33" y="490.79" fill="#363372" transform="rotate(-12.357 337.417 497.324)"/><path fill="#666" d="M387.29,499.06l-83.95,158.38l-21.45-97.93l22.43-42.32l81.55-17.87     C386.35,499.22,386.82,499.13,387.29,499.06z"/><path fill="#666" d="M428.09,595.32l7.86,35.87c2.44,11.15-4.64,22.2-15.78,24.64l-27.32,5.98L428.09,595.32z"/><path fill="#666" d="M410.51,515.11l1.33,6.08l-81.84,154.39l-1.45,0.32c-4.78,1.05-9.54,0.34-13.61-1.68l89.82-169.46     C407.56,507.48,409.62,511.02,410.51,515.11z"/><circle cx="348.44" cy="742.32" r="4.33" fill="#d1a273"/><circle cx="375.59" cy="736.37" r="4.33" fill="#d1a273"/><circle cx="402.73" cy="730.43" r="4.33" fill="#d1a273"/><circle cx="429.88" cy="724.48" r="4.33" fill="#d1a273"/><circle cx="367.85" cy="765.99" r="4.33" fill="#d1a273"/><circle cx="395" cy="760.05" r="4.33" fill="#d1a273"/><circle cx="422.14" cy="754.1" r="4.33" fill="#d1a273"/><circle cx="359.9" cy="794.63" r="4.33" fill="#d1a273"/><circle cx="387.04" cy="788.68" r="4.33" fill="#d1a273"/><circle cx="414.19" cy="782.73" r="4.33" fill="#d1a273"/><circle cx="441.33" cy="776.79" r="4.33" fill="#d1a273"/><circle cx="379.31" cy="818.3" r="4.33" fill="#d1a273"/><circle cx="406.45" cy="812.35" r="4.33" fill="#d1a273"/><circle cx="433.6" cy="806.41" r="4.33" fill="#d1a273"/></g><g><path fill="#363372" d="M515.61,604.91h-31.21c-2.31,0-4.18,1.87-4.18,4.18v36.62c0,2.31,1.87,4.18,4.18,4.18h31.21    c2.31,0,4.18-1.87,4.18-4.18v-36.62C519.78,606.78,517.91,604.91,515.61,604.91z"/><path fill="#363372" d="M550.73,604.91h-43.29v10.89h48.33v-5.85C555.76,607.17,553.51,604.91,550.73,604.91z"/><path fill="#363372" d="M524.71,637.58h-49.42c-8.14,0-14.73,6.6-14.73,14.73v30.23h78.89v-30.23    C539.45,644.18,532.85,637.58,524.71,637.58z"/><path fill="#ffbddb" d="M552.57,664.49H447.43c-7.7,0-13.55,7.11-13.06,15.77l9.48,169.74c0.62,11.15,10.37,20,21.78,20h68.76    c11.41,0,21.16-8.85,21.78-20l9.48-169.74C566.12,671.61,560.27,664.49,552.57,664.49z"/><path fill="#ff69a6" d="M555.14,721.1l-7.17,128.45c-0.38,6.76-6.48,12.25-13.59,12.25h-68.76c-7.12,0-13.21-5.5-13.59-12.25    l-6.84-122.48c13.92-2.17,20.31-8.65,38-0.97C513.05,739.06,524.68,711.23,555.14,721.1z"/><path fill="#fff" d="M521.71,797.88h-43.09c-2.23,0-4.14-1.82-4.27-4.08l-1.89-34.51c-0.14-2.63,1.72-4.78,4.16-4.78h47.09    c2.44,0,4.3,2.15,4.16,4.78l-1.89,34.51C525.85,796.06,523.95,797.88,521.71,797.88z"/><path fill="#9e9e9e" d="M461.05,788.18l-2.93,0.17c-2.54,0.14-4.72-1.8-4.86-4.34l-5.63-99.7c-0.14-2.54,1.8-4.72,4.34-4.86    l2.93-0.17c2.54-0.14,4.72,1.8,4.86,4.34l5.63,99.7C465.54,785.86,463.59,788.04,461.05,788.18z"/><path fill="#9e9e9e" d="M463.46,830.84l-2.93,0.17c-2.54,0.14-4.72-1.8-4.86-4.34l-1.22-21.67c-0.14-2.54,1.8-4.72,4.34-4.86    l2.93-0.17c2.54-0.14,4.72,1.8,4.86,4.34l1.22,21.67C467.95,828.52,466,830.7,463.46,830.84z"/></g><g><polygon fill="#ff69a6" points="892.43 871.14 966.48 870.38 973.2 870.31 981.7 870.22 1052.73 869.49 1068.51 869.32 1074.44 869.27 1144.72 868.54 1152.19 791.94 1105.76 782.29 1100.41 781.19 1086.57 778.31 1047.63 770.22 1040.62 768.76 1035 767.6 905.16 740.64"/><rect width="131.12" height="15.99" x="825.28" y="797.11" fill="#ff69a6" transform="rotate(-84.428 890.833 805.09)"/><path fill="#363372" d="M1144.76,868.07l28.69,2.8c0.05,0.01,0.1,0.01,0.15,0.01c4.2,0.33,7.91-2.76,8.32-6.98l5.92-60.68    c0.41-4.21-2.63-7.96-6.81-8.45c-0.05-0.01-0.1-0.02-0.15-0.02l-28.69-2.8L1144.76,868.07z"/><path fill="#e6e6e6" d="M1173.6,870.87c4.2,0.33,7.91-2.76,8.32-6.98l5.92-60.68c0.41-4.21-2.63-7.96-6.81-8.45L1173.6,870.87z"/><path fill="#363372" d="M966.48,870.38l6.72-0.06l8.5-0.09l71.03-0.74l15.78-0.16l5.93-0.06c12.3-29.14,23.42-61.95,31.33-86.97    l-5.35-1.1l-13.84-2.88l-38.94-8.09l-7.01-1.46l-5.62-1.17C1015.98,799.77,988.12,840.08,966.48,870.38z"/><path fill="#fff" d="M973.2,870.31l8.5-0.09l71.03-0.74l15.78-0.16c12.44-29.13,23.78-62.42,31.9-88.14l-13.84-2.88l-38.94-8.09    l-7.01-1.46C1022.08,800.35,994.75,840.03,973.2,870.31z"/><path fill="#efdce5" d="M905.16,740.64l18.01,3.74l-3.31,33.89c-3.84,39.36,27.32,73.35,66.86,72.95h0l6.72-0.06l8.5-0.09    l71.03-0.74l15.78-0.16l5.93-0.06l51.89-0.54l-1.85,18.97l-70.28,0.73l-5.93,0.06l-15.78,0.16l-71.03,0.74l-8.5,0.09l-6.72,0.06    l-74.05,0.76L905.16,740.64z"/><path fill="#9e9e9e" d="M1135.05,808.91l1.67-8.72c0.24-1.23-0.57-2.42-1.8-2.66l-193.66-37.09c-1.23-0.24-2.42,0.57-2.66,1.8    l-1.67,8.72c-0.24,1.23,0.57,2.42,1.8,2.66l193.66,37.09C1133.62,810.95,1134.81,810.14,1135.05,808.91z"/></g><g><rect width="1091.31" height="1.49" x="136.35" y="869.76" fill="#c1c1c1"/><rect width="247.02" height="1.49" x="726.83" y="882.8" fill="#c1c1c1"/><rect width="55.53" height="1.49" x="1003.43" y="882.8" fill="#c1c1c1"/></g><g><path fill="#363372" d="M790.83,751.99c-6.7-42.42,29.64-82.24,82.24-82.24c52.6,0,88.94,39.82,82.24,82.24     c-5.76,36.47-42.27,62.49-82.24,62.49S796.59,788.46,790.83,751.99z"/><path fill="#d9d9ff" d="M802.82,749.29c-4.83-35.81,26.33-68.66,70.24-68.66s75.08,32.86,70.24,68.66     c-4.25,31.47-35.5,54.32-70.24,54.32S807.07,780.76,802.82,749.29z"/><path fill="#363372" d="M784.45,847.35c-0.01-1.39,0-10.55,0-10.55c6.75-11.7,43.61-14.48,86.74-14.93     c43.82-0.46,81.1,3.09,87.26,14.93c0,0-0.02,7.52,0,8.71c0.14,13.57-38.69,24.97-86.74,25.48S784.59,860.91,784.45,847.35z"/><ellipse cx="871.45" cy="836.8" fill="#8383b7" rx="87" ry="25.2"/><ellipse cx="871.45" cy="836.8" fill="#f4589f" rx="76.14" ry="18.35"/><ellipse cx="871.45" cy="836.8" fill="#ff92c4" rx="69.5" ry="16.06"/><path fill="#363372" d="M906.34,813.87h-69.79c-0.92,0-1.66-0.74-1.66-1.66v-3.19c0-0.92,0.74-1.66,1.66-1.66h69.79    c0.92,0,1.66,0.74,1.66,1.66v3.19C908,813.12,907.26,813.87,906.34,813.87z"/></g><radialGradient id="a" cx="934.591" cy="112.867" r="30.408" gradientUnits="userSpaceOnUse"><stop offset="0" stop-color="#ffb0ec"/><stop offset="1" stop-color="#fff"/></radialGradient><circle cx="934.59" cy="112.87" r="30.41" fill="url(#a)"/><radialGradient id="b" cx="227.138" cy="295.171" r="30.408" gradientUnits="userSpaceOnUse"><stop offset="0" stop-color="#ffb0ec"/><stop offset="1" stop-color="#fff"/></radialGradient><circle cx="227.14" cy="295.17" r="30.41" fill="url(#b)"/><radialGradient id="c" cx="1166.32" cy="680.624" r="30.408" gradientUnits="userSpaceOnUse"><stop offset="0" stop-color="#ffb0ec"/><stop offset="1" stop-color="#fff"/></radialGradient><circle cx="1166.32" cy="680.62" r="30.41" fill="url(#c)"/><radialGradient id="d" cx="1109.95" cy="359.427" r="20.489" gradientUnits="userSpaceOnUse"><stop offset="0" stop-color="#a9a7d8"/><stop offset="1" stop-color="#fff"/></radialGradient><circle cx="1109.95" cy="359.43" r="20.49" fill="url(#d)"/><radialGradient id="e" cx="491.18" cy="172.218" r="20.489" gradientUnits="userSpaceOnUse"><stop offset="0" stop-color="#a9a7d8"/><stop offset="1" stop-color="#fff"/></radialGradient><circle cx="491.18" cy="172.22" r="20.49" fill="url(#e)"/><radialGradient id="f" cx="187.761" cy="639.348" r="20.489" gradientUnits="userSpaceOnUse"><stop offset="0" stop-color="#a9a7d8"/><stop offset="1" stop-color="#fff"/></radialGradient><circle cx="187.76" cy="639.35" r="20.49" fill="url(#f)"/></svg>